<?xml version="1.0" encoding="utf-8"?>
<!-- Generator: Adobe Illustrator 19.1.0, SVG Export Plug-In . SVG Version: 6.00 Build 0)  -->
<svg version="1.1" xmlns="http://www.w3.org/2000/svg" xmlns:xlink="http://www.w3.org/1999/xlink" x="0px" y="0px"
	 viewBox="0 0 100 100" style="enable-background:new 0 0 100 100;" xml:space="preserve">
<g id="Layer_1">
</g>
<g id="Layer_2">
	<g>
		<polygon points="64.3,38 49.5,38 64,18.2 64,12.9 40.9,12.9 40.9,18.7 55.4,18.7 40.9,38.4 40.9,43.8 64.3,43.8 		"/>
		<path d="M89.1,48.7c2.6-0.5,5.1-2.4,5.1-5.4c0-3.9-3.4-6.4-8.9-6.4c-4.1,0-7.1,1.6-9,3.7l2.5,3.1c1.7-1.6,3.7-2.4,6-2.4
			c2.4,0,4.4,0.9,4.4,2.8c0,1.7-1.8,2.5-4.4,2.5c-0.9,0-2.5,0-2.9,0v4.5c0.4,0,1.9-0.1,2.9-0.1c3.3,0,4.7,0.8,4.7,2.7
			c0,1.8-1.6,3-4.4,3c-2.3,0-4.9-1-6.4-2.7l-2.6,3.3c1.7,2.1,5,3.8,9.3,3.8c5.6,0,9.3-2.9,9.3-6.9C94.6,50.8,91.5,49,89.1,48.7z"/>
		<path d="M48.3,55.8L36.4,86.6h7.4l1.9-5.2H59l1.9,5.2h7.4L56.5,55.8H48.3z M47.6,75.6l4.8-13.3l4.8,13.3H47.6z"/>
		<path d="M20.9,16.3c0-1.7-1.4-3.1-3.1-3.1s-3.1,1.4-3.1,3.1v49.3H5.4l12.4,21.5l12.4-21.5h-9.3V16.3z"/>
	</g>
</g>
</svg>
