<?xml version="1.0" encoding="utf-8"?>
<!-- Generator: Adobe Illustrator 19.1.0, SVG Export Plug-In . SVG Version: 6.00 Build 0)  -->
<svg version="1.1" xmlns="http://www.w3.org/2000/svg" xmlns:xlink="http://www.w3.org/1999/xlink" x="0px" y="0px"
	 viewBox="0 0 100 100" style="enable-background:new 0 0 100 100;" xml:space="preserve">
<g id="Layer_1">
	<path d="M89.5,78.8L81,70.1V41.6c0-13.3-8.6-25.1-21-29.4C58.6,8,54.6,5,50,5c-4.6,0-8.6,3-10,7.2c-12.5,4.2-21,16.1-21,29.4v28.5
		l-8.4,8.6c-0.9,0.9-1.1,2.2-0.6,3.4c0.5,1.2,1.6,1.9,2.9,1.9h26.7c0,0.1,0,0.3,0,0.4C39.4,90.3,44.2,95,50,95
		c5.8,0,10.6-4.7,10.6-10.6c0-0.1,0-0.3,0-0.4h26.7c1.2,0,2.4-0.7,2.9-1.9C90.6,81,90.3,79.7,89.5,78.8z M54.3,84.4
		c0,2.4-1.9,4.3-4.3,4.3c-2.4,0-4.3-1.9-4.3-4.3c0-0.1,0-0.3,0-0.4h8.8C54.4,84.2,54.3,84.3,54.3,84.4z M20.1,77.8l4.2-4.2
		c0.6-0.6,0.9-1.4,0.9-2.2V41.6c0-11.2,7.5-21,18.3-23.9c1.2-0.3,2.1-1.4,2.3-2.6c0.3-2.2,2.1-3.8,4.3-3.8c2.2,0,4.1,1.6,4.3,3.8
		c0.1,1.3,1,2.3,2.3,2.6c10.7,2.9,18.3,12.8,18.3,23.9v29.8c0,0.8,0.3,1.6,0.9,2.2l4.2,4.2H20.1z"/>
</g>
<g id="Layer_2">
</g>
</svg>
