<?xml version="1.0" encoding="utf-8"?>
<!-- Generator: Adobe Illustrator 19.1.0, SVG Export Plug-In . SVG Version: 6.00 Build 0)  -->
<svg version="1.1" xmlns="http://www.w3.org/2000/svg" xmlns:xlink="http://www.w3.org/1999/xlink" x="0px" y="0px"
	 viewBox="0 0 100 100" style="enable-background:new 0 0 100 100;" xml:space="preserve">
<g id="Layer_1">
	<path d="M82.1,12.6h-8V8.4C74,6.5,72.5,5,70.6,5s-3.4,1.5-3.4,3.4v4.1H32.8V8.4c0-1.9-1.5-3.4-3.4-3.4S26,6.5,26,8.4v4.1h-8
		c-5.1,0-9.2,4.1-9.2,9.2v64.1c0,5.1,4.1,9.2,9.2,9.2h64.1c5.1,0,9.2-4.1,9.2-9.2V21.7C91.2,16.7,87.1,12.6,82.1,12.6z M44.7,61.8
		v-9.8h10.8v9.8H44.7z M55.5,66.4v9.8H44.7v-9.8H55.5z M15.6,51.9H25v9.8h-9.4V51.9z M29.6,51.9h10.5v9.8H29.6V51.9z M60.1,51.9
		h10.5v9.8H60.1V51.9z M75.2,51.9h9.2v9.8h-9.2V51.9z M84.4,47.4h-9.2v-8.7h9.2V47.4z M70.6,47.4H60.1v-8.7h10.5V47.4z M55.5,47.4
		H44.7v-8.7h10.8V47.4z M40.2,47.4H29.6v-8.7h10.5V47.4z M25,47.4h-9.4v-8.7H25V47.4z M15.6,66.4H25v9.8h-9.4V66.4z M29.6,66.4h10.5
		v9.8H29.6V66.4z M40.2,80.8v7.3H29.6v-7.3H40.2z M44.7,80.8h10.8v7.3H44.7V80.8z M60.1,80.8h10.5v7.3H60.1V80.8z M60.1,76.2v-9.8
		h10.5v9.8H60.1z M75.2,66.4h9.2v9.8h-9.2V66.4z M17.9,19.4h8v5.5c0,1.9,1.5,3.4,3.4,3.4s3.4-1.5,3.4-3.4v-5.5h34.4v5.5
		c0,1.9,1.5,3.4,3.4,3.4s3.4-1.5,3.4-3.4v-5.5h8c1.3,0,2.3,1,2.3,2.3v10.1H15.6V21.7C15.6,20.5,16.7,19.4,17.9,19.4z M15.6,85.8v-5
		H25v7.3h-7.1C16.7,88.1,15.6,87.1,15.6,85.8z M82.1,88.1h-6.9v-7.3h9.2v5C84.4,87.1,83.3,88.1,82.1,88.1z"/>
</g>
<g id="Layer_2">
</g>
</svg>
