<?xml version="1.0" encoding="utf-8"?>
<!-- Generator: Adobe Illustrator 19.1.0, SVG Export Plug-In . SVG Version: 6.00 Build 0)  -->
<svg version="1.1" xmlns="http://www.w3.org/2000/svg" xmlns:xlink="http://www.w3.org/1999/xlink" x="0px" y="0px"
	 viewBox="0 0 100 100" style="enable-background:new 0 0 100 100;" xml:space="preserve">
<g id="Layer_1">
	<g>
		<path d="M45.9,95.2c-11.2,0-21.5-4.2-29.1-11.8C9.2,75.8,5,65.5,5,54.3C5,43.1,9.2,32.6,16.8,25c7.6-7.6,17.9-12,29.1-12h0
			c1.7,0,3.1,1.8,3.1,3.5V51h34.7c1.7,0,3.3,1.6,3.3,3.3v0c0,11.2-4.3,21.5-11.9,29.1C67.5,91,57.1,95.2,45.9,95.2z M43,19.8
			c-9,0.7-16,4.1-21.7,9.8c-6.4,6.4-10,15.2-10,24.7c0,9.5,3.5,18.3,9.9,24.7c6.4,6.4,15.1,9.9,24.6,9.9c9.5,0,18.3-3.2,24.7-9.6
			c5.7-5.7,9.1-13.3,9.8-21.3H45.9c-1.7,0-2.9-2-2.9-3.7V19.8z"/>
		<path d="M91.9,43H60.4c-1.7,0-3.4-1.4-3.4-3.2V8.3c0-0.8,0.5-1.7,1-2.3c0.6-0.6,1.5-1,2.3-1c0,0,0,0,0,0C79.8,5,95,20.3,95,39.7
			c0,0.8-0.3,1.7-0.9,2.3C93.5,42.6,92.7,43,91.9,43z M63,37h25.5C87.1,23,77,13.1,63,11.7V37z"/>
	</g>
</g>
<g id="Layer_2">
</g>
</svg>
