<?xml version="1.0" encoding="utf-8"?>
<!-- Generator: Adobe Illustrator 19.1.0, SVG Export Plug-In . SVG Version: 6.00 Build 0)  -->
<svg version="1.1" xmlns="http://www.w3.org/2000/svg" xmlns:xlink="http://www.w3.org/1999/xlink" x="0px" y="0px"
	 viewBox="0 0 100 100" style="enable-background:new 0 0 100 100;" xml:space="preserve">
<g id="Layer_1">
</g>
<g id="Layer_2">
	<path d="M70.5,92c-2.4,0-5.7-1.1-8.3-4.8c-1.6-2.2-2.7-5.3-3.6-9.3c-1.4-6.7-1.8-15.6-2.1-24.2c-0.3-8.3-0.7-16.8-2-23
		c-0.6-2.9-1.4-5-2.4-6.4c-0.9-1.3-1.6-1.4-2.3-1.4c0,0,0,0,0,0c-1.7,0-3,3.8-3.5,5.5c-1.4,4.8-2.1,11.6-2.8,18.3
		c-0.7,7-1.5,14.1-3.1,19.6c-0.9,3.3-2.1,5.7-3.5,7.5c-2.5,3.2-5.5,3.8-7.5,3.7c-1.7,0-4.2-0.6-6.3-3.4c-1.1-1.5-1.9-3.5-2.6-6.1
		c-1-4.2-1.4-9.6-1.8-14.8c-0.3-4.3-0.6-8.7-1.3-12c-0.5-2.6-1.1-3.9-1.4-4.5c-0.6,1-1.5,3.3-2.4,8.3c-0.8,4.3-1,8.2-1,8.3
		c-0.1,2.1-2,3.7-4.1,3.5c-2.1-0.1-3.7-2-3.5-4.1c0-0.2,0.4-5.5,1.5-10.8c0.7-3.3,1.5-6,2.4-7.9c1.2-2.5,3.3-5.4,6.8-5.4
		c1.8,0,4.3,0.6,6.3,3.3c1.1,1.5,2,3.4,2.6,6c1,4.2,1.4,9.6,1.8,14.8c0.3,4.3,0.6,8.8,1.3,12.2c0.8,4,1.7,4.9,1.8,4.9c0,0,0,0,0,0
		c1.8,0,3.1-4,3.6-5.8c1.4-4.9,2.1-11.7,2.8-18.4c0.7-7,1.5-14.1,3.1-19.6c0.9-3.3,2.1-5.7,3.5-7.5c2.5-3.1,5.5-3.7,7.6-3.6
		c2.3,0.1,5.7,1,8.3,4.8c1.5,2.2,2.7,5.3,3.6,9.3c1.4,6.8,1.8,15.7,2.1,24.2c0.3,8.2,0.7,16.8,2,22.8c0.6,2.9,1.4,5,2.3,6.3
		c0.9,1.2,1.6,1.3,2.2,1.3c3.6,0,6.6-6,8-9.5c2.4-6,4.4-14.4,5.9-25.1c2.6-18.4,2.9-37,2.9-37.2c0-2.1,1.8-3.8,3.9-3.8
		c2.1,0,3.8,1.8,3.8,3.9c0,0.8-0.3,19.3-3,38.2c-1.6,11.2-3.8,20.6-6.4,27.1c-3.8,9.4-8.8,13.6-15,14.6C70.6,92,70.6,92,70.5,92z"/>
</g>
</svg>
