<?xml version="1.0" encoding="utf-8"?>
<!-- Generator: Adobe Illustrator 19.1.0, SVG Export Plug-In . SVG Version: 6.00 Build 0)  -->
<svg version="1.1" xmlns="http://www.w3.org/2000/svg" xmlns:xlink="http://www.w3.org/1999/xlink" x="0px" y="0px"
	 viewBox="0 0 100 100" style="enable-background:new 0 0 100 100;" xml:space="preserve">
<g id="Layer_1">
	<g>
		<path d="M50,11.2c10.4,0,20.1,4,27.4,11.3s11.3,17,11.3,27.4s-4,20.1-11.3,27.4S60.4,88.8,50,88.8s-20.1-4-27.4-11.3
			S11.2,60.4,11.2,50s4-20.1,11.3-27.4S39.6,11.2,50,11.2 M50,5C25.1,5,5,25.1,5,50s20.1,45,45,45s45-20.1,45-45S74.9,5,50,5L50,5z"
			/>
		<g>
			<path d="M37.2,49.5c0-8.8,4.1-17.9,13.9-17.9c9.7,0,13.9,9.2,13.9,17.9c0,8.7-4.1,18-13.9,18C41.3,67.5,37.2,58.2,37.2,49.5z
				 M58.8,49.5c0-6.7-2-12.5-7.7-12.5s-7.7,5.8-7.7,12.5c0,6.6,2,12.6,7.7,12.6C56.7,62.1,58.8,56.1,58.8,49.5z"/>
		</g>
	</g>
</g>
<g id="Layer_2">
</g>
</svg>
