<?xml version="1.0" encoding="utf-8"?>
<!-- Generator: Adobe Illustrator 19.1.0, SVG Export Plug-In . SVG Version: 6.00 Build 0)  -->
<svg version="1.1" xmlns="http://www.w3.org/2000/svg" xmlns:xlink="http://www.w3.org/1999/xlink" x="0px" y="0px"
	 viewBox="0 0 100 100" style="enable-background:new 0 0 100 100;" xml:space="preserve">
<g id="Layer_1">
	<g>
		<path d="M77.4,29.4c-1.7,0-3.2,1.4-3.2,3.2v51.4c0,2.5-2.1,4.6-4.6,4.6H30.5c-2.5,0-4.6-2.1-4.6-4.6V32.5c0-1.7-1.4-3.2-3.2-3.2
			c-1.7,0-3.2,1.4-3.2,3.2v51.4c0,6,4.9,10.9,10.9,10.9h39.1c6,0,10.9-4.9,10.9-10.9V32.5C80.5,30.8,79.1,29.4,77.4,29.4z"/>
		<path d="M53,78.7v-41c0-1.7-1.3-3.2-3-3.2s-3,1.4-3,3.2v41c0,1.7,1.3,3.2,3,3.2S53,80.5,53,78.7z"/>
		<path d="M40,78.7v-41c0-1.7-1.3-3.2-3-3.2s-3,1.4-3,3.2v41c0,1.7,1.3,3.2,3,3.2S40,80.5,40,78.7z"/>
		<path d="M66,78.7v-41c0-1.7-1.3-3.2-3-3.2s-3,1.4-3,3.2v41c0,1.7,1.3,3.2,3,3.2S66,80.5,66,78.7z"/>
		<path d="M84.2,17H15.8c-1.7,0-3.2,1.3-3.2,3s1.4,3,3.2,3h68.3c1.7,0,3.2-1.3,3.2-3S85.9,17,84.2,17z"/>
		<path d="M40.9,11h18.2c1.7,0,3.2-1.3,3.2-3s-1.4-3-3.2-3H40.9c-1.7,0-3.2,1.3-3.2,3S39.1,11,40.9,11z"/>
	</g>
</g>
<g id="Layer_2">
</g>
</svg>
