<?xml version="1.0" encoding="utf-8"?>
<!-- Generator: Adobe Illustrator 19.1.0, SVG Export Plug-In . SVG Version: 6.00 Build 0)  -->
<svg version="1.1" xmlns="http://www.w3.org/2000/svg" xmlns:xlink="http://www.w3.org/1999/xlink" x="0px" y="0px"
	 viewBox="0 0 100 100" style="enable-background:new 0 0 100 100;" xml:space="preserve">
<g id="Layer_1">
</g>
<g id="Layer_2">
	<path d="M94.9,50c0-12.3-4.6-23.7-12.9-32C73.6,9.7,62.3,5,50,5c0,0,0,0,0,0c0,0,0,0,0,0c0,0,0,0,0,0C37.7,5,26.3,9.6,18,18
		C9.7,26.3,5.1,37.7,5.1,50c0,12.3,4.6,23.7,12.9,32C26.3,90.4,37.7,95,50,95c0,0,0,0,0,0c0,0,0,0,0,0c0,0,0,0,0,0
		c12.3,0,23.7-4.6,32-12.9C90.3,73.7,94.9,62.3,94.9,50z M6.4,51h20.8c0.1,8,1.1,16,3,22H12.5C8.7,67,6.6,59,6.4,51z M93.6,50H72.8
		c0-7.3-0.8-14-2.4-21h18.3C91.9,36,93.6,42.7,93.6,50z M71.5,50H50V29h19.1C70.6,36,71.5,42.7,71.5,50z M50,28V6.4
		c5.9,0,11.2,4.3,15.2,12.3c1.4,2.8,2.6,6.3,3.5,9.3H50z M49,28H31.3c0.9-3,2.3-6.5,3.7-9.3c3.7-7.4,8-11.6,14-12.2V28z M49,29v21
		H28.5c0-7.3,0.8-14,2.4-21H49z M27.2,50H6.4c0-7.3,1.7-14,4.9-21h18.3C28,36,27.2,42.7,27.2,50z M28.5,51H49v22H31.6
		C29.7,67,28.6,59,28.5,51z M49,74v19.5c-6-0.6-10.4-5-14-12.4C33.9,79,32.8,77,32,74H49z M50,74h18c-0.8,3-1.8,5-2.8,7.1
		c-4,8-9.3,12.5-15.2,12.5V74z M50,73V51h21.5c-0.1,8-1.2,16-3.1,22H50z M72.8,51h20.8c-0.2,8-2.3,16-6.2,22H69.8
		C71.6,67,72.7,59,72.8,51z M81.1,18.9c2.8,2.8,5.1,6.1,7,9.1h-18c-1-3-2.2-6.9-3.7-9.9c-2.7-5.4-6.1-9.3-9.8-11.3
		C65.9,8.1,74.5,12.3,81.1,18.9z M18.9,18.9C25.5,12.3,34,8.1,43.4,6.8c-3.7,2.1-7.1,5.9-9.8,11.3c-1.5,3-2.7,6.9-3.7,9.9H12
		C13.8,25,16.2,21.6,18.9,18.9z M18.9,81c-2.1-2.1-3.9-4-5.5-7h17.2c0.9,3,1.9,5.4,3,7.7c2.7,5.4,6.1,9.2,9.8,11.3
		C34,91.7,25.5,87.6,18.9,81z M56.6,93.2c3.7-2.1,7.1-6,9.8-11.4c1.2-2.3,2.2-4.7,3-7.7h17.2c-1.6,3-3.5,4.9-5.6,7
		C74.5,87.5,66,91.8,56.6,93.2z"/>
</g>
</svg>
