<?xml version="1.0" encoding="utf-8"?>
<!-- Generator: Adobe Illustrator 19.1.0, SVG Export Plug-In . SVG Version: 6.00 Build 0)  -->
<svg version="1.1" xmlns="http://www.w3.org/2000/svg" xmlns:xlink="http://www.w3.org/1999/xlink" x="0px" y="0px"
	 viewBox="0 0 100 100" style="enable-background:new 0 0 100 100;" xml:space="preserve">
<g id="Layer_1">
</g>
<g id="Layer_2">
	<g>
		<path d="M94.4,93.8H7.7c-0.8,0-1.4-0.6-1.4-1.4V5.6C6.2,5.3,6,5,5.6,5C5.3,5,5,5.3,5,5.6v86.7C5,93.8,6.2,95,7.7,95h86.7
			c0.3,0,0.6-0.3,0.6-0.6C95,94,94.7,93.8,94.4,93.8z"/>
		<circle cx="22.6" cy="81.1" r="3.7"/>
		<circle cx="18.9" cy="70" r="3.7"/>
		<circle cx="31.8" cy="73.7" r="3.7"/>
		<circle cx="53.9" cy="70" r="3.7"/>
		<circle cx="42.8" cy="62.7" r="3.7"/>
		<circle cx="44.7" cy="46.1" r="3.7"/>
		<circle cx="52" cy="55.3" r="3.7"/>
		<circle cx="59.4" cy="40.6" r="3.7"/>
		<circle cx="77.8" cy="44.3" r="3.7"/>
		<circle cx="59.4" cy="25.9" r="3.7"/>
		<circle cx="74.1" cy="14.8" r="3.7"/>
		<circle cx="83.3" cy="29.5" r="3.7"/>
		<circle cx="30" cy="51.6" r="3.7"/>
	</g>
</g>
</svg>
