<?xml version="1.0" encoding="utf-8"?>
<!-- Generator: Adobe Illustrator 19.1.0, SVG Export Plug-In . SVG Version: 6.00 Build 0)  -->
<svg version="1.1" xmlns="http://www.w3.org/2000/svg" xmlns:xlink="http://www.w3.org/1999/xlink" x="0px" y="0px"
	 viewBox="0 0 100 100" style="enable-background:new 0 0 100 100;" xml:space="preserve">
<g id="Layer_1">
	<g>
		<path d="M72.3,40.4H27.7c-1.7,0-3.1,1.4-3.1,3.1c0,1.7,1.4,3.1,3.1,3.1h44.7c1.7,0,3.1-1.4,3.1-3.1C75.4,41.8,74.1,40.4,72.3,40.4
			z"/>
		<path d="M72.3,55.3H27.7c-1.7,0-3.1,1.4-3.1,3.1c0,1.7,1.4,3.1,3.1,3.1h44.7c1.7,0,3.1-1.4,3.1-3.1C75.4,56.7,74.1,55.3,72.3,55.3
			z"/>
		<path d="M72.3,70.2H27.7c-1.7,0-3.1,1.4-3.1,3.1s1.4,3.1,3.1,3.1h44.7c1.7,0,3.1-1.4,3.1-3.1S74.1,70.2,72.3,70.2z"/>
		<path d="M80.4,14.3H63h-1.8C60.3,9,55.6,5,50,5s-10.3,4-11.3,9.3H37H19.6c-3.8,0-6.8,3.1-6.8,6.8v67c0,3.8,3.1,6.8,6.8,6.8h60.8
			c3.8,0,6.8-3.1,6.8-6.8v-67C87.2,17.4,84.2,14.3,80.4,14.3z M44,19.5c0.6-0.7,0.9-1.5,0.8-2.4c0-0.2,0-0.4,0-0.6
			c0-2.9,2.4-5.3,5.3-5.3s5.3,2.4,5.3,5.3c0,0.2,0,0.4,0,0.6c-0.1,0.9,0.2,1.8,0.8,2.4c0.6,0.7,1.4,1,2.3,1H63
			c2.3,0,4.3,1.2,5.4,3.1H31.6c1.1-1.9,3.1-3.1,5.4-3.1h4.7C42.6,20.5,43.4,20.1,44,19.5z M81,88.2c0,0.3-0.3,0.6-0.6,0.6H19.6
			c-0.3,0-0.6-0.3-0.6-0.6v-67c0-0.3,0.3-0.6,0.6-0.6h6.6c-1.1,1.8-1.7,3.9-1.7,6.2c0,1.7,1.4,3.1,3.1,3.1h44.7
			c1.7,0,3.1-1.4,3.1-3.1c0-2.3-0.6-4.4-1.7-6.2h6.6c0.3,0,0.6,0.3,0.6,0.6V88.2z"/>
	</g>
</g>
<g id="Layer_2">
</g>
</svg>
