<?xml version="1.0" encoding="utf-8"?>
<!-- Generator: Adobe Illustrator 19.1.0, SVG Export Plug-In . SVG Version: 6.00 Build 0)  -->
<svg version="1.1" xmlns="http://www.w3.org/2000/svg" xmlns:xlink="http://www.w3.org/1999/xlink" x="0px" y="0px"
	 viewBox="0 0 100 100" style="enable-background:new 0 0 100 100;" xml:space="preserve">
<g id="Layer_1">
</g>
<g id="Layer_2">
	<g>
		<path d="M85.4,14.4H14.6C9.3,14.4,5,18.7,5,24v29c0,5.3,4.3,9.6,9.6,9.6h70.8c5.3,0,9.6-4.3,9.6-9.6V24
			C95,18.7,90.7,14.4,85.4,14.4z M88.8,53c0,1.8-1.5,3.3-3.3,3.3H14.6c-1.8,0-3.3-1.5-3.3-3.3V24c0-1.8,1.5-3.3,3.3-3.3h70.8
			c1.8,0,3.3,1.5,3.3,3.3V53z"/>
		<path d="M57,72.2l-7,6.1l-7-6.1c-1.3-1.1-3.3-1-4.4,0.3s-1,3.3,0.3,4.4l9,7.9c0.6,0.5,1.3,0.8,2.1,0.8c0.7,0,1.5-0.3,2.1-0.8
			l9-7.9c1.3-1.1,1.4-3.1,0.3-4.4C60.2,71.2,58.3,71,57,72.2z"/>
		<path d="M23.4,23.8h-3.1c-0.7,0-1.2,0.6-1.2,1.2v3.1c0,0.7,0.6,1.2,1.2,1.2h3.1c0.7,0,1.2-0.6,1.2-1.2v-3.1
			C24.7,24.4,24.1,23.8,23.4,23.8z"/>
		<path d="M31.6,29.4h3.1c0.7,0,1.2-0.6,1.2-1.2v-3.1c0-0.7-0.6-1.2-1.2-1.2h-3.1c-0.7,0-1.2,0.6-1.2,1.2v3.1
			C30.3,28.9,30.9,29.4,31.6,29.4z"/>
		<path d="M42.8,29.4h3.1c0.7,0,1.2-0.6,1.2-1.2v-3.1c0-0.7-0.6-1.2-1.2-1.2h-3.1c-0.7,0-1.2,0.6-1.2,1.2v3.1
			C41.6,28.9,42.1,29.4,42.8,29.4z"/>
		<path d="M54.1,29.4h3.1c0.7,0,1.2-0.6,1.2-1.2v-3.1c0-0.7-0.6-1.2-1.2-1.2h-3.1c-0.7,0-1.2,0.6-1.2,1.2v3.1
			C52.8,28.9,53.4,29.4,54.1,29.4z"/>
		<path d="M68.4,23.8h-3.1c-0.7,0-1.2,0.6-1.2,1.2v3.1c0,0.7,0.6,1.2,1.2,1.2h3.1c0.7,0,1.2-0.6,1.2-1.2v-3.1
			C69.7,24.4,69.1,23.8,68.4,23.8z"/>
		<path d="M79.7,23.8h-3.1c-0.7,0-1.2,0.6-1.2,1.2v3.1c0,0.7,0.6,1.2,1.2,1.2h3.1c0.7,0,1.2-0.6,1.2-1.2v-3.1
			C80.9,24.4,80.4,23.8,79.7,23.8z"/>
		<path d="M23.4,35.1h-3.1c-0.7,0-1.2,0.6-1.2,1.2v3.1c0,0.7,0.6,1.2,1.2,1.2h3.1c0.7,0,1.2-0.6,1.2-1.2v-3.1
			C24.7,35.6,24.1,35.1,23.4,35.1z"/>
		<path d="M31.6,40.7h3.1c0.7,0,1.2-0.6,1.2-1.2v-3.1c0-0.7-0.6-1.2-1.2-1.2h-3.1c-0.7,0-1.2,0.6-1.2,1.2v3.1
			C30.3,40.1,30.9,40.7,31.6,40.7z"/>
		<path d="M42.8,40.7h3.1c0.7,0,1.2-0.6,1.2-1.2v-3.1c0-0.7-0.6-1.2-1.2-1.2h-3.1c-0.7,0-1.2,0.6-1.2,1.2v3.1
			C41.6,40.1,42.1,40.7,42.8,40.7z"/>
		<path d="M54.1,40.7h3.1c0.7,0,1.2-0.6,1.2-1.2v-3.1c0-0.7-0.6-1.2-1.2-1.2h-3.1c-0.7,0-1.2,0.6-1.2,1.2v3.1
			C52.8,40.1,53.4,40.7,54.1,40.7z"/>
		<path d="M68.4,35.1h-3.1c-0.7,0-1.2,0.6-1.2,1.2v3.1c0,0.7,0.6,1.2,1.2,1.2h3.1c0.7,0,1.2-0.6,1.2-1.2v-3.1
			C69.7,35.6,69.1,35.1,68.4,35.1z"/>
		<path d="M79.7,35.1h-3.1c-0.7,0-1.2,0.6-1.2,1.2v3.1c0,0.7,0.6,1.2,1.2,1.2h3.1c0.7,0,1.2-0.6,1.2-1.2v-3.1
			C80.9,35.6,80.4,35.1,79.7,35.1z"/>
		<path d="M23.4,46.3h-3.1c-0.7,0-1.2,0.6-1.2,1.2v3.1c0,0.7,0.6,1.2,1.2,1.2h3.1c0.7,0,1.2-0.6,1.2-1.2v-3.1
			C24.7,46.9,24.1,46.3,23.4,46.3z"/>
		<path d="M68.4,46.3h-0.9h-2.2H31.6c-0.7,0-1.2,0.6-1.2,1.2v3.1c0,0.7,0.6,1.2,1.2,1.2h33.8h2.2h0.9c0.7,0,1.2-0.6,1.2-1.2v-3.1
			C69.7,46.9,69.1,46.3,68.4,46.3z"/>
		<path d="M79.7,46.3h-3.1c-0.7,0-1.2,0.6-1.2,1.2v3.1c0,0.7,0.6,1.2,1.2,1.2h3.1c0.7,0,1.2-0.6,1.2-1.2v-3.1
			C80.9,46.9,80.4,46.3,79.7,46.3z"/>
	</g>
</g>
</svg>
