<?xml version="1.0" encoding="utf-8"?>
<!-- Generator: Adobe Illustrator 19.1.0, SVG Export Plug-In . SVG Version: 6.00 Build 0)  -->
<svg version="1.1" xmlns="http://www.w3.org/2000/svg" xmlns:xlink="http://www.w3.org/1999/xlink" x="0px" y="0px"
	 viewBox="0 0 100 100" style="enable-background:new 0 0 100 100;" xml:space="preserve">
<g id="Layer_1">
	<g>
		<path d="M42,81.8c0-4.4,3.6-8,8-8c4.4,0,8,3.6,8,8c0,4.4-3.6,8-8,8C45.6,89.8,42,86.2,42,81.8 M36.8,81.8L36.8,81.8
			C36.8,89.1,42.7,95,50,95h0c7.3,0,13.2-5.9,13.2-13.2v0c0-7.3-5.9-13.2-13.2-13.2h0C42.7,68.5,36.8,74.5,36.8,81.8L36.8,81.8z"/>
		<path d="M42,50c0-4.4,3.6-8,8-8c4.4,0,8,3.6,8,8c0,4.4-3.6,8-8,8C45.6,58,42,54.4,42,50 M36.8,50L36.8,50
			c0,7.3,5.9,13.2,13.2,13.2h0c7.3,0,13.2-5.9,13.2-13.2v0c0-7.3-5.9-13.2-13.2-13.2h0C42.7,36.8,36.8,42.7,36.8,50L36.8,50z"/>
		<path d="M42,18.2c0-4.4,3.6-8,8-8c4.4,0,8,3.6,8,8s-3.6,8-8,8C45.6,26.3,42,22.7,42,18.2 M36.8,18.2L36.8,18.2
			c0,7.3,5.9,13.2,13.2,13.2h0c7.3,0,13.2-5.9,13.2-13.2v0C63.2,10.9,57.3,5,50,5h0C42.7,5,36.8,10.9,36.8,18.2L36.8,18.2z"/>
	</g>
</g>
<g id="Layer_2">
</g>
</svg>
