<?xml version="1.0" encoding="utf-8"?>
<!-- Generator: Adobe Illustrator 19.1.0, SVG Export Plug-In . SVG Version: 6.00 Build 0)  -->
<svg version="1.1" xmlns="http://www.w3.org/2000/svg" xmlns:xlink="http://www.w3.org/1999/xlink" x="0px" y="0px"
	 viewBox="0 0 100 100" style="enable-background:new 0 0 100 100;" xml:space="preserve">
<g id="Layer_1">
	<path d="M93.9,88.7L60.7,55.4c4.2-5.3,6.7-12,6.7-19.2C67.3,18.9,53.4,5,36.2,5S5,18.9,5,36.2s13.9,31.2,31.2,31.2
		c7.3,0,13.9-2.5,19.2-6.7l33.2,33.2c0.7,0.7,1.7,1.1,2.6,1.1c1,0,1.9-0.4,2.6-1.1C95.4,92.5,95.4,90.1,93.9,88.7z M18.1,54.2
		c-4.8-4.8-7.5-11.3-7.5-18.1s2.7-13.3,7.5-18.1c4.8-4.8,11.3-7.5,18.1-7.5c6.8,0,13.3,2.7,18.1,7.5s7.5,11.3,7.5,18.1
		s-2.7,13.3-7.5,18.1S43,61.7,36.2,61.7C29.3,61.7,22.9,59.1,18.1,54.2z"/>
</g>
<g id="Layer_2">
</g>
</svg>
