<?xml version="1.0" encoding="utf-8"?>
<!-- Generator: Adobe Illustrator 19.1.0, SVG Export Plug-In . SVG Version: 6.00 Build 0)  -->
<svg version="1.1" xmlns="http://www.w3.org/2000/svg" xmlns:xlink="http://www.w3.org/1999/xlink" x="0px" y="0px"
	 viewBox="0 0 100 100" style="enable-background:new 0 0 100 100;" xml:space="preserve">
<g id="Layer_1">
	<path d="M87.3,22.3H12.7C8.4,22.3,5,25.8,5,30v40c0,4.2,3.4,7.7,7.7,7.7h74.6c4.2,0,7.7-3.4,7.7-7.7V30
		C95,25.8,91.6,22.3,87.3,22.3z M89.9,30v40c0,0.8-0.4,1.6-1,2.1L63.3,50l25.6-22.1C89.5,28.4,89.9,29.2,89.9,30z M10.1,70V30
		c0-0.8,0.4-1.6,1-2.1L36.7,50l-25.6,22C10.5,71.6,10.1,70.8,10.1,70z M45.9,58c1.2,1,2.6,1.6,4.1,1.6s2.9-0.5,4.1-1.6l5.3-4.6
		l22,19.2H18.6l22-19.2L45.9,58z M50.9,54c-0.3,0.3-0.6,0.3-0.9,0.3s-0.6-0.1-0.9-0.3L18.6,27.4h62.7L50.9,54z"/>
</g>
<g id="Layer_2">
</g>
</svg>
