<?xml version="1.0" encoding="utf-8"?>
<!-- Generator: Adobe Illustrator 19.1.0, SVG Export Plug-In . SVG Version: 6.00 Build 0)  -->
<svg version="1.1" xmlns="http://www.w3.org/2000/svg" xmlns:xlink="http://www.w3.org/1999/xlink" x="0px" y="0px"
	 viewBox="0 0 100 100" style="enable-background:new 0 0 100 100;" xml:space="preserve">
<g id="Layer_1">
	<g>
		<path d="M89.4,46.5c-3-3.3-6.9-5.4-11.1-6.2c-1.6-5.7-5-10.8-9.5-14.6C63.6,21.4,56.9,19,50,19c-10.5,0-20,5.4-25,14.3
			C13.3,35.5,5,45.2,5,57c0,13.3,10.8,24,24,24h45.4c5.6,0,10.7-2.1,14.6-6c3.8-3.8,6-9,6-14.6C95,55.3,93,50.4,89.4,46.5z
			 M74.5,74.9H29c-9.9,0-17.9-8-17.9-17.9c0-9.2,6.8-16.7,16.2-17.9l1.6-0.2l0.7-1.5c3.8-7.6,11.6-12.3,20.3-12.3
			c5.5,0,10.7,1.8,14.9,5.3c4.1,3.4,6.9,8,7.9,13.2l0.5,2.3l2.3,0.2c7.3,0.6,13.3,7.1,13.3,14.4C88.9,68.6,82.5,74.9,74.5,74.9z"/>
		<path d="M62.4,41.4c-1.2-1.2-3.1-1.2-4.3,0L50,49.5l-8.1-8.1c-1.2-1.2-3.1-1.2-4.3,0c-1.2,1.2-1.2,3.1,0,4.3l8.1,8.1l-8.1,8.1
			c-1.2,1.2-1.2,3.1,0,4.3c0.6,0.6,1.4,0.9,2.2,0.9c0.8,0,1.6-0.3,2.2-0.9l8.1-8.1l8.1,8.1c0.6,0.6,1.4,0.9,2.2,0.9
			c0.8,0,1.6-0.3,2.2-0.9c1.2-1.2,1.2-3.1,0-4.3l-8.1-8.1l8.1-8.1C63.6,44.6,63.6,42.6,62.4,41.4z"/>
	</g>
</g>
<g id="Layer_2">
</g>
</svg>
