<?xml version="1.0" encoding="utf-8"?>
<!-- Generator: Adobe Illustrator 19.1.0, SVG Export Plug-In . SVG Version: 6.00 Build 0)  -->
<svg version="1.1" xmlns="http://www.w3.org/2000/svg" xmlns:xlink="http://www.w3.org/1999/xlink" x="0px" y="0px"
	 viewBox="0 0 100 100" style="enable-background:new 0 0 100 100;" xml:space="preserve">
<g id="Layer_1">
	<path d="M23.5,95c-0.9,0-1.8-0.1-2.8-0.2c-1.9-0.3-3.5-1.6-4.1-3.4c-0.6-1.8-0.1-3.8,1.2-5.2l3.3-3.3c0.5-0.5,0.8-1.3,0.8-2
		c0-0.8-0.3-1.5-0.8-2l-0.1-0.1c-1.1-1.1-2.9-1.1-4.1,0l-3.2,3.2c-1.4,1.4-3.4,1.8-5.2,1.2c-1.8-0.6-3.2-2.2-3.4-4.2
		C4.4,73,6.3,67.3,10.4,63.2c4.7-4.7,11.6-6.6,18-4.9l29.9-29.9c-1.7-6.4,0.2-13.2,4.9-18c4.1-4.1,9.8-6,15.7-5.2
		c1.9,0.3,3.5,1.6,4.2,3.4c0.6,1.8,0.2,3.9-1.2,5.2l-3.1,3.1c-0.5,0.5-0.8,1.3-0.8,2c0,0.8,0.3,1.5,0.8,2l0.1,0.1
		c1.1,1.1,2.9,1.1,4.1,0l3.2-3.2c1.4-1.4,3.4-1.8,5.2-1.2c1.8,0.6,3.2,2.2,3.4,4.1c0.9,6-1.1,12-5.2,16.1
		c-4.8,4.8-11.7,6.6-18.2,4.8L41.6,71.4c1.8,6.5,0,13.4-4.8,18.2C33.3,93.1,28.5,95,23.5,95z M19,71.5c2.4,0,4.7,0.9,6.5,2.7
		l0.1,0.1c1.7,1.7,2.7,4.1,2.7,6.5c0,2.5-1,4.8-2.7,6.5l-1.3,1.3c3-0.2,5.9-1.4,8-3.5c3.3-3.3,4.5-8.1,3-12.5
		c-0.6-1.8-0.1-3.8,1.2-5.1l30.8-30.8c1.4-1.4,3.3-1.8,5.1-1.2c4.4,1.4,9.3,0.3,12.6-3c2.1-2.1,3.3-5,3.5-8l-1.2,1.2
		c-3.6,3.6-9.4,3.6-13,0l-0.1-0.1c-1.8-1.7-2.7-4.1-2.7-6.5c0-2.5,1-4.8,2.7-6.5l1-1c-2.9,0.2-5.6,1.5-7.6,3.5
		c-3.3,3.3-4.4,8-3.1,12.4c0.6,1.8,0.1,3.7-1.3,5.1L32.4,63.3c-1.3,1.3-3.3,1.8-5.1,1.3c-4.4-1.3-9.1-0.2-12.4,3.1
		c-2,2-3.3,4.7-3.5,7.6l1.1-1.1C14.3,72.4,16.7,71.5,19,71.5z"/>
</g>
<g id="Layer_2">
</g>
</svg>
