<?xml version="1.0" encoding="utf-8"?>
<!-- Generator: Adobe Illustrator 19.1.0, SVG Export Plug-In . SVG Version: 6.00 Build 0)  -->
<svg version="1.1" xmlns="http://www.w3.org/2000/svg" xmlns:xlink="http://www.w3.org/1999/xlink" x="0px" y="0px"
	 viewBox="0 0 100 100" style="enable-background:new 0 0 100 100;" xml:space="preserve">
<g id="Layer_1">
	<g>
		<path d="M50,11.2c10.4,0,20.1,4,27.4,11.3s11.3,17,11.3,27.4s-4,20.1-11.3,27.4S60.4,88.8,50,88.8s-20.1-4-27.4-11.3
			S11.2,60.4,11.2,50s4-20.1,11.3-27.4S39.6,11.2,50,11.2 M50,5C25.1,5,5,25.1,5,50s20.1,45,45,45s45-20.1,45-45S74.9,5,50,5L50,5z"
			/>
		<g>
			<path d="M38,62.1l3.5-4.2c2.3,2.7,5.5,4.2,9.3,4.2c4.4,0,7.1-2.7,7.1-6.1c0-3.7-2.7-6.1-7-6.1c-2.9,0-5.4,0.9-7.6,3L39,51.5V32.1
				h22.8v5.4H45.1v10c1.7-1.6,4.5-3,7.9-3c5.9,0,11.1,4.1,11.1,11.2c0,7.2-5.5,11.8-13.3,11.8C44.9,67.5,40.8,65.4,38,62.1z"/>
		</g>
	</g>
</g>
<g id="Layer_2">
</g>
</svg>
