<?xml version="1.0" encoding="utf-8"?>
<!-- Generator: Adobe Illustrator 19.1.0, SVG Export Plug-In . SVG Version: 6.00 Build 0)  -->
<svg version="1.1" xmlns="http://www.w3.org/2000/svg" xmlns:xlink="http://www.w3.org/1999/xlink" x="0px" y="0px"
	 viewBox="0 0 100 100" style="enable-background:new 0 0 100 100;" xml:space="preserve">
<g id="Layer_1">
	<path d="M84.4,5H15.6C9.8,5,5,9.8,5,15.6v68.8C5,90.2,9.8,95,15.6,95h68.8C90.2,95,95,90.2,95,84.4V15.6C95,9.8,90.2,5,84.4,5z
		 M15.6,11.9h68.8c2,0,3.7,1.7,3.7,3.7v30.9H11.9V15.6C11.9,13.6,13.6,11.9,15.6,11.9z M11.9,84.4V53.5h34.6v34.6H15.6
		C13.6,88.1,11.9,86.4,11.9,84.4z M84.4,88.1H53.5V53.5h34.6v30.9C88.1,86.4,86.4,88.1,84.4,88.1z"/>
</g>
<g id="Layer_2">
</g>
</svg>
