<?xml version="1.0" encoding="utf-8"?>
<!-- Generator: Adobe Illustrator 19.1.0, SVG Export Plug-In . SVG Version: 6.00 Build 0)  -->
<svg version="1.1" xmlns="http://www.w3.org/2000/svg" xmlns:xlink="http://www.w3.org/1999/xlink" x="0px" y="0px"
	 viewBox="0 0 100 100" style="enable-background:new 0 0 100 100;" xml:space="preserve">
<g id="Layer_1">
	<g>
		<path d="M18.2,42c4.4,0,8,3.6,8,8c0,4.4-3.6,8-8,8c-4.4,0-8-3.6-8-8C10.2,45.6,13.8,42,18.2,42 M18.2,36.8L18.2,36.8
			C10.9,36.8,5,42.7,5,50v0c0,7.3,5.9,13.2,13.2,13.2h0c7.3,0,13.2-5.9,13.2-13.2v0C31.5,42.7,25.5,36.8,18.2,36.8L18.2,36.8z"/>
		<path d="M50,42c4.4,0,8,3.6,8,8c0,4.4-3.6,8-8,8c-4.4,0-8-3.6-8-8C42,45.6,45.6,42,50,42 M50,36.8L50,36.8
			c-7.3,0-13.2,5.9-13.2,13.2v0c0,7.3,5.9,13.2,13.2,13.2h0c7.3,0,13.2-5.9,13.2-13.2v0C63.2,42.7,57.3,36.8,50,36.8L50,36.8z"/>
		<path d="M81.8,42c4.4,0,8,3.6,8,8c0,4.4-3.6,8-8,8c-4.4,0-8-3.6-8-8C73.7,45.6,77.3,42,81.8,42 M81.8,36.8L81.8,36.8
			c-7.3,0-13.2,5.9-13.2,13.2v0c0,7.3,5.9,13.2,13.2,13.2h0C89.1,63.2,95,57.3,95,50v0C95,42.7,89.1,36.8,81.8,36.8L81.8,36.8z"/>
	</g>
</g>
<g id="Layer_2">
</g>
</svg>
