<?xml version="1.0" encoding="utf-8"?>
<!-- Generator: Adobe Illustrator 19.1.0, SVG Export Plug-In . SVG Version: 6.00 Build 0)  -->
<svg version="1.1" xmlns="http://www.w3.org/2000/svg" xmlns:xlink="http://www.w3.org/1999/xlink" x="0px" y="0px"
	 viewBox="0 0 100 100" style="enable-background:new 0 0 100 100;" xml:space="preserve">
<g id="Layer_1">
	<path d="M91.4,62c-1.8-0.7-3.8,0.2-4.5,2c-1.9,4.9-4.8,9.3-8.5,13c-14.8,14.8-39,14.8-53.9,0c-14.8-14.8-14.8-39,0-53.9
		c6.9-6.9,16-10.8,25.7-11.1c8-0.3,15.7,1.9,22.3,6.3l-7.8,6l25.5,10.6L86.5,7.4l-8.3,6.4c-8.1-6-18-9.1-28.3-8.8
		c-11.4,0.4-22.2,5.1-30.3,13.2C2,35.7,2,64.3,19.6,81.8C28.4,90.6,39.9,95,51.4,95s23.1-4.4,31.8-13.2c4.4-4.4,7.8-9.6,10.1-15.4
		C94,64.7,93.1,62.7,91.4,62z"/>
</g>
<g id="Layer_2">
</g>
</svg>
