<?xml version="1.0" encoding="utf-8"?>
<!-- Generator: Adobe Illustrator 19.1.0, SVG Export Plug-In . SVG Version: 6.00 Build 0)  -->
<svg version="1.1" xmlns="http://www.w3.org/2000/svg" xmlns:xlink="http://www.w3.org/1999/xlink" x="0px" y="0px"
	 viewBox="0 0 100 100" style="enable-background:new 0 0 100 100;" xml:space="preserve">
<g id="Layer_1">
	<g>
		<polygon points="77,38 62.1,38 76.7,18.2 76.7,12.9 53.5,12.9 53.5,18.7 68.1,18.7 53.5,38.4 53.5,43.8 77,43.8 		"/>
		<path d="M69.7,55.8h-8.2L49.6,86.6H57l1.9-5.2h13.2l1.9,5.2h7.4L69.7,55.8z M60.8,75.6l4.8-13.3l4.8,13.3H60.8z"/>
		<path d="M33.9,16.3c0-1.7-1.4-3.1-3.1-3.1s-3.1,1.4-3.1,3.1v49.3h-9.3l12.4,21.5l12.4-21.5h-9.3V16.3z"/>
	</g>
</g>
<g id="Layer_2">
</g>
</svg>
