<?xml version="1.0" encoding="utf-8"?>
<!-- Generator: Adobe Illustrator 19.1.0, SVG Export Plug-In . SVG Version: 6.00 Build 0)  -->
<svg version="1.1" xmlns="http://www.w3.org/2000/svg" xmlns:xlink="http://www.w3.org/1999/xlink" x="0px" y="0px"
	 viewBox="0 0 100 100" style="enable-background:new 0 0 100 100;" xml:space="preserve">
<g id="Layer_1">
	<g>
		<path d="M50,11.3c0.2,0,0.3,0,0.5,0c6.3,0.1,12,3.3,15.5,8.7c1.7,2.6,2.8,5.6,3.1,8.6c0.4,3.2-0.1,6.4-1.4,9.5L50,81L32.3,38
			c-1.3-3.1-1.7-6.3-1.4-9.5c0.3-3,1.4-6,3.1-8.6c3.5-5.4,9.1-8.5,15.5-8.7C49.7,11.3,49.8,11.3,50,11.3 M50,5c-0.2,0-0.4,0-0.6,0
			C31.5,5.4,19.7,23.9,26.5,40.4l22.1,53.7c0.3,0.6,0.8,0.9,1.4,0.9c0.6,0,1.1-0.3,1.4-0.9l22.1-53.7c6.8-16.5-5-35-22.9-35.4
			C50.4,5,50.2,5,50,5L50,5z"/>
		<path d="M50,22.6c4.3,0,7.8,3.5,7.8,7.8s-3.5,7.8-7.8,7.8s-7.8-3.5-7.8-7.8S45.7,22.6,50,22.6 M50,16.4c-7.8,0-14.1,6.3-14.1,14.1
			S42.2,44.5,50,44.5c7.8,0,14.1-6.3,14.1-14.1S57.8,16.4,50,16.4L50,16.4z"/>
	</g>
</g>
<g id="Layer_2">
</g>
</svg>
