<?xml version="1.0" encoding="utf-8"?>
<!-- Generator: Adobe Illustrator 19.1.0, SVG Export Plug-In . SVG Version: 6.00 Build 0)  -->
<svg version="1.1" xmlns="http://www.w3.org/2000/svg" xmlns:xlink="http://www.w3.org/1999/xlink" x="0px" y="0px"
	 viewBox="0 0 100 100" style="enable-background:new 0 0 100 100;" xml:space="preserve">
<g id="Layer_1">
</g>
<g id="Layer_2">
	<g>
		<path d="M29.2,23.9H6.9c-1,0-1.9-0.8-1.9-1.9v0c0-1,0.8-1.9,1.9-1.9h22.3c1,0,1.9,0.8,1.9,1.9v0C31.1,23.1,30.2,23.9,29.2,23.9z"
			/>
		<path d="M29.2,40.7H6.9c-1,0-1.9-0.8-1.9-1.9v0c0-1,0.8-1.9,1.9-1.9h22.3c1,0,1.9,0.8,1.9,1.9v0C31.1,39.9,30.2,40.7,29.2,40.7z"
			/>
		<path d="M29.2,57.4H6.9c-1,0-1.9-0.8-1.9-1.9v0c0-1,0.8-1.9,1.9-1.9h22.3c1,0,1.9,0.8,1.9,1.9v0C31.1,56.6,30.2,57.4,29.2,57.4z"
			/>
		<path d="M92.5,26.4H40.4c-1.4,0-2.5-1.1-2.5-2.5v-3.7c0-1.4,1.1-2.5,2.5-2.5h52.1c1.4,0,2.5,1.1,2.5,2.5v3.7
			C95,25.3,93.9,26.4,92.5,26.4z M40.4,19c-0.7,0-1.2,0.6-1.2,1.2v3.7c0,0.7,0.6,1.2,1.2,1.2h52.1c0.7,0,1.2-0.6,1.2-1.2v-3.7
			c0-0.7-0.6-1.2-1.2-1.2H40.4z"/>
		<path d="M92.5,43.2H40.4c-1.4,0-2.5-1.1-2.5-2.5V37c0-1.4,1.1-2.5,2.5-2.5h52.1c1.4,0,2.5,1.1,2.5,2.5v3.7
			C95,42.1,93.9,43.2,92.5,43.2z M40.4,35.7c-0.7,0-1.2,0.6-1.2,1.2v3.7c0,0.7,0.6,1.2,1.2,1.2h52.1c0.7,0,1.2-0.6,1.2-1.2V37
			c0-0.7-0.6-1.2-1.2-1.2H40.4z"/>
		<path d="M92.5,82.3H40.4c-1.4,0-2.5-1.1-2.5-2.5V53.7c0-1.4,1.1-2.5,2.5-2.5h52.1c1.4,0,2.5,1.1,2.5,2.5v26.1
			C95,81.2,93.9,82.3,92.5,82.3z M40.4,52.5c-0.7,0-1.2,0.6-1.2,1.2v26.1c0,0.7,0.6,1.2,1.2,1.2h52.1c0.7,0,1.2-0.6,1.2-1.2V53.7
			c0-0.7-0.6-1.2-1.2-1.2H40.4z"/>
		<polygon points="90.5,38 88.1,40.8 85.6,38 		"/>
	</g>
</g>
</svg>
