<?xml version="1.0" encoding="utf-8"?>
<!-- Generator: Adobe Illustrator 19.1.0, SVG Export Plug-In . SVG Version: 6.00 Build 0)  -->
<svg version="1.1" xmlns="http://www.w3.org/2000/svg" xmlns:xlink="http://www.w3.org/1999/xlink" x="0px" y="0px"
	 viewBox="0 0 100 100" style="enable-background:new 0 0 100 100;" xml:space="preserve">
<g id="Layer_1">
	<path d="M43.8,95c-0.8,0-1.6-0.2-2.3-0.5c-2.2-0.9-3.7-3.1-3.7-5.5V44.6L8.4,15.2c-1.7-1.7-2.2-4.3-1.3-6.5C8.1,6.5,10.3,5,12.7,5
		h74.6c2.4,0,4.6,1.5,5.5,3.7c0.9,2.2,0.4,4.8-1.3,6.5L62.2,44.6v32c0,1.6-0.6,3.1-1.8,4.2L48,93.2C46.9,94.4,45.3,95,43.8,95z
		 M15.6,12.2l27.6,27.6c1.1,1.1,1.8,2.6,1.8,4.2v42.1L55,76.1v-32c0-1.6,0.6-3.1,1.8-4.2l27.6-27.6H15.6z"/>
</g>
<g id="Layer_2">
</g>
</svg>
