<?xml version="1.0" encoding="utf-8"?>
<!-- Generator: Adobe Illustrator 19.1.0, SVG Export Plug-In . SVG Version: 6.00 Build 0)  -->
<svg version="1.1" xmlns="http://www.w3.org/2000/svg" xmlns:xlink="http://www.w3.org/1999/xlink" x="0px" y="0px"
	 viewBox="0 0 100 100" style="enable-background:new 0 0 100 100;" xml:space="preserve">
<g id="Layer_1">
	<g>
		<path d="M30.1,26.3H22c-3.6,0-6.6-3-6.6-6.6v-8.1C15.4,8,18.3,5,22,5h8.1c3.6,0,6.6,3,6.6,6.6v8.1C36.7,23.4,33.8,26.3,30.1,26.3z
			 M22,9.2c-1.3,0-2.4,1.1-2.4,2.4v8.1c0,1.3,1.1,2.4,2.4,2.4h8.1c1.3,0,2.4-1.1,2.4-2.4v-8.1c0-1.3-1.1-2.4-2.4-2.4H22z"/>
		<path d="M54.1,26.3h-8.1c-3.6,0-6.6-3-6.6-6.6v-8.1c0-3.6,3-6.6,6.6-6.6h8.1c3.6,0,6.6,3,6.6,6.6v8.1
			C60.7,23.4,57.7,26.3,54.1,26.3z M45.9,9.2c-1.3,0-2.4,1.1-2.4,2.4v8.1c0,1.3,1.1,2.4,2.4,2.4h8.1c1.3,0,2.4-1.1,2.4-2.4v-8.1
			c0-1.3-1.1-2.4-2.4-2.4H45.9z"/>
		<path d="M78,26.3h-8.1c-3.6,0-6.6-3-6.6-6.6v-8.1c0-3.6,3-6.6,6.6-6.6H78c3.6,0,6.6,3,6.6,6.6v8.1C84.6,23.4,81.7,26.3,78,26.3z
			 M69.9,9.2c-1.3,0-2.4,1.1-2.4,2.4v8.1c0,1.3,1.1,2.4,2.4,2.4H78c1.3,0,2.4-1.1,2.4-2.4v-8.1c0-1.3-1.1-2.4-2.4-2.4H69.9z"/>
		<path d="M30.1,49.4H22c-3.6,0-6.6-3-6.6-6.6v-8.1c0-3.6,3-6.6,6.6-6.6h8.1c3.6,0,6.6,3,6.6,6.6v8.1C36.7,46.5,33.8,49.4,30.1,49.4
			z M22,32.3c-1.3,0-2.4,1.1-2.4,2.4v8.1c0,1.3,1.1,2.4,2.4,2.4h8.1c1.3,0,2.4-1.1,2.4-2.4v-8.1c0-1.3-1.1-2.4-2.4-2.4H22z"/>
		<path d="M54.1,49.4h-8.1c-3.6,0-6.6-3-6.6-6.6v-8.1c0-3.6,3-6.6,6.6-6.6h8.1c3.6,0,6.6,3,6.6,6.6v8.1
			C60.7,46.5,57.7,49.4,54.1,49.4z M45.9,32.3c-1.3,0-2.4,1.1-2.4,2.4v8.1c0,1.3,1.1,2.4,2.4,2.4h8.1c1.3,0,2.4-1.1,2.4-2.4v-8.1
			c0-1.3-1.1-2.4-2.4-2.4H45.9z"/>
		<path d="M78,49.4h-8.1c-3.6,0-6.6-3-6.6-6.6v-8.1c0-3.6,3-6.6,6.6-6.6H78c3.6,0,6.6,3,6.6,6.6v8.1C84.6,46.5,81.7,49.4,78,49.4z
			 M69.9,32.3c-1.3,0-2.4,1.1-2.4,2.4v8.1c0,1.3,1.1,2.4,2.4,2.4H78c1.3,0,2.4-1.1,2.4-2.4v-8.1c0-1.3-1.1-2.4-2.4-2.4H69.9z"/>
		<path d="M30.1,72.5H22c-3.6,0-6.6-3-6.6-6.6v-8.1c0-3.6,3-6.6,6.6-6.6h8.1c3.6,0,6.6,3,6.6,6.6v8.1C36.7,69.6,33.8,72.5,30.1,72.5
			z M22,55.4c-1.3,0-2.4,1.1-2.4,2.4v8.1c0,1.3,1.1,2.4,2.4,2.4h8.1c1.3,0,2.4-1.1,2.4-2.4v-8.1c0-1.3-1.1-2.4-2.4-2.4H22z"/>
		<path d="M54.1,72.5h-8.1c-3.6,0-6.6-3-6.6-6.6v-8.1c0-3.6,3-6.6,6.6-6.6h8.1c3.6,0,6.6,3,6.6,6.6v8.1
			C60.7,69.6,57.7,72.5,54.1,72.5z M45.9,55.4c-1.3,0-2.4,1.1-2.4,2.4v8.1c0,1.3,1.1,2.4,2.4,2.4h8.1c1.3,0,2.4-1.1,2.4-2.4v-8.1
			c0-1.3-1.1-2.4-2.4-2.4H45.9z"/>
		<path d="M78,72.5h-8.1c-3.6,0-6.6-3-6.6-6.6v-8.1c0-3.6,3-6.6,6.6-6.6H78c3.6,0,6.6,3,6.6,6.6v8.1C84.6,69.6,81.7,72.5,78,72.5z
			 M69.9,55.4c-1.3,0-2.4,1.1-2.4,2.4v8.1c0,1.3,1.1,2.4,2.4,2.4H78c1.3,0,2.4-1.1,2.4-2.4v-8.1c0-1.3-1.1-2.4-2.4-2.4H69.9z"/>
	</g>
	<g>
		<path d="M33,94.7l-1.2-3.2h-7.6L23,94.7h-3.3l6.5-16.5h3.6l6.5,16.5H33z M28,81.1l-3,7.9H31L28,81.1z"/>
		<path d="M38.1,94.7V78.2h7.3c3.5,0,5.4,2.3,5.4,5.2c0,2.8-1.9,5.1-5.4,5.1H41v6.2H38.1z M47.8,83.4c0-1.6-1.2-2.6-2.8-2.6h-4V86h4
			C46.6,86,47.8,84.9,47.8,83.4z"/>
		<path d="M53.2,94.7V78.2h7.3c3.5,0,5.4,2.3,5.4,5.2c0,2.8-1.9,5.1-5.4,5.1H56v6.2H53.2z M62.8,83.4c0-1.6-1.2-2.6-2.8-2.6h-4V86h4
			C61.7,86,62.8,84.9,62.8,83.4z"/>
		<path d="M67.1,92.4l1.6-2.2c1.1,1.2,2.9,2.3,5.2,2.3c2.4,0,3.3-1.2,3.3-2.3c0-3.5-9.6-1.3-9.6-7.4c0-2.7,2.4-4.8,6-4.8
			c2.5,0,4.6,0.8,6.2,2.3l-1.6,2.2c-1.3-1.3-3.1-1.9-4.8-1.9c-1.7,0-2.8,0.8-2.8,2.1c0,3.1,9.6,1.2,9.6,7.3c0,2.7-2,5.1-6.4,5.1
			C70.8,95,68.6,93.9,67.1,92.4z"/>
	</g>
</g>
<g id="Layer_2">
</g>
</svg>
