<?xml version="1.0" encoding="utf-8"?>
<!-- Generator: Adobe Illustrator 19.1.0, SVG Export Plug-In . SVG Version: 6.00 Build 0)  -->
<svg version="1.1" xmlns="http://www.w3.org/2000/svg" xmlns:xlink="http://www.w3.org/1999/xlink" x="0px" y="0px"
	 viewBox="0 0 100 100" style="enable-background:new 0 0 100 100;" xml:space="preserve">
<g id="Layer_1">
</g>
<g id="Layer_2">
	<g>
		<polygon points="52.2,21.4 52.2,43.7 58.7,43.7 58.7,12.9 53,12.9 43.3,22.7 47,26.6 		"/>
		<path d="M88.8,48.8c2.3-0.4,4.5-2.1,4.5-4.7c0-3.4-3-5.6-7.8-5.6c-3.6,0-6.2,1.4-7.9,3.3l2.2,2.8c1.5-1.4,3.3-2.1,5.3-2.1
			c2.1,0,3.9,0.8,3.9,2.5c0,1.5-1.6,2.2-3.9,2.2c-0.8,0-2.2,0-2.6,0v4c0.3,0,1.7-0.1,2.6-0.1c2.9,0,4.2,0.7,4.2,2.4
			c0,1.6-1.4,2.6-3.9,2.6c-2,0-4.3-0.9-5.7-2.4l-2.3,3c1.5,1.9,4.4,3.3,8.2,3.3c5,0,8.2-2.5,8.2-6.1C93.7,50.7,90.9,49,88.8,48.8z"
			/>
		<path d="M53.3,55.2c-7,0-11.8,4.6-11.8,10.6c0,6.6,4.9,10,10.5,10c3.4,0,6.5-1.9,7.9-4c0,0.2,0,0.5,0,0.7c0,4.4-2.6,8.7-7.7,8.7
			c-2.7,0-4.5-0.8-6.1-2.4l-2.9,5c2.2,1.9,5.3,3.2,9.1,3.2c9.1,0,14.4-6.6,14.4-15.9C66.6,62.4,62.7,55.2,53.3,55.2z M53.9,70.2
			c-2.9,0-5.7-1.4-5.7-4.6c0-2.1,1.9-4.5,5.5-4.5c4.3,0,6,3.3,6.2,6.2C58.4,69.1,56.2,70.2,53.9,70.2z"/>
		<path d="M21.8,16.3c0-1.7-1.4-3.1-3.1-3.1s-3.1,1.4-3.1,3.1v49.3H6.3L18.7,87l12.4-21.5h-9.3V16.3z"/>
	</g>
</g>
</svg>
