<?xml version="1.0" encoding="utf-8"?>
<!-- Generator: Adobe Illustrator 19.1.0, SVG Export Plug-In . SVG Version: 6.00 Build 0)  -->
<svg version="1.1" xmlns="http://www.w3.org/2000/svg" xmlns:xlink="http://www.w3.org/1999/xlink" x="0px" y="0px"
	 viewBox="0 0 100 100" style="enable-background:new 0 0 100 100;" xml:space="preserve">
<g id="Layer_1">
	<g>
		<path d="M66.6,65.4c2.1,0.8,4.1,1.7,5.8,2.7c6.8,3.8,10.4,8.5,10.4,13.6c0,1.5-0.4,2.9-1.1,4H91c2.2,0,4-1.8,4-4
			c0-5.9-7.7-10.1-12.3-12C77.3,67.4,71.5,66,66.6,65.4L66.6,65.4z"/>
		<path d="M63,19.3c3.1,3.9,4.9,8.8,4.9,14.1c0,5.3-1.8,10.2-4.9,14c7.5-0.5,13.1-6.4,13.1-14C76.1,25.7,70.5,19.8,63,19.3L63,19.3z
			"/>
		<path d="M41.2,54.5c-5.8,0-11.1-2.2-15-6.1c-3.9-3.9-6.1-9.2-6.1-15c0-5.8,2.2-11.1,6.1-15c3.9-3.9,9.2-6.1,15-6.1
			c5.8,0,11.1,2.2,15,6.1s6.1,9.3,6.1,15c0,5.8-2.2,11.1-6.1,15C52.3,52.3,47,54.5,41.2,54.5z M41.2,18.3c-8.6,0-15.1,6.5-15.1,15.1
			c0,8.6,6.5,15.1,15.1,15.1c8.6,0,15.1-6.5,15.1-15.1C56.3,24.8,49.8,18.3,41.2,18.3z"/>
		<path d="M41.2,69c4.8,0,13.2,1.4,20.3,4.4c6.1,2.6,9.9,5.8,9.9,8.3c0,0,0,0,0,0c0,0,0,0,0,0c0,0,0,0,0,0H11c0,0,0,0,0,0l0,0
			c0,0,0,0,0,0c0,0,0,0,0,0c0-1.1,0.7-2.3,2.1-3.6c1.8-1.7,4.5-3.3,7.8-4.7C28,70.3,36.4,69,41.2,69 M41.2,63C29.2,63,5,69.6,5,81.7
			c0,3.3,2.7,6,6,6h60.3c3.3,0,6-2.7,6-6C77.4,69.6,53.3,63,41.2,63L41.2,63z"/>
	</g>
</g>
<g id="Layer_2">
</g>
</svg>
