<?xml version="1.0" encoding="utf-8"?>
<!-- Generator: Adobe Illustrator 19.1.0, SVG Export Plug-In . SVG Version: 6.00 Build 0)  -->
<svg version="1.1" xmlns="http://www.w3.org/2000/svg" xmlns:xlink="http://www.w3.org/1999/xlink" x="0px" y="0px"
	 viewBox="0 0 100 100" style="enable-background:new 0 0 100 100;" xml:space="preserve">
<g id="Layer_1">
	<path d="M22.2,95.2c-0.5,0-1.2-0.1-1.6-0.4c-0.9-0.6-1.6-1.6-1.6-2.7V79h-3.7C10,79,6,75,6,69.8V14.7C6,9.4,10,5,15.3,5h69.5
		C90,5,94,9.4,94,14.7v55.1c0,5.2-4,9.2-9.3,9.2H51.9L23.7,94.8C23.3,95,22.8,95.2,22.2,95.2z M15.3,11c-1.8,0-3.3,1.8-3.3,3.7v55.1
		c0,1.8,1.4,3.2,3.3,3.2h7c1.7,0,2.8,1.4,2.8,3.1v10.8l24.5-13.5c0.5-0.3,1.1-0.4,1.7-0.4h33.6c1.8,0,3.3-1.4,3.3-3.2V14.7
		c0-1.8-1.4-3.7-3.3-3.7H15.3z"/>
</g>
<g id="Layer_2">
</g>
</svg>
