<?xml version="1.0" encoding="utf-8"?>
<!-- Generator: Adobe Illustrator 19.1.0, SVG Export Plug-In . SVG Version: 6.00 Build 0)  -->
<svg version="1.1" xmlns="http://www.w3.org/2000/svg" xmlns:xlink="http://www.w3.org/1999/xlink" x="0px" y="0px"
	 viewBox="0 0 100 100" style="enable-background:new 0 0 100 100;" xml:space="preserve">
<g id="Layer_1">
	<g>
		<path d="M46.6,68.4c2.2,0,4.4,0.1,6.6,0c0.7,0,1.4-0.4,1.7-1.1c0.2-0.5,0.2-1.2,0.2-1.7c0.1-0.6,0.1-1.3,0.2-1.9
			c0.3-2,0.9-4,1.8-5.9c0.8-1.7,2-3.3,3.2-4.7c1-1.1,2.2-2.1,3.2-3.1c1.5-1.5,3-3,4.5-4.5c0.8-0.8,2.1-2.3,2.7-3.2
			c1.5-2.2,2.7-4.7,3.4-7.3c1.2-4.4,0.7-9.3-0.9-13.5c-2.9-7.8-9.7-13.8-17.8-15.7c-8.4-2-17.5,0.7-23.5,6.8c-3,3-5.2,6.8-6.3,10.9
			c-0.3,1-0.7,2.2-0.6,3.3c0,1,0.9,1.7,1.8,1.7c1.2,0,2.3,0,3.5,0c1,0,2,0,3.1,0c0.5,0,1-0.2,1.3-0.5c0.4-0.4,0.5-0.9,0.6-1.5
			c0.3-1.1,0.7-2.1,1.1-3.1c1.9-3.8,5.5-6.7,9.6-7.8c4.1-1.1,8.6-0.3,12.2,2.2c3.4,2.4,5.8,6.1,6.4,10.2c0.6,4.2-0.4,9-3.6,12
			c-0.6,0.5-1.5,1.4-2,2l-4.4,4.8c-1.2,1.3-2.4,2.5-3.6,3.7c-3.2,3.3-5.2,7.7-5.9,12.3c-0.2,1.2-0.3,2.4-0.3,3.6
			C44.8,67.3,45.4,68.4,46.6,68.4z"/>
		<path d="M46.6,95c-1,0-1.7-0.8-1.7-1.7v-6.6c0-1,0.8-1.7,1.7-1.7h6.6c1,0,1.7,0.8,1.7,1.7v6.6c0,1-0.8,1.7-1.7,1.7H46.6z"/>
	</g>
</g>
<g id="Layer_2">
</g>
</svg>
