<?xml version="1.0" encoding="utf-8"?>
<!-- Generator: Adobe Illustrator 19.1.0, SVG Export Plug-In . SVG Version: 6.00 Build 0)  -->
<svg version="1.1" xmlns="http://www.w3.org/2000/svg" xmlns:xlink="http://www.w3.org/1999/xlink" x="0px" y="0px"
	 viewBox="0 0 100 100" style="enable-background:new 0 0 100 100;" xml:space="preserve">
<g id="Layer_1">
	<g>
		<path d="M82.8,5H17.2c-4.8,0-8.7,4.1-8.7,9.2v71.5c0,5.1,3.9,9.2,8.7,9.2h51.3c3.8,0,7.4-1.6,10-4.5l9-9.9c2.6-2.8,4-6.5,4-10.5
			V14.2C91.5,9.1,87.6,5,82.8,5z M15.4,85.8V14.2c0-1.3,0.8-2.3,1.8-2.3h65.6c1,0,1.8,1.1,1.8,2.3v55.9c0,0.4,0,0.9-0.1,1.3H70.8
			c-1.9,0-3.5,1.5-3.5,3.5v13.2H17.2C16.2,88.1,15.4,87,15.4,85.8z M74.2,84.9v-6.5h6L74.2,84.9z"/>
		<path d="M25.1,28.5h49.8c1.9,0,3.5-1.5,3.5-3.5s-1.5-3.5-3.5-3.5H25.1c-1.9,0-3.5,1.5-3.5,3.5S23.2,28.5,25.1,28.5z"/>
		<path d="M25.1,45.2h49.8c1.9,0,3.5-1.5,3.5-3.5c0-1.9-1.5-3.5-3.5-3.5H25.1c-1.9,0-3.5,1.5-3.5,3.5C21.6,43.6,23.2,45.2,25.1,45.2
			z"/>
		<path d="M74.9,61.8c1.9,0,3.5-1.5,3.5-3.5c0-1.9-1.5-3.5-3.5-3.5H25.1c-1.9,0-3.5,1.5-3.5,3.5c0,1.9,1.5,3.5,3.5,3.5H74.9z"/>
	</g>
</g>
<g id="Layer_2">
</g>
</svg>
