<?xml version="1.0" encoding="utf-8"?>
<!-- Generator: Adobe Illustrator 19.1.0, SVG Export Plug-In . SVG Version: 6.00 Build 0)  -->
<svg version="1.1" xmlns="http://www.w3.org/2000/svg" xmlns:xlink="http://www.w3.org/1999/xlink" x="0px" y="0px"
	 viewBox="0 0 100 100" style="enable-background:new 0 0 100 100;" xml:space="preserve">
<g id="Layer_1">
</g>
<g id="Layer_2">
	<g>
		<path d="M78.4,78.2H8c-1.7,0-3-1.3-3-3v-62c0-1.7,1.3-3,3-3h70.4c1.7,0,3,1.3,3,3v62C81.4,76.8,80,78.2,78.4,78.2z M8,11.5
			c-0.9,0-1.6,0.7-1.6,1.6v62c0,0.9,0.7,1.6,1.6,1.6h70.4c0.9,0,1.6-0.7,1.6-1.6v-62c0-0.9-0.7-1.6-1.6-1.6H8z"/>
		<path d="M87.3,89.9c-0.1,0-0.2,0-0.2,0l-70.2-5.3c-0.8-0.1-1.5-0.4-2.1-1c-0.5-0.6-0.8-1.4-0.7-2.2c0-0.4,0.4-0.7,0.7-0.6
			c0.4,0,0.7,0.4,0.6,0.7c0,0.4,0.1,0.8,0.4,1.2c0.3,0.3,0.7,0.5,1.1,0.6l70.2,5.3c0.9,0.1,1.7-0.6,1.7-1.5l4.7-61.9
			c0.1-0.9-0.6-1.7-1.5-1.7l-6.4-0.5c-0.4,0-0.7-0.4-0.6-0.7c0-0.4,0.4-0.7,0.7-0.6l6.4,0.5c1.7,0.1,2.9,1.6,2.8,3.2l-4.7,61.9
			C90.2,88.7,88.9,89.9,87.3,89.9z"/>
	</g>
</g>
</svg>
