<?xml version="1.0" encoding="utf-8"?>
<!-- Generator: Adobe Illustrator 19.1.0, SVG Export Plug-In . SVG Version: 6.00 Build 0)  -->
<svg version="1.1" xmlns="http://www.w3.org/2000/svg" xmlns:xlink="http://www.w3.org/1999/xlink" x="0px" y="0px"
	 viewBox="0 0 100 100" style="enable-background:new 0 0 100 100;" xml:space="preserve">
<g id="Layer_1">
	<g>
		<path d="M50,11.2c10.4,0,20.1,4,27.4,11.3s11.3,17,11.3,27.4s-4,20.1-11.3,27.4S60.4,88.8,50,88.8s-20.1-4-27.4-11.3
			S11.2,60.4,11.2,50s4-20.1,11.3-27.4S39.6,11.2,50,11.2 M50,5C25.1,5,5,25.1,5,50s20.1,45,45,45s45-20.1,45-45S74.9,5,50,5L50,5z"
			/>
		<g>
			<path d="M36.2,61.9l3.3-4c2.2,2.6,5.9,4.2,9.6,4.2c4.6,0,7.2-2.1,7.2-5.3c0-3.4-2.7-4.9-7.7-4.9c-1.5,0-3.4,0.1-4,0.1v-5.5
				c0.6,0.1,2.6,0.1,4,0.1c4.1,0,7.2-1.4,7.2-4.6c0-3.2-3.2-4.8-7-4.8c-3.6,0-6.5,1.3-9,3.9l-3.1-3.8c2.7-3.2,6.9-5.5,12.7-5.5
				c7.5,0,12.5,3.5,12.5,9.3c0,4.7-4,7.4-7.5,8c3.3,0.4,8.1,3.1,8.1,8.4c0,5.9-5.1,10.2-13.1,10.2C43.2,67.5,38.6,65,36.2,61.9z"/>
		</g>
	</g>
</g>
<g id="Layer_2">
</g>
</svg>
