<?xml version="1.0" encoding="utf-8"?>
<!-- Generator: Adobe Illustrator 19.1.0, SVG Export Plug-In . SVG Version: 6.00 Build 0)  -->
<svg version="1.1" xmlns="http://www.w3.org/2000/svg" xmlns:xlink="http://www.w3.org/1999/xlink" x="0px" y="0px"
	 viewBox="0 0 100 100" style="enable-background:new 0 0 100 100;" xml:space="preserve">
<g id="Layer_1">
	<path d="M50,95c-12.3,0-23.7-4.6-32-12.9C9.6,73.7,5,62.3,5,50C5,37.7,9.6,26.3,17.9,18C26.3,9.6,37.7,5,50,5
		C62.3,5,73.7,9.6,82,18c8.4,8.4,13,19.8,13,32.1c0,12.3-4.6,23.7-13,32C73.7,90.4,62.3,95,50,95L50,95L50,95z M51.8,90l0.7-0.2
		c4-1.1,7.6-4.7,10.5-10.5c0.7-1.3,1.3-2.7,1.8-4.2l0.3-0.7H51.8V90z M35.2,75c0.6,1.5,1.2,2.9,1.8,4.2c2.6,5.2,5.8,8.6,9.2,10.1
		l0.7,0.3V74.3H34.9L35.2,75z M18.3,75.1c1,1.2,2,2.4,3.1,3.5c3.9,3.9,8.6,6.9,13.9,8.9l1.6,0.6l-1-1.4c-1.2-1.6-2.2-3.3-3.2-5.3
		c-1-2.1-2-4.3-2.8-6.8l-0.1-0.4H17.7L18.3,75.1z M70.1,74.7c-0.8,2.4-1.7,4.7-2.8,6.8c-1,1.9-2,3.7-3.2,5.3l-1,1.4l1.6-0.6
		c5.3-2,9.9-5,13.8-8.9c1.1-1.1,2.1-2.2,3.1-3.5l0.7-0.8H70.2L70.1,74.7z M85.4,69.4l0.1-0.3c2.5-4.8,4-10,4.4-15.6l0-0.6H73.7
		l0,0.5c-0.2,5.4-0.8,10.5-1.9,15.3l-0.1,0.6H85.4z M66.6,69.4l0.1-0.4c1.2-4.8,1.9-10,2.1-15.5l0-0.5H51.8v16.4H66.6z M47,69.4V53
		H31.2l0,0.5c0.2,5.5,0.9,10.7,2.1,15.5l0.1,0.4H47z M28.4,69.4l-0.1-0.6c-1.1-4.8-1.7-9.9-1.9-15.3l0-0.5H10l0,0.6
		c0.5,5.6,1.9,10.8,4.4,15.6l0.1,0.3H28.4z M90.1,48.2l0-0.5c-0.3-5.5-1.6-10.8-4-15.6L86,31.7H71.8l0.1,0.6c1,4.8,1.6,9.9,1.7,15.3
		l0,0.5H90.1z M68.8,48.2l0-0.5c-0.1-5.5-0.8-10.7-1.9-15.5l-0.1-0.4h-15v16.4H68.8z M47,48.2V31.7H33.2l-0.1,0.4
		c-1.1,4.8-1.7,10-1.9,15.5l0,0.5H47z M26.3,48.2l0-0.5c0.1-5.3,0.7-10.5,1.7-15.3l0.1-0.6H14L13.9,32c-2.3,4.8-3.6,10-3.9,15.6
		l0,0.5H26.3z M83.1,26.9l-0.6-0.8c-1.2-1.6-2.5-3.2-3.9-4.6c-3.9-3.9-8.6-6.9-13.9-8.9l-1.6-0.6l1,1.4c1.2,1.6,2.2,3.4,3.2,5.3
		c1.2,2.4,2.2,5,3.1,7.9l0.1,0.4H83.1z M65.5,26.9l-0.2-0.7c-0.7-1.9-1.4-3.7-2.3-5.4c-2.9-5.8-6.5-9.4-10.5-10.6L51.8,10v16.8H65.5
		z M47,26.9V10.4l-0.7,0.3c-3.5,1.5-6.7,5-9.2,10.1c-0.8,1.7-1.6,3.5-2.2,5.4l-0.2,0.7H47z M29.4,26.9l0.1-0.4
		c0.9-2.9,1.9-5.5,3.1-7.9c1-2,2.1-3.7,3.2-5.3l1-1.4l-1.6,0.6c-5.3,2-9.9,5-13.9,8.9c-1.4,1.4-2.7,3-3.9,4.6l-0.6,0.8H29.4z"/>
</g>
<g id="Layer_2">
</g>
</svg>
