<?xml version="1.0" encoding="utf-8"?>
<!-- Generator: Adobe Illustrator 19.1.0, SVG Export Plug-In . SVG Version: 6.00 Build 0)  -->
<svg version="1.1" xmlns="http://www.w3.org/2000/svg" xmlns:xlink="http://www.w3.org/1999/xlink" x="0px" y="0px"
	 viewBox="0 0 100 100" style="enable-background:new 0 0 100 100;" xml:space="preserve">
<g id="Layer_1">
	<g>
		<path d="M86.3,42.8c-1.9,0-3.4,1.5-3.4,3.4v41.2c0,0.4-0.3,0.7-0.7,0.7H12.6c-0.4,0-0.7-0.3-0.7-0.7V17.8c0-0.4,0.3-0.7,0.7-0.7
			h41.2c1.9,0,3.4-1.5,3.4-3.4s-1.5-3.4-3.4-3.4H12.6c-4.2,0-7.6,3.4-7.6,7.6v69.6c0,4.2,3.4,7.6,7.6,7.6h69.6
			c4.2,0,7.6-3.4,7.6-7.6V46.2C89.7,44.3,88.2,42.8,86.3,42.8z"/>
		<path d="M34.9,60.3c-1.3,1.3-1.3,3.5,0,4.9c0.7,0.7,1.5,1,2.4,1c0.9,0,1.8-0.3,2.4-1l40.9-40.9l7.3,7.3L95,5l-26.5,7.1l7.3,7.3
			L34.9,60.3z"/>
	</g>
</g>
<g id="Layer_2">
</g>
</svg>
