<?xml version="1.0" encoding="utf-8"?>
<!-- Generator: Adobe Illustrator 19.1.0, SVG Export Plug-In . SVG Version: 6.00 Build 0)  -->
<svg version="1.1" xmlns="http://www.w3.org/2000/svg" xmlns:xlink="http://www.w3.org/1999/xlink" x="0px" y="0px"
	 viewBox="0 0 100 100" style="enable-background:new 0 0 100 100;" xml:space="preserve">
<g id="Layer_1">
</g>
<g id="Layer_2">
	<g>
		<path d="M55,12.9c-7,0-11.7,4.5-11.7,10.5c0,6.5,4.9,10,10.4,10c3.4,0,6.4-1.9,7.9-3.9c0,0.2,0,0.5,0,0.7c0,4.4-2.6,8.6-7.7,8.6
			c-2.7,0-4.5-0.8-6.1-2.4l-2.9,5c2.2,1.9,5.3,3.2,9,3.2c9,0,14.3-6.6,14.3-15.8C68.3,20.1,64.4,12.9,55,12.9z M55.6,27.8
			c-2.8,0-5.6-1.4-5.6-4.6c0-2.1,1.9-4.5,5.5-4.5c4.3,0,5.9,3.3,6.2,6.2C60.1,26.7,57.9,27.8,55.6,27.8z"/>
		<polygon points="85.8,39.1 79.4,45.6 81.9,48.3 85.3,44.8 85.3,59.7 89.7,59.7 89.7,39.1 		"/>
		<polygon points="45.1,65.7 48.8,69.6 53.9,64.4 53.9,86.6 60.4,86.6 60.4,56 54.7,56 		"/>
		<path d="M23.7,16.7c0-1.7-1.4-3.1-3.1-3.1c-1.7,0-3.1,1.4-3.1,3.1v49H8.3l12.3,21.3L33,65.7h-9.2V16.7z"/>
	</g>
</g>
</svg>
