<?xml version="1.0" encoding="utf-8"?>
<!-- Generator: Adobe Illustrator 19.1.0, SVG Export Plug-In . SVG Version: 6.00 Build 0)  -->
<svg version="1.1" xmlns="http://www.w3.org/2000/svg" xmlns:xlink="http://www.w3.org/1999/xlink" x="0px" y="0px"
	 viewBox="0 0 100 100" style="enable-background:new 0 0 100 100;" xml:space="preserve">
<g id="Layer_1">
	<g>
		<path d="M78.1,95H13.9c-3.8,0-7-3.1-7-7V23.8c0-3.8,3.1-7,7-7h45.6c1.8,0,3.2,1.4,3.2,3.2s-1.4,3.2-3.2,3.2H13.9
			c-0.3,0-0.6,0.3-0.6,0.6V88c0,0.3,0.3,0.6,0.6,0.6h64.2c0.3,0,0.6-0.3,0.6-0.6V50c0-1.8,1.4-3.2,3.2-3.2c1.8,0,3.2,1.4,3.2,3.2v38
			C85.1,91.9,81.9,95,78.1,95z"/>
		<path d="M48.9,79.8c-0.8,0-1.6-0.3-2.2-0.9L23.4,55.7c-1.2-1.2-1.2-3.2,0-4.5c1.2-1.2,3.2-1.2,4.5,0l20.3,20.3l39-65
			c0.9-1.5,2.8-2,4.3-1.1c1.5,0.9,2,2.8,1.1,4.3L51.6,78.3c-0.5,0.8-1.4,1.4-2.3,1.5C49.1,79.8,49,79.8,48.9,79.8z"/>
	</g>
</g>
<g id="Layer_2">
</g>
</svg>
