<?xml version="1.0" encoding="utf-8"?>
<!-- Generator: Adobe Illustrator 19.1.0, SVG Export Plug-In . SVG Version: 6.00 Build 0)  -->
<svg version="1.1" xmlns="http://www.w3.org/2000/svg" xmlns:xlink="http://www.w3.org/1999/xlink" x="0px" y="0px"
	 viewBox="0 0 100 100" style="enable-background:new 0 0 100 100;" xml:space="preserve">
<g id="Layer_1">
	<path d="M50,5C25.1,5,5,25.1,5,50s20.1,45,45,45s45-20.1,45-45S74.9,5,50,5z M22.6,22.6c7.3-7.3,17-11.3,27.4-11.3
		c9.3,0,18.1,3.3,25.1,9.2L20.5,75.1c-6-7-9.2-15.8-9.2-25.1C11.2,39.6,15.3,29.9,22.6,22.6z M77.4,77.4c-7.3,7.3-17,11.3-27.4,11.3
		c-9.3,0-18.1-3.3-25.1-9.2l54.6-54.6c6,7,9.2,15.8,9.2,25.1C88.8,60.4,84.7,70.1,77.4,77.4z"/>
</g>
<g id="Layer_2">
</g>
</svg>
