<?xml version="1.0" encoding="utf-8"?>
<!-- Generator: Adobe Illustrator 19.1.0, SVG Export Plug-In . SVG Version: 6.00 Build 0)  -->
<svg version="1.1" xmlns="http://www.w3.org/2000/svg" xmlns:xlink="http://www.w3.org/1999/xlink" x="0px" y="0px"
	 viewBox="0 0 100 100" style="enable-background:new 0 0 100 100;" xml:space="preserve">
<g id="Layer_1">
	<g>
		<path d="M86.2,90.1H13.8c-3.2,0-6-1.6-7.6-4.4c-1.6-2.7-1.6-6,0-8.7l36.2-62.8c1.6-2.7,4.4-4.4,7.6-4.4l0,0c3.2,0,6,1.6,7.6,4.4
			L93.8,77c1.6,2.7,1.6,6,0,8.7C92.2,88.5,89.4,90.1,86.2,90.1z M11.9,80.3c-0.6,1-0.2,1.9,0,2.2c0.2,0.3,0.8,1.1,1.9,1.1h72.5
			c1.1,0,1.7-0.8,1.9-1.1c0.2-0.3,0.6-1.2,0-2.2L51.9,17.5c-0.6-1-1.5-1.1-1.9-1.1c-0.4,0-1.3,0.1-1.9,1.1L11.9,80.3z"/>
		<path d="M50,66.3c-1.8,0-3-1.5-3-3.3V35.5c0-1.8,1.2-3.3,3-3.3s3,1.5,3,3.3V63C53,64.8,51.8,66.3,50,66.3z"/>
		<circle cx="50" cy="74.8" r="3.9"/>
	</g>
</g>
<g id="Layer_2">
</g>
</svg>
