<?xml version="1.0" encoding="utf-8"?>
<!-- Generator: Adobe Illustrator 19.1.0, SVG Export Plug-In . SVG Version: 6.00 Build 0)  -->
<svg version="1.1" xmlns="http://www.w3.org/2000/svg" xmlns:xlink="http://www.w3.org/1999/xlink" x="0px" y="0px"
	 viewBox="0 0 100 100" style="enable-background:new 0 0 100 100;" xml:space="preserve">
<g id="Layer_1">
</g>
<g id="Layer_2">
	<g>
		<path d="M94.4,93.8H7.7c-0.8,0-1.4-0.6-1.4-1.4V5.6C6.2,5.3,6,5,5.6,5C5.3,5,5,5.3,5,5.6v86.7C5,93.8,6.2,95,7.7,95h86.7
			c0.3,0,0.6-0.3,0.6-0.6C95,94,94.7,93.8,94.4,93.8z"/>
		<path d="M19.1,86.6h10.6c1.1,0,2-0.9,2-2V15c0-1.1-0.9-2-2-2H19.1c-1.1,0-2,0.9-2,2v69.5C17.1,85.7,18,86.6,19.1,86.6z"/>
		<path d="M44.9,87.2h10.6c1.5,0,2.7-1.2,2.7-2.7V37.1c0-1.5-1.2-2.7-2.7-2.7H44.9c-1.5,0-2.7,1.2-2.7,2.7v47.5
			C42.2,86,43.4,87.2,44.9,87.2z M43.5,37.1c0-0.8,0.6-1.4,1.4-1.4h10.6c0.8,0,1.4,0.6,1.4,1.4v47.5c0,0.8-0.6,1.4-1.4,1.4H44.9
			c-0.8,0-1.4-0.6-1.4-1.4V37.1z"/>
		<path d="M70.7,87.2h10.6c1.5,0,2.7-1.2,2.7-2.7V59.2c0-1.5-1.2-2.7-2.7-2.7H70.7c-1.5,0-2.7,1.2-2.7,2.7v25.4
			C68,86,69.2,87.2,70.7,87.2z M69.2,59.2c0-0.8,0.6-1.4,1.4-1.4h10.6c0.8,0,1.4,0.6,1.4,1.4v25.4c0,0.8-0.6,1.4-1.4,1.4H70.7
			c-0.8,0-1.4-0.6-1.4-1.4V59.2z"/>
	</g>
</g>
</svg>
