<?xml version="1.0" encoding="utf-8"?>
<!-- Generator: Adobe Illustrator 19.1.0, SVG Export Plug-In . SVG Version: 6.00 Build 0)  -->
<svg version="1.1" xmlns="http://www.w3.org/2000/svg" xmlns:xlink="http://www.w3.org/1999/xlink" x="0px" y="0px"
	 viewBox="0 0 100 100" style="enable-background:new 0 0 100 100;" xml:space="preserve">
<g id="Layer_1">
</g>
<g id="Layer_2">
	<g>
		<polygon points="53.9,21.4 53.9,43.7 60.5,43.7 60.5,12.9 54.7,12.9 45,22.7 48.8,26.6 		"/>
		<polygon points="86.1,38.8 79.5,45.3 82.1,48 85.5,44.5 85.5,59.5 89.9,59.5 89.9,38.8 		"/>
		<path d="M55.1,55.2c-7,0-11.8,4.6-11.8,10.6c0,6.6,4.9,10,10.5,10c3.4,0,6.5-1.9,7.9-4c0,0.2,0,0.5,0,0.7c0,4.4-2.6,8.7-7.7,8.7
			c-2.7,0-4.5-0.8-6.1-2.4l-2.9,5c2.2,1.9,5.3,3.2,9.1,3.2c9.1,0,14.4-6.6,14.4-15.9C68.4,62.4,64.4,55.2,55.1,55.2z M55.6,70.2
			c-2.9,0-5.7-1.4-5.7-4.6c0-2.1,1.9-4.5,5.5-4.5c4.3,0,6,3.3,6.2,6.2C60.2,69.1,58,70.2,55.6,70.2z"/>
		<path d="M23.6,16.3c0-1.7-1.4-3.1-3.1-3.1c-1.7,0-3.1,1.4-3.1,3.1v49.3H8.1L20.5,87l12.4-21.5h-9.3V16.3z"/>
	</g>
</g>
</svg>
