<?xml version="1.0" encoding="utf-8"?>
<!-- Generator: Adobe Illustrator 19.1.0, SVG Export Plug-In . SVG Version: 6.00 Build 0)  -->
<svg version="1.1" xmlns="http://www.w3.org/2000/svg" xmlns:xlink="http://www.w3.org/1999/xlink" x="0px" y="0px"
	 viewBox="0 0 100 100" style="enable-background:new 0 0 100 100;" xml:space="preserve">
<g id="Layer_1">
	<path d="M83.8,69c-3.7,0-6.9,1.7-9,4.4l0,0L27.1,52.8c0.3-1,0.4-2,0.4-3.1c0-0.8-0.1-1.6-0.2-2.3l47.5-20.6
		c2.1,2.5,5.2,4.1,8.7,4.1c6.2,0,11.2-5,11.2-11.2c0-6.2-5-11.2-11.2-11.2c-6.2,0-11.2,5-11.2,11.2c0,0.8,0.1,1.5,0.2,2.2L24.9,42.5
		c-2.1-2.5-5.2-4-8.6-4C10,38.5,5,43.5,5,49.7C5,55.9,10,61,16.2,61c3.2,0,6-1.3,8.1-3.4l48.3,20.9c-0.1,0.6-0.1,1.2-0.1,1.8
		c0,6.2,5,11.2,11.2,11.2c6.2,0,11.2-5,11.2-11.2C95,74.1,90,69,83.8,69z M83.5,14c3.1,0,5.7,2.6,5.7,5.7s-2.6,5.7-5.7,5.7
		s-5.7-2.6-5.7-5.7S80.3,14,83.5,14z M16.2,55.4c-3.1,0-5.7-2.6-5.7-5.7c0-3.1,2.6-5.7,5.7-5.7s5.7,2.6,5.7,5.7
		C21.9,52.9,19.4,55.4,16.2,55.4z M83.8,86c-3.1,0-5.7-2.6-5.7-5.7s2.6-5.7,5.7-5.7s5.7,2.6,5.7,5.7S86.9,86,83.8,86z"/>
</g>
<g id="Layer_2">
</g>
</svg>
