<?xml version="1.0" encoding="utf-8"?>
<!-- Generator: Adobe Illustrator 19.1.0, SVG Export Plug-In . SVG Version: 6.00 Build 0)  -->
<svg version="1.1" xmlns="http://www.w3.org/2000/svg" xmlns:xlink="http://www.w3.org/1999/xlink" x="0px" y="0px"
	 viewBox="0 0 100 100" style="enable-background:new 0 0 100 100;" xml:space="preserve">
<g id="Layer_1">
	<path d="M13.1,77.9c-4.5,0-8.1-3.6-8.1-8.1V30.2c0-4.5,3.6-8.1,8.1-8.1h73.8c4.5,0,8.1,3.6,8.1,8.1v39.6c0,4.5-3.6,8.1-8.1,8.1
		H13.1z M79.7,71.8L59.3,54l-4.9,4.2c-1.2,1.1-2.8,1.7-4.4,1.7s-3.2-0.6-4.4-1.7L40.7,54L20.3,71.8H79.7z M11.6,28.8
		c-0.3,0.4-0.5,0.9-0.5,1.4v39.6c0,0.5,0.2,1,0.5,1.4L36.1,50L11.6,28.8z M88.4,71.2c0.3-0.4,0.5-0.9,0.5-1.4V30.2
		c0-0.5-0.2-1-0.5-1.4L63.9,50L88.4,71.2z M49.5,53.6c0.2,0.1,0.3,0.2,0.5,0.2s0.4-0.1,0.5-0.2l29.2-25.4H20.3L49.5,53.6z"/>
</g>
<g id="Layer_2">
</g>
</svg>
