<?xml version="1.0" encoding="utf-8"?>
<!-- Generator: Adobe Illustrator 19.1.0, SVG Export Plug-In . SVG Version: 6.00 Build 0)  -->
<svg version="1.1" xmlns="http://www.w3.org/2000/svg" xmlns:xlink="http://www.w3.org/1999/xlink" x="0px" y="0px"
	 viewBox="0 0 100 100" style="enable-background:new 0 0 100 100;" xml:space="preserve">
<g id="Layer_1">
	<g>
		<path d="M90.7,20.5L68.5,7.2c-2.8-1.7-6.2-1.7-9,0l-22,13.2c-0.9,0.6-2.1,0.6-3,0l-16.2-9.7c-2.7-1.6-6-1.7-8.8-0.1
			C6.7,12.2,5,15,5,18.2v53.7c0,3.1,1.6,5.9,4.3,7.5l22.2,13.3c1.4,0.8,3,1.3,4.5,1.3c1.6,0,3.1-0.4,4.5-1.3l22-13.2
			c0.9-0.6,2.1-0.6,3,0l16.2,9.7c2.7,1.6,6,1.7,8.8,0.1c2.8-1.6,4.4-4.4,4.4-7.6V28.1C95,25,93.4,22.1,90.7,20.5z M12.3,74.4
			L12.3,74.4c-0.9-0.5-1.4-1.5-1.4-2.5v-8.3c0.3-0.2,0.6-0.4,0.8-0.6c0.7-0.7,1-1.6,1-2.5c0-0.9-0.4-1.8-1-2.5
			c-0.2-0.2-0.5-0.5-0.8-0.6v-3.1c0.3,0.5,0.7,0.9,1.2,1.2c0.5,0.3,1.1,0.5,1.7,0.5c1.2,0,2.4-0.6,3.1-1.8c1-1.7,0.4-3.8-1.3-4.8
			c-1.6-0.9-3.7-0.4-4.7,1.2V18.2c0-1.5,1-2.3,1.5-2.5c0.3-0.2,0.8-0.4,1.5-0.4c0.4,0,1,0.1,1.5,0.4l16.2,9.7
			c0.7,0.4,1.4,0.7,2.2,0.9v13.7c-0.8,0.2-1.5,0.7-2,1.4c-1.1,1.6-0.8,3.8,0.8,4.9c0.4,0.3,0.7,0.4,1.2,0.5v40.4L12.3,74.4z
			 M38.3,87.3V26.4c0.8-0.2,1.5-0.5,2.2-0.9l21.2-12.7v22.8c-0.6,0-1.2,0.2-1.8,0.5c-1.6,1-2.1,3.2-1.1,4.8c0.6,1,1.7,1.6,2.8,1.6
			v31.1c-0.8,0.2-1.5,0.5-2.2,0.9L38.3,87.3z M87.7,84.3c-0.4,0.3-1.6,0.8-2.9,0l-16.2-9.7c-0.7-0.4-1.4-0.7-2.2-0.9V44
			c0.7,0.9,1.7,1.4,2.8,1.4c0.4,0,0.8-0.1,1.2-0.2c1.8-0.7,2.8-2.7,2.1-4.5c-0.7-1.8-2.7-2.8-4.5-2.1c-0.7,0.2-1.2,0.7-1.6,1.2v-27
			l21.4,12.8c0.9,0.5,1.4,1.5,1.4,2.5v3.8c-0.6,0.2-1.2,0.5-1.7,0.9c-0.7,0.7-1,1.6-1,2.5c0,0.9,0.4,1.8,1,2.5
			c0.5,0.5,1,0.8,1.7,0.9v3.2c-0.4-0.6-0.9-1-1.5-1.3c-1.8-0.8-3.8,0-4.6,1.8c-0.8,1.8,0,3.8,1.8,4.6c0.5,0.2,0.9,0.3,1.4,0.3
			c1.2,0,2.3-0.6,2.9-1.6v36.1C89.2,83.3,88.1,84,87.7,84.3z"/>
		<path d="M20.9,41.8c-1.5-1.2-3.7-0.9-4.9,0.7c-1.2,1.5-0.9,3.7,0.7,4.9c0.6,0.5,1.4,0.7,2.1,0.7c1.1,0,2.1-0.5,2.8-1.4
			C22.8,45.1,22.5,42.9,20.9,41.8z"/>
		<path d="M25.3,37c-1.8,0.7-2.7,2.7-2,4.5c0.5,1.4,1.9,2.2,3.3,2.2c0.4,0,0.9-0.1,1.3-0.2c1.8-0.7,2.7-2.7,2-4.5
			C29.2,37.2,27.1,36.3,25.3,37z"/>
		<path d="M39.9,46.1c-1.5,1.2-1.7,3.5-0.4,4.9c0.7,0.8,1.7,1.3,2.7,1.3c0.8,0,1.6-0.3,2.2-0.8c1.5-1.2,1.7-3.5,0.5-4.9
			C43.6,45,41.4,44.8,39.9,46.1z"/>
		<path d="M78.2,55.6c-1.7-0.9-3.8-0.2-4.7,1.5c-0.9,1.7-0.2,3.8,1.5,4.7c0.5,0.3,1.1,0.4,1.6,0.4c1.3,0,2.5-0.7,3.1-1.9
			C80.5,58.7,79.9,56.5,78.2,55.6z"/>
		<path d="M75.6,49.5c-0.7-1.8-2.7-2.8-4.5-2.1C69.3,48,68.4,50,69,51.8c0.5,1.4,1.9,2.3,3.3,2.3c0.4,0,0.8-0.1,1.2-0.2
			C75.3,53.3,76.3,51.3,75.6,49.5z"/>
		<path d="M47.2,50.2c-1.5,1.2-1.7,3.4-0.5,4.9c0.7,0.8,1.7,1.3,2.7,1.3c0.8,0,1.6-0.3,2.2-0.8c1.5-1.2,1.7-3.4,0.5-4.9
			C51,49.2,48.7,48.9,47.2,50.2z"/>
		<path d="M83.9,49.1c-1.8-0.8-3.8,0-4.6,1.8c-0.8,1.8,0,3.8,1.8,4.6c0.5,0.2,0.9,0.3,1.4,0.3c1.3,0,2.6-0.8,3.2-2.1
			C86.4,52,85.6,49.9,83.9,49.1z"/>
		<path d="M53.1,43.6c-1.3,1.4-1.2,3.6,0.2,5c0.7,0.6,1.5,0.9,2.4,0.9c0.9,0,1.9-0.4,2.6-1.1c1.3-1.4,1.2-3.6-0.2-5
			C56.6,42,54.4,42.1,53.1,43.6z"/>
	</g>
</g>
<g id="Layer_2">
</g>
</svg>
