<?xml version="1.0" encoding="utf-8"?>
<!-- Generator: Adobe Illustrator 19.1.0, SVG Export Plug-In . SVG Version: 6.00 Build 0)  -->
<svg version="1.1" xmlns="http://www.w3.org/2000/svg" xmlns:xlink="http://www.w3.org/1999/xlink" x="0px" y="0px"
	 viewBox="0 0 100 100" style="enable-background:new 0 0 100 100;" xml:space="preserve">
<g id="Layer_1">
	<g>
		<path d="M90.9,95H16.6C10.2,95,5,89.8,5,83.4V9.1C5,6.8,6.8,5,9.1,5s4.1,1.8,4.1,4.1v74.3c0,1.8,1.5,3.3,3.3,3.3h74.3
			c2.3,0,4.1,1.8,4.1,4.1S93.2,95,90.9,95z"/>
		<path d="M27.7,78.3c-0.6,0-1.3-0.1-1.8-0.4c-2-1-2.9-3.5-1.8-5.5l14.9-29.7c0.5-1,1.4-1.8,2.5-2.1c1.1-0.3,2.3-0.2,3.3,0.4
			l14.8,8.9L76,16.6c1-2,3.5-2.9,5.5-1.8c2,1,2.9,3.5,1.8,5.5L64.8,57.4c-0.5,1-1.4,1.8-2.5,2.1c-1.1,0.3-2.3,0.2-3.3-0.4l-14.8-8.9
			L31.4,76C30.7,77.4,29.2,78.3,27.7,78.3z"/>
	</g>
</g>
<g id="Layer_2">
</g>
</svg>
