<?xml version="1.0" encoding="utf-8"?>
<!-- Generator: Adobe Illustrator 19.1.0, SVG Export Plug-In . SVG Version: 6.00 Build 0)  -->
<svg version="1.1" xmlns="http://www.w3.org/2000/svg" xmlns:xlink="http://www.w3.org/1999/xlink" x="0px" y="0px"
	 viewBox="0 0 100 100" style="enable-background:new 0 0 100 100;" xml:space="preserve">
<g id="Layer_1">
	<g>
		<path d="M46.9,38.8c0,1.7,1.4,3.1,3.1,3.1c1.7,0,3.1-1.4,3.1-3.1V26.5h9.3L50,5L37.6,26.5h9.3V38.8z"/>
		<path d="M53.1,61.2c0-1.7-1.4-3.1-3.1-3.1c-1.7,0-3.1,1.4-3.1,3.1v12.3h-9.3L50,95l12.4-21.5h-9.3V61.2z"/>
		<path d="M95,49.9L73.5,37.5v9.4H61.2c-1.7,0-3.1,1.4-3.1,3.1s1.4,3.1,3.1,3.1h12.3v9.3L95,49.9z"/>
		<path d="M38.8,53.1c1.7,0,3.1-1.4,3.1-3.1s-1.4-3.1-3.1-3.1H26.5v-9.3L5,50l21.5,12.4v-9.3H38.8z"/>
	</g>
</g>
<g id="Layer_2">
</g>
</svg>
