<?xml version="1.0" encoding="utf-8"?>
<!-- Generator: Adobe Illustrator 19.1.0, SVG Export Plug-In . SVG Version: 6.00 Build 0)  -->
<svg version="1.1" xmlns="http://www.w3.org/2000/svg" xmlns:xlink="http://www.w3.org/1999/xlink" x="0px" y="0px"
	 viewBox="0 0 100 100" style="enable-background:new 0 0 100 100;" xml:space="preserve">
<g id="Layer_1">
</g>
<g id="Layer_2">
	<g>
		<polygon points="52.2,21.4 52.2,43.7 58.8,43.7 58.8,12.9 53,12.9 43.3,22.7 47.1,26.6 		"/>
		<path d="M85.2,55.6c5.4-3.9,8.3-7,8.3-10.5c0-4.1-3.5-6.6-7.9-6.6c-2.9,0-6,1.1-8,3.4l2.5,2.9c1.4-1.5,3.2-2.4,5.6-2.4
			c1.7,0,3.4,0.9,3.4,2.7c0,2.5-2.5,4.7-11,10.9v3.5h15.6v-3.9H85.2z"/>
		<path d="M53.4,55.2c-7,0-11.8,4.6-11.8,10.6c0,6.6,4.9,10,10.5,10c3.4,0,6.5-1.9,7.9-4c0,0.2,0,0.5,0,0.7c0,4.4-2.6,8.7-7.7,8.7
			c-2.7,0-4.5-0.8-6.1-2.4l-2.9,5c2.2,1.9,5.3,3.2,9.1,3.2c9.1,0,14.4-6.6,14.4-15.9C66.7,62.4,62.7,55.2,53.4,55.2z M53.9,70.2
			c-2.9,0-5.7-1.4-5.7-4.6c0-2.1,1.9-4.5,5.5-4.5c4.3,0,6,3.3,6.2,6.2C58.5,69.1,56.3,70.2,53.9,70.2z"/>
		<path d="M21.9,16.3c0-1.7-1.4-3.1-3.1-3.1s-3.1,1.4-3.1,3.1v49.3H6.4L18.8,87l12.4-21.5h-9.3V16.3z"/>
	</g>
</g>
</svg>
