<?xml version="1.0" encoding="utf-8"?>
<!-- Generator: Adobe Illustrator 19.1.0, SVG Export Plug-In . SVG Version: 6.00 Build 0)  -->
<svg version="1.1" xmlns="http://www.w3.org/2000/svg" xmlns:xlink="http://www.w3.org/1999/xlink" x="0px" y="0px"
	 viewBox="0 0 100 100" style="enable-background:new 0 0 100 100;" xml:space="preserve">
<g id="Layer_1">
	<path d="M85.4,5H14.6C9.3,5,5,9.3,5,14.6v70.8c0,5.3,4.3,9.6,9.6,9.6h70.8c5.3,0,9.6-4.3,9.6-9.6V14.6C95,9.3,90.7,5,85.4,5z
		 M14.6,11.2h70.8c1.8,0,3.3,1.5,3.3,3.3v7.9H11.2v-7.9C11.2,12.7,12.7,11.2,14.6,11.2z M39.2,66.5V50.6H61v15.8H39.2z M61,72.7v16
		H39.2v-16H61z M61,28.8v15.6H39.2V28.8H61z M32.9,44.4H11.2V28.8h21.7V44.4z M32.9,50.6v15.8H11.2V50.6H32.9z M67.3,50.6h21.5v15.8
		H67.3V50.6z M67.3,44.4V28.8h21.5v15.6H67.3z M11.2,85.4V72.7h21.7v16H14.6C12.7,88.8,11.2,87.3,11.2,85.4z M85.4,88.8H67.3v-16
		h21.5v12.7C88.8,87.3,87.3,88.8,85.4,88.8z"/>
</g>
<g id="Layer_2">
</g>
</svg>
