<?xml version="1.0" encoding="utf-8"?>
<!-- Generator: Adobe Illustrator 19.1.0, SVG Export Plug-In . SVG Version: 6.00 Build 0)  -->
<svg version="1.1" xmlns="http://www.w3.org/2000/svg" xmlns:xlink="http://www.w3.org/1999/xlink" x="0px" y="0px"
	 viewBox="0 0 100 100" style="enable-background:new 0 0 100 100;" xml:space="preserve">
<g id="Layer_1">
	<g>
		<path d="M50,11.2c10.4,0,20.1,4,27.4,11.3s11.3,17,11.3,27.4s-4,20.1-11.3,27.4S60.4,88.8,50,88.8s-20.1-4-27.4-11.3
			S11.2,60.4,11.2,50s4-20.1,11.3-27.4S39.6,11.2,50,11.2 M50,5C25.1,5,5,25.1,5,50s20.1,45,45,45s45-20.1,45-45S74.9,5,50,5L50,5z"
			/>
		<g>
			<path d="M37.6,65v-4.8c13.5-10.2,18.8-14.7,18.8-19.7c0-3.6-3.2-5.3-6.4-5.3c-4.1,0-7.1,1.6-9.4,4.1l-3.5-4
				c3.1-3.8,8-5.6,12.9-5.6c6.7,0,12.6,3.8,12.6,10.7c0,6.5-5.9,12.2-15.2,19.2h15.4V65H37.6z"/>
		</g>
	</g>
</g>
<g id="Layer_2">
</g>
</svg>
