<?xml version="1.0" encoding="utf-8"?>
<!-- Generator: Adobe Illustrator 19.1.0, SVG Export Plug-In . SVG Version: 6.00 Build 0)  -->
<svg version="1.1" xmlns="http://www.w3.org/2000/svg" xmlns:xlink="http://www.w3.org/1999/xlink" x="0px" y="0px"
	 viewBox="0 0 100 100" style="enable-background:new 0 0 100 100;" xml:space="preserve">
<g id="Layer_1">
</g>
<g id="Layer_2">
	<g>
		<path d="M17.3,85.3c0.1,0.1,0.2,0.1,0.3,0.1c0.3,0,0.5-0.1,0.6-0.4l17.1-34.3c0.2-0.3,0.5-0.6,0.8-0.7c0.4-0.1,0.7-0.1,1.1,0.1
			l18.9,11.3c0.7,0.4,1.5,0.5,2.2,0.3c0.7-0.2,1.4-0.7,1.7-1.4l21.7-43.3c0.2-0.4,0-0.8-0.3-1c-0.4-0.2-0.8,0-1,0.3L58.8,59.8
			c-0.2,0.3-0.5,0.6-0.8,0.7c-0.4,0.1-0.7,0.1-1.1-0.1L38,49c-0.7-0.4-1.5-0.5-2.2-0.3c-0.7,0.2-1.4,0.7-1.7,1.4L17,84.4
			C16.8,84.7,17,85.2,17.3,85.3z"/>
		<path d="M94.3,93.6H7.8c-0.7,0-1.3-0.6-1.3-1.3V5.7C6.4,5.3,6.1,5,5.7,5S5,5.3,5,5.7v86.5C5,93.8,6.2,95,7.8,95h86.5
			c0.4,0,0.7-0.3,0.7-0.7S94.7,93.6,94.3,93.6z"/>
	</g>
</g>
</svg>
