<?xml version="1.0" encoding="utf-8"?>
<!-- Generator: Adobe Illustrator 19.1.0, SVG Export Plug-In . SVG Version: 6.00 Build 0)  -->
<svg version="1.1" xmlns="http://www.w3.org/2000/svg" xmlns:xlink="http://www.w3.org/1999/xlink" x="0px" y="0px"
	 viewBox="0 0 100 100" style="enable-background:new 0 0 100 100;" xml:space="preserve">
<g id="Layer_1">
	<path d="M66.8,48.3l5.6-5.6c6.2,1.7,12.8,0,17.4-4.6c3.9-3.9,5.8-9.7,5-15.4c-0.3-1.8-1.5-3.3-3.3-3.9c-1.8-0.6-3.7-0.1-5,1.2
		L83.5,23c-1.1,1.1-2.8,1.1-3.9,0l-0.1-0.1c-0.5-0.5-0.8-1.2-0.8-1.9c0-0.7,0.3-1.4,0.8-1.9l3-3c1.3-1.3,1.8-3.2,1.2-5
		c-0.6-1.8-2.1-3-4-3.3c-5.6-0.7-11.1,1.1-15,5c-4.5,4.5-6.3,11-4.7,17.2l-5.7,5.7l-9.4-9.4L53,18c1.3-1.3,1.7-3.1,1.2-4.8
		c-0.5-1.7-1.9-3-3.7-3.4L33.8,6.4c-1.6-0.3-3.2,0.2-4.4,1.3l-23,23c-1.9,1.9-1.9,5,0,6.9l10,10c1.9,1.9,5,1.9,6.9,0l7-7l9.4,9.4
		l-8.5,8.5c-6.1-1.6-12.7,0.2-17.2,4.7c-3.9,3.9-5.8,9.4-5,15c0.2,1.9,1.5,3.4,3.3,4c1.8,0.6,3.7,0.2,5-1.2l3.1-3.1
		c1.1-1.1,2.8-1.1,3.9,0l0.1,0.1c0.5,0.5,0.8,1.2,0.8,1.9c0,0.7-0.3,1.4-0.8,1.9l-3.2,3.2c-1.3,1.3-1.8,3.2-1.2,5
		c0.6,1.8,2.1,3,3.9,3.3c0.9,0.1,1.8,0.2,2.6,0.2c4.8,0,9.4-1.8,12.7-5.2c4.6-4.6,6.3-11.2,4.6-17.4l8.4-8.4l23.4,23.4
		c1.7,1.7,3.9,2.6,6.2,2.6c2.4,0,4.6-0.9,6.2-2.6l1.9-1.9c1.7-1.7,2.6-3.9,2.6-6.2c0-2.4-0.9-4.6-2.6-6.2L66.8,48.3z M30.3,34.1
		c-1.2,0-2.5,0.5-3.4,1.4l-7,7l-8.3-8.3l21.7-21.7l13.9,2.8l-7.5,7.5c-0.9,0.9-1.4,2.1-1.4,3.4c0,1.3,0.5,2.5,1.4,3.4L49.9,40
		l-5.8,5.8L33.8,35.5C32.8,34.6,31.6,34.1,30.3,34.1z M39.2,67.3c-1.3,1.3-1.8,3.2-1.2,4.9c1.4,4.2,0.3,8.8-2.9,12
		c-2,2-4.7,3.2-7.6,3.4l1.2-1.2c1.7-1.7,2.6-3.9,2.6-6.2c0-2.4-0.9-4.6-2.6-6.2l-0.1-0.1c-1.7-1.7-4-2.6-6.2-2.6s-4.5,0.9-6.2,2.6
		l-1.1,1.1c0.2-2.8,1.4-5.3,3.4-7.3c3.1-3.1,7.7-4.3,11.8-3c1.7,0.5,3.6,0.1,4.9-1.2l29.6-29.6c1.3-1.3,1.7-3.1,1.2-4.8
		c-1.3-4.2-0.1-8.7,3-11.8c2-2,4.5-3.1,7.3-3.4l-1,1c-1.7,1.7-2.6,3.9-2.6,6.3c0,2.4,0.9,4.6,2.6,6.2l0.1,0.1c3.4,3.4,9,3.4,12.4,0
		l1.2-1.2c-0.2,2.9-1.4,5.6-3.4,7.6c-3.2,3.2-7.8,4.3-12,2.9c-1.7-0.6-3.6-0.1-4.9,1.2L39.2,67.3z M85.9,79.9l-1.9,1.9
		c-0.5,0.5-1.2,0.8-1.9,0.8c-0.7,0-1.4-0.3-1.9-0.8L56.7,58.4l5.8-5.8L85.9,76c0.5,0.5,0.8,1.2,0.8,1.9
		C86.7,78.7,86.4,79.4,85.9,79.9z"/>
</g>
<g id="Layer_2">
</g>
</svg>
