<?xml version="1.0" encoding="utf-8"?>
<!-- Generator: Adobe Illustrator 19.1.0, SVG Export Plug-In . SVG Version: 6.00 Build 0)  -->
<svg version="1.1" xmlns="http://www.w3.org/2000/svg" xmlns:xlink="http://www.w3.org/1999/xlink" x="0px" y="0px"
	 viewBox="0 0 100 100" style="enable-background:new 0 0 100 100;" xml:space="preserve">
<g id="Layer_1">
	<g>
		<g>
			<path d="M42.6,54.7c-6,0-11.6-2.3-15.7-6.3c-4.1-4.1-6.3-9.7-6.3-15.7c0-6,2.3-11.6,6.3-15.7c4.1-4.1,9.7-6.4,15.7-6.4
				c6,0,11.6,2.3,15.7,6.4s6.4,9.7,6.4,15.7c0,6-2.3,11.6-6.4,15.7C54.1,52.4,48.6,54.7,42.6,54.7z M42.6,16.9
				c-9,0-15.8,6.8-15.8,15.8c0,9,6.8,15.8,15.8,15.8c9,0,15.8-6.8,15.8-15.8C58.3,23.7,51.6,16.9,42.6,16.9z"/>
			<path d="M42.6,69.8c5,0,13.8,1.4,21.2,4.6c6.4,2.7,10.3,6,10.3,8.7c0,0,0,0,0,0c0,0,0,0,0,0c0,0,0,0,0,0h-63c0,0,0,0,0,0l0,0
				c0,0,0,0,0,0c0,0,0,0,0,0c0-1.2,0.7-2.4,2.2-3.8c1.8-1.7,4.7-3.4,8.2-4.9C28.8,71.2,37.6,69.8,42.6,69.8 M42.6,63.5
				c-12.6,0-37.8,7-37.8,19.5c0,3.5,2.8,6.3,6.3,6.3h63c3.5,0,6.3-2.8,6.3-6.3C80.4,70.5,55.2,63.5,42.6,63.5L42.6,63.5z"/>
		</g>
		<path d="M92.1,48H84v-8.5c0-1.5-1.3-2.5-2.8-2.5h-0.7C79,37,78,38,78,39.5V48h-8.4c-1.5,0-2.6,0.8-2.6,2.4v0.7
			c0,1.5,1.1,2.9,2.6,2.9H78v8c0,1.5,1,3,2.5,3h0.7c1.5,0,2.8-1.5,2.8-3v-8h8.1c1.5,0,2.9-1.4,2.9-2.9v-0.7C95,48.8,93.6,48,92.1,48
			z"/>
	</g>
</g>
<g id="Layer_2">
</g>
</svg>
