<?xml version="1.0" encoding="utf-8"?>
<!-- Generator: Adobe Illustrator 19.1.0, SVG Export Plug-In . SVG Version: 6.00 Build 0)  -->
<svg version="1.1" xmlns="http://www.w3.org/2000/svg" xmlns:xlink="http://www.w3.org/1999/xlink" x="0px" y="0px"
	 viewBox="0 0 100 100" style="enable-background:new 0 0 100 100;" xml:space="preserve">
<g id="Layer_1">
	<g>
		<path d="M90.3,64.7c-2,0-3.6,1.6-3.6,3.6v18.9c0,0.4-0.3,0.7-0.7,0.7H14c-0.4,0-0.7-0.3-0.7-0.7V68.2c0-2-1.6-3.6-3.6-3.6
			s-3.6,1.6-3.6,3.6v18.9c0,4.3,3.5,7.8,7.8,7.8h72c4.3,0,7.8-3.5,7.8-7.8V68.2C93.8,66.3,92.2,64.7,90.3,64.7z"/>
		<path d="M50,74.5L64.2,50H53.6V8.6C53.6,6.6,52,5,50,5s-3.6,1.6-3.6,3.6V50H35.8L50,74.5z"/>
	</g>
</g>
<g id="Layer_2">
</g>
</svg>
