<?xml version="1.0" encoding="utf-8"?>
<!-- Generator: Adobe Illustrator 19.1.0, SVG Export Plug-In . SVG Version: 6.00 Build 0)  -->
<svg version="1.1" xmlns="http://www.w3.org/2000/svg" xmlns:xlink="http://www.w3.org/1999/xlink" x="0px" y="0px"
	 viewBox="0 0 100 100" style="enable-background:new 0 0 100 100;" xml:space="preserve">
<g id="Layer_1">
	<g>
		<path d="M50,72.6c5.7,0,15.7,1.6,24.2,5.2c7.3,3.1,11.8,6.9,11.8,9.9c0,0,0,0,0,0c0,0,0,0,0,0c0,0,0,0,0,0H14c0,0,0,0,0,0l0,0
			c0,0,0,0,0,0c0,0,0,0,0,0c0-1.3,0.8-2.8,2.5-4.3c2.1-2,5.3-3.9,9.3-5.6C34.3,74.3,44.3,72.6,50,72.6 M50,65.5
			c-14.4,0-43.2,7.9-43.2,22.3c0,4,3.2,7.2,7.2,7.2h72c4,0,7.2-3.2,7.2-7.2C93.2,73.4,64.4,65.5,50,65.5L50,65.5z"/>
		<path d="M50,55.4c-6.9,0-13.2-2.6-17.9-7.3c-4.7-4.7-7.3-11-7.3-17.9c0-6.9,2.6-13.2,7.3-17.9C36.8,7.6,43.1,5,50,5
			c6.9,0,13.2,2.6,17.9,7.3s7.3,11.1,7.3,17.9c0,6.9-2.6,13.2-7.3,17.9C63.2,52.8,56.9,55.4,50,55.4z M50,12.2c-10.3,0-18,7.8-18,18
			c0,10.3,7.7,18,18,18c10.3,0,18-7.7,18-18C68,19.9,60.3,12.2,50,12.2z"/>
	</g>
</g>
<g id="Layer_2">
</g>
</svg>
