<?xml version="1.0" encoding="utf-8"?>
<!-- Generator: Adobe Illustrator 19.1.0, SVG Export Plug-In . SVG Version: 6.00 Build 0)  -->
<svg version="1.1" xmlns="http://www.w3.org/2000/svg" xmlns:xlink="http://www.w3.org/1999/xlink" x="0px" y="0px"
	 viewBox="0 0 100 100" style="enable-background:new 0 0 100 100;" xml:space="preserve">
<g id="Layer_1">
</g>
<g id="Layer_2">
	<g>
		<path d="M7.7,26.6h21.8c1.1,0,2.1-0.9,2.1-2.1V13.8c0-1.1-0.9-2.1-2.1-2.1H7.7c-1.1,0-2.1,0.9-2.1,2.1v10.7
			C5.6,25.7,6.5,26.6,7.7,26.6z"/>
		<path d="M70.5,26.6h21.8c1.1,0,2.1-0.9,2.1-2.1V13.8c0-1.1-0.9-2.1-2.1-2.1H70.5c-1.1,0-2.1,0.9-2.1,2.1v10.7
			C68.5,25.7,69.4,26.6,70.5,26.6z"/>
		<path d="M39.1,26.6h21.8c1.1,0,2.1-0.9,2.1-2.1V13.8c0-1.1-0.9-2.1-2.1-2.1H39.1c-1.1,0-2.1,0.9-2.1,2.1v10.7
			C37.1,25.7,38,26.6,39.1,26.6z"/>
		<path d="M29.5,31.5H7.7c-1.5,0-2.7,1.2-2.7,2.7v10.7c0,1.5,1.2,2.7,2.7,2.7h21.8c1.5,0,2.7-1.2,2.7-2.7V34.2
			C32.1,32.7,30.9,31.5,29.5,31.5z M30.9,44.9c0,0.8-0.6,1.4-1.4,1.4H7.7c-0.8,0-1.4-0.6-1.4-1.4V34.2c0-0.8,0.6-1.4,1.4-1.4h21.8
			c0.8,0,1.4,0.6,1.4,1.4V44.9z"/>
		<path d="M92.3,31.5H70.5c-1.5,0-2.7,1.2-2.7,2.7v10.7c0,1.5,1.2,2.7,2.7,2.7h21.8c1.5,0,2.7-1.2,2.7-2.7V34.2
			C95,32.7,93.8,31.5,92.3,31.5z M93.8,44.9c0,0.8-0.6,1.4-1.4,1.4H70.5c-0.8,0-1.4-0.6-1.4-1.4V34.2c0-0.8,0.6-1.4,1.4-1.4h21.8
			c0.8,0,1.4,0.6,1.4,1.4V44.9z"/>
		<path d="M60.9,31.5H39.1c-1.5,0-2.7,1.2-2.7,2.7v10.7c0,1.5,1.2,2.7,2.7,2.7h21.8c1.5,0,2.7-1.2,2.7-2.7V34.2
			C63.6,32.7,62.4,31.5,60.9,31.5z M62.3,44.9c0,0.8-0.6,1.4-1.4,1.4H39.1c-0.8,0-1.4-0.6-1.4-1.4V34.2c0-0.8,0.6-1.4,1.4-1.4h21.8
			c0.8,0,1.4,0.6,1.4,1.4V44.9z"/>
		<path d="M29.5,51.8H7.7C6.2,51.8,5,53,5,54.5v10.7c0,1.5,1.2,2.7,2.7,2.7h21.8c1.5,0,2.7-1.2,2.7-2.7V54.5
			C32.1,53,30.9,51.8,29.5,51.8z M30.9,65.2c0,0.8-0.6,1.4-1.4,1.4H7.7c-0.8,0-1.4-0.6-1.4-1.4V54.5c0-0.8,0.6-1.4,1.4-1.4h21.8
			c0.8,0,1.4,0.6,1.4,1.4V65.2z"/>
		<path d="M92.3,51.8H70.5c-1.5,0-2.7,1.2-2.7,2.7v10.7c0,1.5,1.2,2.7,2.7,2.7h21.8c1.5,0,2.7-1.2,2.7-2.7V54.5
			C95,53,93.8,51.8,92.3,51.8z M93.8,65.2c0,0.8-0.6,1.4-1.4,1.4H70.5c-0.8,0-1.4-0.6-1.4-1.4V54.5c0-0.8,0.6-1.4,1.4-1.4h21.8
			c0.8,0,1.4,0.6,1.4,1.4V65.2z"/>
		<path d="M60.9,51.8H39.1c-1.5,0-2.7,1.2-2.7,2.7v10.7c0,1.5,1.2,2.7,2.7,2.7h21.8c1.5,0,2.7-1.2,2.7-2.7V54.5
			C63.6,53,62.4,51.8,60.9,51.8z M62.3,65.2c0,0.8-0.6,1.4-1.4,1.4H39.1c-0.8,0-1.4-0.6-1.4-1.4V54.5c0-0.8,0.6-1.4,1.4-1.4h21.8
			c0.8,0,1.4,0.6,1.4,1.4V65.2z"/>
		<path d="M29.5,72.2H7.7c-1.5,0-2.7,1.2-2.7,2.7v10.7c0,1.5,1.2,2.7,2.7,2.7h21.8c1.5,0,2.7-1.2,2.7-2.7V74.9
			C32.1,73.4,30.9,72.2,29.5,72.2z M30.9,85.5c0,0.8-0.6,1.4-1.4,1.4H7.7c-0.8,0-1.4-0.6-1.4-1.4V74.9c0-0.8,0.6-1.4,1.4-1.4h21.8
			c0.8,0,1.4,0.6,1.4,1.4V85.5z"/>
		<path d="M92.3,72.2H70.5c-1.5,0-2.7,1.2-2.7,2.7v10.7c0,1.5,1.2,2.7,2.7,2.7h21.8c1.5,0,2.7-1.2,2.7-2.7V74.9
			C95,73.4,93.8,72.2,92.3,72.2z M93.8,85.5c0,0.8-0.6,1.4-1.4,1.4H70.5c-0.8,0-1.4-0.6-1.4-1.4V74.9c0-0.8,0.6-1.4,1.4-1.4h21.8
			c0.8,0,1.4,0.6,1.4,1.4V85.5z"/>
		<path d="M60.9,72.2H39.1c-1.5,0-2.7,1.2-2.7,2.7v10.7c0,1.5,1.2,2.7,2.7,2.7h21.8c1.5,0,2.7-1.2,2.7-2.7V74.9
			C63.6,73.4,62.4,72.2,60.9,72.2z M62.3,85.5c0,0.8-0.6,1.4-1.4,1.4H39.1c-0.8,0-1.4-0.6-1.4-1.4V74.9c0-0.8,0.6-1.4,1.4-1.4h21.8
			c0.8,0,1.4,0.6,1.4,1.4V85.5z"/>
	</g>
</g>
</svg>
