<?xml version="1.0" encoding="utf-8"?>
<!-- Generator: Adobe Illustrator 19.1.0, SVG Export Plug-In . SVG Version: 6.00 Build 0)  -->
<svg version="1.1" xmlns="http://www.w3.org/2000/svg" xmlns:xlink="http://www.w3.org/1999/xlink" x="0px" y="0px"
	 viewBox="0 0 100 100" style="enable-background:new 0 0 100 100;" xml:space="preserve">
<g id="Layer_1">
	<g>
		<path d="M50,11.2c10.4,0,20.1,4,27.4,11.3s11.3,17,11.3,27.4s-4,20.1-11.3,27.4S60.4,88.8,50,88.8s-20.1-4-27.4-11.3
			S11.2,60.4,11.2,50s4-20.1,11.3-27.4S39.6,11.2,50,11.2 M50,5C25.1,5,5,25.1,5,50s20.1,45,45,45s45-20.1,45-45S74.9,5,50,5L50,5z"
			/>
		<g>
			<path d="M38.9,63.6l2.9-4.6c1.8,1.9,3.8,3.1,7.1,3.1c6.3,0,9.2-5.8,9.2-11.5c0-0.3,0-0.7-0.1-1c-1.6,2.3-5.2,4.8-9.3,4.8
				c-6.2,0-11.6-3.8-11.6-11.2c0-6.5,5.1-11.7,12.8-11.7c10.2,0,14.3,8.3,14.3,17.9c0,10.1-5.3,18-15.3,18
				C44.5,67.4,41.2,65.9,38.9,63.6z M57.9,45.1c-0.4-3.8-2.4-8.1-7.8-8.1c-4.6,0-7,3.2-7,6c0,4.3,3.3,6.2,7.1,6.2
				C53.3,49.2,56.1,47.6,57.9,45.1z"/>
		</g>
	</g>
</g>
<g id="Layer_2">
</g>
</svg>
