<?xml version="1.0" encoding="utf-8"?>
<!-- Generator: Adobe Illustrator 19.1.0, SVG Export Plug-In . SVG Version: 6.00 Build 0)  -->
<svg version="1.1" xmlns="http://www.w3.org/2000/svg" xmlns:xlink="http://www.w3.org/1999/xlink" x="0px" y="0px"
	 viewBox="0 0 100 100" style="enable-background:new 0 0 100 100;" xml:space="preserve">
<g id="Layer_1">
</g>
<g id="Layer_2">
	<g>
		<path d="M47.8,12.9L35.9,43.8h7.4l1.9-5.2h13.2l1.9,5.2h7.4L56,12.9H47.8z M47.1,32.8l4.8-13.3l4.8,13.3H47.1z"/>
		<path d="M85.4,56.4c6.1-4.4,9.4-7.9,9.4-11.9c0-4.7-3.9-7.5-9-7.5c-3.3,0-6.8,1.2-9.1,3.8l2.9,3.3c1.6-1.7,3.6-2.7,6.3-2.7
			c1.9,0,3.8,1,3.8,3.1c0,2.9-2.8,5.3-12.4,12.4v3.9H95v-4.4H85.4z"/>
		<polygon points="63.3,61 63.3,55.8 40.1,55.8 40.1,61.6 54.7,61.6 40.1,81.3 40.1,86.6 63.6,86.6 63.6,80.8 48.7,80.8 		"/>
		<path d="M20.5,16.3c0-1.7-1.4-3.1-3.1-3.1s-3.1,1.4-3.1,3.1v49.3H5l12.4,21.5l12.4-21.5h-9.3V16.3z"/>
	</g>
</g>
</svg>
