<?xml version="1.0" encoding="utf-8"?>
<!-- Generator: Adobe Illustrator 19.1.0, SVG Export Plug-In . SVG Version: 6.00 Build 0)  -->
<svg version="1.1" xmlns="http://www.w3.org/2000/svg" xmlns:xlink="http://www.w3.org/1999/xlink" x="0px" y="0px"
	 viewBox="0 0 100 100" style="enable-background:new 0 0 100 100;" xml:space="preserve">
<g id="Layer_1">
</g>
<g id="Layer_2">
	<g>
		<path d="M81.2,54.8H46.7c-0.8,0-1.5-0.7-1.5-1.5V18.8c0-0.8-0.3-1.5-0.9-2C43.7,16.2,43,16,42.2,16c-10.3,0.5-19.7,4.8-26.6,12.1
			C8.8,35.3,5,45.1,5,55.5C5,66.1,9.1,76,16.6,83.4C24,90.9,33.9,95,44.5,95c10.4,0,20.2-3.8,27.4-10.6c7.2-6.8,11.5-16.3,12.1-26.6
			c0-0.8-0.2-1.5-0.8-2.1C82.7,55.1,81.9,54.8,81.2,54.8z M82.7,57.7C82.2,67.7,78,76.8,71,83.4c-7,6.6-16.4,10.3-26.6,10.3
			c-10.2,0-19.8-4-27-11.2c-7.2-7.2-11.2-16.8-11.2-27C6.3,45.4,9.9,36,16.6,29c6.6-7,15.7-11.1,25.7-11.7c0,0,0.1,0,0.1,0
			c0.4,0,0.7,0.1,1,0.4c0.3,0.3,0.5,0.7,0.5,1.1v34.5c0,1.5,1.3,2.8,2.8,2.8h34.5c0.4,0,0.8,0.2,1.1,0.5
			C82.6,56.9,82.7,57.3,82.7,57.7z"/>
		<path d="M95,41.5C93.9,21.4,78.6,6.1,58.5,5c-1.2-0.1-2.3,0.9-2.3,2.2v34.5c0,1.2,1,2.2,2.2,2.2h34.5C94.1,43.8,95.1,42.8,95,41.5
			z"/>
	</g>
</g>
</svg>
