<?xml version="1.0" encoding="utf-8"?>
<!-- Generator: Adobe Illustrator 19.1.0, SVG Export Plug-In . SVG Version: 6.00 Build 0)  -->
<svg version="1.1" xmlns="http://www.w3.org/2000/svg" xmlns:xlink="http://www.w3.org/1999/xlink" x="0px" y="0px"
	 viewBox="0 0 100 100" style="enable-background:new 0 0 100 100;" xml:space="preserve">
<g id="Layer_1">
	<g>
		<path d="M59.1,38.5h13.2l1.9,5.2h7.4L69.9,12.9h-8.2L49.7,43.8h7.4L59.1,38.5z M65.7,19.5l4.8,13.3h-9.6L65.7,19.5z"/>
		<polygon points="77.2,61 77.2,55.8 54,55.8 54,61.6 68.6,61.6 54,81.3 54,86.6 77.5,86.6 77.5,80.8 62.6,80.8 		"/>
		<path d="M33.8,16.3c0-1.7-1.4-3.1-3.1-3.1s-3.1,1.4-3.1,3.1v49.3h-9.3l12.4,21.5l12.4-21.5h-9.3V16.3z"/>
	</g>
</g>
<g id="Layer_2">
</g>
</svg>
