<?xml version="1.0" encoding="utf-8"?>
<!-- Generator: Adobe Illustrator 19.1.0, SVG Export Plug-In . SVG Version: 6.00 Build 0)  -->
<svg version="1.1" xmlns="http://www.w3.org/2000/svg" xmlns:xlink="http://www.w3.org/1999/xlink" x="0px" y="0px"
	 viewBox="0 0 100 100" style="enable-background:new 0 0 100 100;" xml:space="preserve">
<g id="Layer_1">
	<path d="M9.1,5c0.8,0,1.6,0.3,2.2,0.8l49.8,41.5c0.8,0.7,1.2,1.6,1.2,2.7c0,1-0.5,2-1.2,2.7L11.3,94.2c-1.5,1.2-3.7,1-4.9-0.4
		c-1.2-1.5-1-3.7,0.4-4.9L53.5,50L6.9,11.1C5.4,9.9,5.2,7.7,6.4,6.2C7.1,5.4,8.1,5,9.1,5z"/>
	<path d="M41.1,5c0.8,0,1.6,0.3,2.2,0.8l49.8,41.5c0.8,0.7,1.2,1.6,1.2,2.7c0,1-0.5,2-1.2,2.7L43.3,94.2c-1.5,1.2-3.7,1-4.9-0.4
		c-1.2-1.5-1-3.7,0.4-4.9L85.5,50L38.9,11.1c-1.5-1.2-1.7-3.4-0.4-4.9C39.1,5.4,40.1,5,41.1,5z"/>
</g>
<g id="Layer_2">
</g>
</svg>
