<?xml version="1.0" encoding="utf-8"?>
<!-- Generator: Adobe Illustrator 19.1.0, SVG Export Plug-In . SVG Version: 6.00 Build 0)  -->
<svg version="1.1" xmlns="http://www.w3.org/2000/svg" xmlns:xlink="http://www.w3.org/1999/xlink" x="0px" y="0px"
	 viewBox="0 0 100 100" style="enable-background:new 0 0 100 100;" xml:space="preserve">
<g id="Layer_1">
</g>
<g id="Layer_2">
	<g>
		<path d="M93.4,22.1l-27-16.2c-1-0.6-2.3-0.6-3.3,0l-27,16.2c-0.5,0.3-1.2,0.3-1.8,0L9.8,7.3c-1-0.6-2.2-0.6-3.2,0
			C5.6,7.9,5,8.9,5,10.1v65.1c0,1.1,0.6,2.2,1.6,2.7l27,16.2c0.5,0.3,1.1,0.5,1.6,0.5c0.6,0,1.1-0.2,1.6-0.5l27-16.2
			c0.5-0.3,1.2-0.3,1.8,0l24.5,14.7c1,0.6,2.2,0.6,3.2,0c1-0.6,1.6-1.6,1.6-2.8V24.8C95,23.7,94.4,22.7,93.4,22.1z M7.3,76.6
			c-0.5-0.3-0.8-0.9-0.8-1.5v-13c0.1,0.1,0.1,0.1,0.2,0.2C7,62.7,7.5,62.9,8,62.9c0.5,0,1-0.2,1.3-0.5c0.3-0.3,0.5-0.8,0.5-1.3
			c0-0.5-0.2-1-0.5-1.3c-0.3-0.3-0.8-0.5-1.3-0.5c-0.5,0-1,0.2-1.3,0.5c-0.1,0.1-0.1,0.1-0.2,0.2V10.1c0-0.6,0.3-1.2,0.9-1.5
			c0.5-0.3,1.2-0.3,1.7,0l24.5,14.7c0.3,0.2,0.6,0.3,0.9,0.4v16.6c-0.8-0.6-1.9-0.4-2.5,0.4c-0.6,0.8-0.4,2,0.4,2.6
			c0.3,0.2,0.7,0.4,1.1,0.4c0.4,0,0.7-0.1,1-0.3v49.6c0,0-0.1,0-0.1-0.1L7.3,76.6z M63.1,76.7l-27,16.2c0,0-0.1,0.1-0.1,0.1V23.7
			c0.3-0.1,0.6-0.2,0.9-0.4l27-16.2c0,0,0.1-0.1,0.1-0.1v29.8c-0.2,0.3-0.2,0.6-0.2,1c0,0.3,0.1,0.5,0.2,0.7v37.8
			C63.7,76.4,63.4,76.5,63.1,76.7z M92.7,91.4c-0.5,0.3-1.2,0.3-1.7,0L66.4,76.7c-0.3-0.2-0.6-0.3-0.9-0.4V39.5c0.1,0,0.1,0,0.2,0
			c0,0,0.1,0,0.1,0c1-0.1,1.8-0.9,1.7-2c-0.1-1-0.9-1.8-2-1.7c0,0,0,0,0,0V7.1c0,0,0.1,0,0.1,0.1l27,16.2c0.5,0.3,0.8,0.9,0.8,1.5
			v8.6c-0.1-0.1-0.1-0.1-0.2-0.2c-0.3-0.3-0.8-0.5-1.3-0.5s-1,0.2-1.3,0.5c-0.3,0.3-0.5,0.8-0.5,1.3c0,0.5,0.2,1,0.5,1.3
			c0.3,0.3,0.8,0.5,1.3,0.5c0.5,0,1-0.2,1.3-0.5c0.1-0.1,0.1-0.1,0.2-0.2v54.3C93.5,90.5,93.2,91.1,92.7,91.4z"/>
		<path d="M27.6,37.6c-1,0.4-1.4,1.4-1.1,2.4c0.3,0.7,1,1.2,1.7,1.2c0.2,0,0.4,0,0.7-0.1c1-0.4,1.4-1.4,1.1-2.4
			C29.6,37.7,28.6,37.2,27.6,37.6z"/>
		<path d="M45,48.3c-0.5-0.9-1.6-1.2-2.5-0.7c-0.9,0.5-1.2,1.6-0.7,2.5c0.3,0.6,1,0.9,1.6,0.9c0.3,0,0.6-0.1,0.9-0.2
			C45.2,50.3,45.5,49.1,45,48.3C45,48.3,45,48.3,45,48.3z"/>
		<path d="M90.3,38.5c-0.9-0.4-2,0-2.4,1c-0.4,0.9,0,2,1,2.4c0.2,0.1,0.5,0.2,0.7,0.2c0.7,0,1.4-0.4,1.7-1.1
			C91.7,40,91.3,38.9,90.3,38.5z"/>
		<path d="M39.6,44c-0.8-0.6-2-0.4-2.6,0.4c-0.6,0.8-0.4,2,0.4,2.6c0.3,0.2,0.7,0.4,1.1,0.4c0.6,0,1.1-0.3,1.5-0.8
			C40.6,45.8,40.4,44.6,39.6,44z"/>
		<path d="M15.7,49.1c-0.9-0.6-2-0.3-2.6,0.5c-0.6,0.9-0.3,2,0.5,2.6c0.3,0.2,0.7,0.3,1,0.3c0.6,0,1.2-0.3,1.5-0.8
			C16.8,50.8,16.6,49.7,15.7,49.1z"/>
		<path d="M12.3,54.3c-0.9-0.6-2-0.3-2.6,0.5c-0.6,0.9-0.3,2,0.5,2.5c0.3,0.2,0.7,0.3,1,0.3c0.6,0,1.2-0.3,1.5-0.8
			C13.4,56,13.2,54.9,12.3,54.3z"/>
		<path d="M22,39.3c-1,0.2-1.6,1.2-1.4,2.2c0.2,0.8,1,1.4,1.8,1.4c0.1,0,0.3,0,0.4-0.1c1-0.2,1.6-1.2,1.4-2.2C24,39.6,23,39,22,39.3
			z"/>
		<path d="M19.3,44c-0.8-0.6-2-0.4-2.6,0.4c-0.6,0.8-0.4,2,0.4,2.6c0.3,0.2,0.7,0.3,1.1,0.3c0.6,0,1.2-0.3,1.5-0.8
			C20.3,45.8,20.1,44.6,19.3,44z"/>
		<path d="M48.4,51.5c-1-0.3-2,0.2-2.3,1.2c-0.3,1,0.2,2,1.2,2.3c0.2,0.1,0.4,0.1,0.6,0.1c0.8,0,1.5-0.5,1.8-1.3
			C49.9,52.9,49.4,51.9,48.4,51.5z"/>
		<path d="M85.4,49.9c-0.9-0.4-2,0-2.4,1c-0.4,0.9,0,2,1,2.4c0.2,0.1,0.5,0.1,0.7,0.1c0.7,0,1.4-0.4,1.7-1.1
			C86.8,51.4,86.3,50.3,85.4,49.9z"/>
		<path d="M80.6,53.7c-1,0-1.9,0.8-1.9,1.8c0,1,0.8,1.9,1.8,1.9v0c0,0,0,0,0,0c1,0,1.8-0.8,1.8-1.8C82.4,54.6,81.6,53.8,80.6,53.7z"
			/>
		<path d="M87.9,44.2c-0.9-0.4-2,0-2.4,1c-0.4,0.9,0,2,1,2.4c0.2,0.1,0.5,0.2,0.7,0.2c0.7,0,1.4-0.4,1.7-1.1
			C89.2,45.7,88.8,44.6,87.9,44.2z"/>
		<path d="M75.6,49.9c-0.9,0.5-1.2,1.6-0.7,2.5c0.3,0.6,1,0.9,1.6,0.9c0.3,0,0.6-0.1,0.9-0.2c0.9-0.5,1.2-1.6,0.7-2.5
			C77.6,49.7,76.5,49.4,75.6,49.9z"/>
		<path d="M72.3,40.2c-0.3-1-1.3-1.6-2.3-1.3c-1,0.3-1.6,1.3-1.3,2.3c0.2,0.8,1,1.4,1.8,1.4c0.2,0,0.3,0,0.5-0.1
			C72,42.1,72.6,41.1,72.3,40.2z"/>
		<path d="M75,45.2c-0.5-0.9-1.6-1.2-2.5-0.7c-0.9,0.5-1.2,1.6-0.7,2.5c0.3,0.6,1,0.9,1.6,0.9c0.3,0,0.6-0.1,0.9-0.2
			C75.2,47.2,75.5,46,75,45.2z"/>
		<path d="M62.2,39.8c-0.8-0.7-1.9-0.6-2.6,0.1s-0.6,1.9,0.1,2.6c0.4,0.3,0.8,0.5,1.2,0.5c0.5,0,1-0.2,1.4-0.6
			C63,41.6,62.9,40.5,62.2,39.8z"/>
		<path d="M58,44.4c-0.8-0.7-1.9-0.6-2.6,0.1c-0.7,0.8-0.6,1.9,0.1,2.6c0.4,0.3,0.8,0.5,1.2,0.5c0.5,0,1-0.2,1.4-0.6
			C58.8,46.3,58.8,45.1,58,44.4z"/>
		<path d="M53.9,49.1c-0.8-0.7-1.9-0.6-2.6,0.1c-0.7,0.8-0.6,1.9,0.1,2.6c0.4,0.3,0.8,0.5,1.2,0.5c0.5,0,1-0.2,1.4-0.6
			C54.7,50.9,54.6,49.7,53.9,49.1z"/>
	</g>
</g>
</svg>
