<?xml version="1.0" encoding="utf-8"?>
<!-- Generator: Adobe Illustrator 19.1.0, SVG Export Plug-In . SVG Version: 6.00 Build 0)  -->
<svg version="1.1" xmlns="http://www.w3.org/2000/svg" xmlns:xlink="http://www.w3.org/1999/xlink" x="0px" y="0px"
	 viewBox="0 0 100 100" style="enable-background:new 0 0 100 100;" xml:space="preserve">
<g id="Layer_1">
	<g>
		<path d="M61.6,94.8H17.5C10.6,94.8,5,89.2,5,82.3V17.7c0-6.9,5.6-12.5,12.5-12.5h26.3c3.4,0,6.7,1.4,9.1,3.9L70.6,28
			c2.2,2.3,3.4,5.4,3.4,8.6v6.6c0,2-1.7,3.7-3.7,3.7s-3.7-1.7-3.7-3.7v-6.6c0-1.3-0.5-2.5-1.4-3.5L47.4,14.2c-1-1-2.3-1.6-3.7-1.6
			H17.5c-2.8,0-5.1,2.3-5.1,5.1v64.6c0,2.8,2.3,5.1,5.1,5.1h44.1c2.8,0,5.1-2.3,5.1-5.1v-0.9c0-2,1.7-3.7,3.7-3.7s3.7,1.7,3.7,3.7
			v0.9C74,89.2,68.4,94.8,61.6,94.8z"/>
		<path d="M26.6,63c0.8-0.6,1.9-0.7,2.8-0.1c0.9,0.6,2.2,1.1,4,1.2c3.8,0.1,10.5-2,20.4-13.1c0.9-1,2.4-1.1,3.5-0.2
			c0.9,0.8,1.1,2.2,0.4,3.2c-2,3.3-3.9,6.9-4.9,9.3c0,0,0.1-0.1,0.1-0.1c0.1,0,0.1-0.1,0.2-0.1c4-2.3,10.1-6.4,11.4-8.1
			c0.6-0.8,1.7-1.2,2.7-0.9c1.6,0.5,2.2,2.3,1.4,3.6c-1.9,3.2-3.4,7.2-3.3,8.6c0.2,0,0.5,0,1-0.2c2.7-0.7,4-1.6,5.2-2.4
			c1.2-0.9,2.6-1.8,4.9-1.5c1.7,0.2,3.7,1.2,7.1,3.5c0.1,0,0.1,0,0.1,0.1c0.4,0.3,3.7,2.5,7.6-0.2c1.2-0.8,2.8-0.5,3.5,0.7
			c0.7,1.1,0.3,2.6-0.8,3.4c-2.3,1.6-4.6,2.1-6.7,2.1c-2.9,0-5.3-1.1-6.6-2c-1-0.7-3.8-2.5-5-2.7c-0.2,0-0.3,0-1.4,0.7
			C73,68.8,71,70.2,67.4,71c-3.5,0.9-5.3-0.3-6.1-1.5c-0.9-1.3-1.2-3-0.7-5.3c-2.1,1.4-4.1,2.6-4.9,3c-1.7,1.2-5.2,3.6-7.5,1.4
			c-1.2-1.1-1.4-2.6-0.7-5.1c-5.2,3.8-10,5.6-14.4,5.4c-2.8-0.1-4.9-1.1-6.3-2C25.3,66.1,25.3,64,26.6,63L26.6,63z"/>
	</g>
</g>
<g id="Layer_2">
</g>
</svg>
