<?xml version="1.0" encoding="utf-8"?>
<!-- Generator: Adobe Illustrator 19.1.0, SVG Export Plug-In . SVG Version: 6.00 Build 0)  -->
<svg version="1.1" xmlns="http://www.w3.org/2000/svg" xmlns:xlink="http://www.w3.org/1999/xlink" x="0px" y="0px"
	 viewBox="0 0 100 100" style="enable-background:new 0 0 100 100;" xml:space="preserve">
<g id="Layer_1">
	<g>
		<path d="M61.6,38.5h13.2l1.9,5.2h7.4L72.4,12.9h-8.2L52.2,43.8h7.4L61.6,38.5z M68.2,19.5L73,32.8h-9.6L68.2,19.5z"/>
		<polygon points="79.7,61 79.7,55.8 56.5,55.8 56.5,61.6 71.1,61.6 56.5,81.3 56.5,86.6 80,86.6 80,80.8 65.1,80.8 		"/>
		<path d="M31.3,16.3c0-1.7-1.4-3.1-3.1-3.1s-3.1,1.4-3.1,3.1v49.3h-9.3l12.4,21.5l12.4-21.5h-9.3V16.3z"/>
	</g>
</g>
<g id="Layer_2">
</g>
</svg>
