<?xml version="1.0" encoding="utf-8"?>
<!-- Generator: Adobe Illustrator 19.1.0, SVG Export Plug-In . SVG Version: 6.00 Build 0)  -->
<svg version="1.1" xmlns="http://www.w3.org/2000/svg" xmlns:xlink="http://www.w3.org/1999/xlink" x="0px" y="0px"
	 viewBox="0 0 100 100" style="enable-background:new 0 0 100 100;" xml:space="preserve">
<g id="Layer_1">
	<g>
		<path d="M59,67.9c-4.8,0-9.6-1.8-13.3-5.5l-6.1-6.1c-1.5-1.5-1.5-3.9,0-5.3c1.5-1.5,3.9-1.5,5.3,0L51,57c4.4,4.4,11.5,4.4,15.9,0
			l17.2-17.2c4.4-4.4,4.4-11.5,0-15.9l-4.4-4.4c-2.1-2.1-4.9-3.3-8-3.3c-3,0-5.8,1.2-8,3.3l-9.2,9.2c-1.5,1.5-3.9,1.5-5.3,0
			c-1.5-1.5-1.5-3.9,0-5.3l9.2-9.2c3.6-3.6,8.3-5.5,13.3-5.5c5,0,9.7,2,13.3,5.5l4.4,4.4c7.3,7.3,7.3,19.3,0,26.6L72.3,62.4
			C68.6,66,63.8,67.9,59,67.9z"/>
		<path d="M28.2,91.4c-4.8,0-9.6-1.8-13.3-5.5l-4.4-4.4C7,77.9,5,73.2,5,68.2c0-5,2-9.7,5.5-13.3l17.2-17.2c7.3-7.3,19.3-7.3,26.6,0
			l6.1,6.1c1.5,1.5,1.5,3.9,0,5.3c-1.5,1.5-3.9,1.5-5.3,0L49,43c-4.4-4.4-11.5-4.4-15.9,0L15.8,60.2c-2.1,2.1-3.3,4.9-3.3,8
			c0,3,1.2,5.8,3.3,8l4.4,4.4c4.4,4.4,11.5,4.4,15.9,0l9.2-9.2c1.5-1.5,3.9-1.5,5.3,0c1.5,1.5,1.5,3.9,0,5.3l-9.2,9.2
			C37.8,89.5,33,91.4,28.2,91.4z"/>
	</g>
</g>
<g id="Layer_2">
</g>
</svg>
