<?xml version="1.0" encoding="utf-8"?>
<!-- Generator: Adobe Illustrator 19.1.0, SVG Export Plug-In . SVG Version: 6.00 Build 0)  -->
<svg version="1.1" xmlns="http://www.w3.org/2000/svg" xmlns:xlink="http://www.w3.org/1999/xlink" x="0px" y="0px"
	 viewBox="0 0 100 100" style="enable-background:new 0 0 100 100;" xml:space="preserve">
<g id="Layer_1">
</g>
<g id="Layer_2">
	<g>
		<path d="M53.4,39.8c-6.7,0-12.5,3.8-15.4,9.3c-2.9-5.5-8.7-9.3-15.4-9.3c-3.9,0-7.6,1.3-10.5,3.5V28.6h0c0-1.9-1.6-3.4-3.5-3.4
			S5,26.7,5,28.6h0v29h0c0.2,9.5,7.9,17.2,17.5,17.2c6.7,0,12.5-3.8,15.4-9.3c2.9,5.5,8.7,9.3,15.4,9.3c9.7,0,17.5-7.8,17.5-17.5
			C70.8,47.7,63,39.8,53.4,39.8z M22.5,67.8c-5.8,0-10.5-4.7-10.5-10.5c0-5.8,4.7-10.5,10.5-10.5c5.8,0,10.5,4.7,10.5,10.5
			C33,63.1,28.3,67.8,22.5,67.8z M53.4,67.8c-5.8,0-10.5-4.7-10.5-10.5c0-5.8,4.7-10.5,10.5-10.5c5.8,0,10.5,4.7,10.5,10.5
			C63.8,63.1,59.1,67.8,53.4,67.8z"/>
		<path d="M94.3,69.3l-9-12l9-12l0,0c1.1-1.5,0.8-3.7-0.7-4.8c-1.5-1.1-3.7-0.9-4.9,0.6l0,0L81,51.5l-7.7-10.3l0,0
			c-1.2-1.5-3.3-1.8-4.9-0.6c-1.5,1.1-1.8,3.3-0.7,4.8l0,0l9,12l-9,12l0,0c-1.1,1.5-0.8,3.7,0.7,4.8c1.5,1.1,3.7,0.9,4.9-0.6l0,0
			L81,63.2l7.7,10.3l0,0c1.2,1.5,3.3,1.8,4.9,0.6C95.1,73,95.4,70.8,94.3,69.3L94.3,69.3z"/>
	</g>
</g>
</svg>
