<?xml version="1.0" encoding="utf-8"?>
<!-- Generator: Adobe Illustrator 19.1.0, SVG Export Plug-In . SVG Version: 6.00 Build 0)  -->
<svg version="1.1" xmlns="http://www.w3.org/2000/svg" xmlns:xlink="http://www.w3.org/1999/xlink" x="0px" y="0px"
	 viewBox="0 0 100 100" style="enable-background:new 0 0 100 100;" xml:space="preserve">
<g id="Layer_1">
	<g>
		<path d="M50,11.2c10.4,0,20.1,4,27.4,11.3s11.3,17,11.3,27.4s-4,20.1-11.3,27.4S60.4,88.8,50,88.8s-20.1-4-27.4-11.3
			S11.2,60.4,11.2,50s4-20.1,11.3-27.4S39.6,11.2,50,11.2 M50,5C25.1,5,5,25.1,5,50s20.1,45,45,45s45-20.1,45-45S74.9,5,50,5L50,5z"
			/>
		<g>
			<path d="M37.2,57.9c0-4.4,3.6-7.6,7.8-9c-3.9-1.2-7.2-3.9-7.2-8.2c0-6.5,6.6-9.1,12.8-9.1s12.8,2.7,12.8,9.1c0,4.4-3.3,7-7.2,8.2
				c4.2,1.4,7.8,4.6,7.8,9c0,6.2-6.2,9.6-13.3,9.6C43.4,67.5,37.2,64.2,37.2,57.9z M57.7,57.1c0-3.6-5-5.2-7.1-5.5
				c-2.2,0.3-7.1,1.9-7.1,5.5c0,3.1,3.2,4.9,7.1,4.9C54.4,62.1,57.7,60.2,57.7,57.1z M57.1,41.7c0-3-2.8-4.6-6.6-4.6
				S44,38.7,44,41.7c0,3.2,4.5,4.5,6.6,4.8C52.7,46.1,57.1,44.9,57.1,41.7z"/>
		</g>
	</g>
</g>
<g id="Layer_2">
</g>
</svg>
