<?xml version="1.0" encoding="utf-8"?>
<!-- Generator: Adobe Illustrator 19.1.0, SVG Export Plug-In . SVG Version: 6.00 Build 0)  -->
<svg version="1.1" xmlns="http://www.w3.org/2000/svg" xmlns:xlink="http://www.w3.org/1999/xlink" x="0px" y="0px"
	 viewBox="0 0 100 100" style="enable-background:new 0 0 100 100;" xml:space="preserve">
<g id="Layer_1">
</g>
<g id="Layer_2">
	<g>
		<path d="M8.7,5C8.3,5,8,5.3,8,5.6v88.7C8,94.7,8.3,95,8.7,95c0.3,0,0.6-0.3,0.6-0.6V5.6C9.3,5.3,9,5,8.7,5z"/>
		<path d="M89.9,16.1H18.7c-1.2,0-2.1,0.9-2.1,2.1v10.9c0,1.2,0.9,2.1,2.1,2.1h71.2c1.2,0,2.1-0.9,2.1-2.1V18.2
			C92,17,91,16.1,89.9,16.1z"/>
		<path d="M67.3,41.8H18.7c-1.5,0-2.7,1.2-2.7,2.7v10.9c0,1.5,1.2,2.7,2.7,2.7h48.6c1.5,0,2.7-1.2,2.7-2.7V44.6
			C70,43.1,68.8,41.8,67.3,41.8z M68.7,55.4c0,0.8-0.7,1.5-1.5,1.5H18.7c-0.8,0-1.5-0.7-1.5-1.5V44.6c0-0.8,0.7-1.5,1.5-1.5h48.6
			c0.8,0,1.5,0.7,1.5,1.5V55.4z"/>
		<path d="M44.7,68.2h-26c-1.5,0-2.7,1.2-2.7,2.7v10.9c0,1.5,1.2,2.7,2.7,2.7h26c1.5,0,2.7-1.2,2.7-2.7V70.9
			C47.4,69.4,46.2,68.2,44.7,68.2z M46.1,81.8c0,0.8-0.7,1.5-1.5,1.5h-26c-0.8,0-1.5-0.7-1.5-1.5V70.9c0-0.8,0.7-1.5,1.5-1.5h26
			c0.8,0,1.5,0.7,1.5,1.5V81.8z"/>
	</g>
</g>
</svg>
