<?xml version="1.0" encoding="utf-8"?>
<!-- Generator: Adobe Illustrator 19.1.0, SVG Export Plug-In . SVG Version: 6.00 Build 0)  -->
<svg version="1.1" xmlns="http://www.w3.org/2000/svg" xmlns:xlink="http://www.w3.org/1999/xlink" x="0px" y="0px"
	 viewBox="0 0 100 100" style="enable-background:new 0 0 100 100;" xml:space="preserve">
<g id="Layer_1">
	<g>
		<path d="M74,22.2c-2.1,0-3.8,1.7-3.8,3.8v51.5c0,2.1,1.7,3.8,3.8,3.8c2.1,0,3.8-1.7,3.8-3.8V26C77.8,23.9,76.1,22.2,74,22.2z"/>
		<path d="M58,61.4c-2.1,0-3.8,1.7-3.8,3.8v12.2c0,2.1,1.7,3.8,3.8,3.8c2.1,0,3.8-1.7,3.8-3.8V65.3C61.8,63.1,60.1,61.4,58,61.4z"/>
		<path d="M42,37c-2.1,0-3.8,1.7-3.8,3.8v36.6c0,2.1,1.7,3.8,3.8,3.8c2.1,0,3.8-1.7,3.8-3.8V40.8C45.8,38.7,44.1,37,42,37z"/>
		<path d="M26,52.7c-2.1,0-3.8,1.7-3.8,3.8v21c0,2.1,1.7,3.8,3.8,3.8s3.8-1.7,3.8-3.8v-21C29.8,54.4,28.1,52.7,26,52.7z"/>
		<path d="M84.3,5H15.7C9.8,5,5,9.8,5,15.7v68.6C5,90.2,9.8,95,15.7,95h68.6C90.2,95,95,90.2,95,84.3V15.7C95,9.8,90.2,5,84.3,5z
			 M87.4,84.3c0,1.7-1.4,3.1-3.1,3.1H15.7c-1.7,0-3.1-1.4-3.1-3.1V15.7c0-1.7,1.4-3.1,3.1-3.1h68.6c1.7,0,3.1,1.4,3.1,3.1V84.3z"/>
	</g>
</g>
<g id="Layer_2">
</g>
</svg>
