<?xml version="1.0" encoding="utf-8"?>
<!-- Generator: Adobe Illustrator 19.1.0, SVG Export Plug-In . SVG Version: 6.00 Build 0)  -->
<svg version="1.1" xmlns="http://www.w3.org/2000/svg" xmlns:xlink="http://www.w3.org/1999/xlink" x="0px" y="0px"
	 viewBox="0 0 100 100" style="enable-background:new 0 0 100 100;" xml:space="preserve">
<g id="Layer_1">
	<path d="M95,50c0-12.3-4.6-23.7-13-32.1C73.7,9.6,62.3,5,50,5c0,0,0,0,0,0c0,0,0,0,0,0c0,0,0,0,0,0c-12.3,0-23.7,4.6-32,13
		C9.6,26.3,5,37.7,5,50c0,12.3,4.6,23.7,12.9,32C26.3,90.4,37.7,95,50,95c0,0,0,0,0,0c0,0,0,0,0,0c0,0,0,0,0,0
		c12.3,0,23.7-4.6,32-12.9C90.4,73.7,95,62.3,95,50z M11,53.5h15.1C26.3,58.9,27,64,28,68.7H15.3C12.9,64.1,11.4,58.9,11,53.5z
		 M89.1,47.7H73.9c-0.1-5.3-0.7-10.5-1.7-15.2h13C87.5,37.1,88.8,42.3,89.1,47.7z M68.1,47.7H52.3V32.5h13.9
		C67.3,37.1,67.9,42.3,68.1,47.7z M52.3,26.6V11.2c3.7,1,7.2,4.6,10,10.2c0.8,1.6,1.5,3.4,2.2,5.3H52.3z M46.5,11.6v15.1H35.4
		c0.6-1.9,1.4-3.6,2.2-5.3C40.1,16.3,43.2,13,46.5,11.6z M46.5,32.5v15.2H31.9c0.1-5.4,0.8-10.5,1.8-15.2H46.5z M26.1,47.7H10.9
		c0.3-5.4,1.6-10.5,3.8-15.2h13C26.8,37.2,26.2,42.3,26.1,47.7z M32,53.5h14.5v15.2H34C32.9,64.1,32.2,58.9,32,53.5z M46.5,74.5
		v13.9c-3.3-1.4-6.4-4.7-8.9-9.7c-0.6-1.3-1.2-2.7-1.8-4.1H46.5z M52.3,88.8V74.5h11.8c-0.5,1.5-1.1,2.8-1.8,4.1
		C59.6,84.3,56.1,87.8,52.3,88.8z M52.3,68.7V53.5H68c-0.2,5.4-0.9,10.6-2.1,15.2H52.3z M73.9,53.5H89c-0.4,5.4-1.9,10.6-4.3,15.2
		H72C73,64,73.7,58.9,73.9,53.5z M81.7,26.6h-11c-0.9-2.8-1.9-5.5-3.1-7.9c-1-2-2.1-3.7-3.2-5.3c5.1,1.9,9.7,4.8,13.5,8.7
		C79.3,23.5,80.6,25,81.7,26.6z M35.6,13.4c-1.2,1.6-2.2,3.4-3.2,5.3c-1.2,2.4-2.2,5-3.1,7.9H18.2c1.2-1.6,2.4-3.1,3.8-4.5
		C25.9,18.2,30.5,15.3,35.6,13.4z M19.1,74.5h10.6c0.8,2.4,1.7,4.7,2.8,6.8c1,2,2.1,3.7,3.2,5.3c-5.1-1.9-9.7-4.8-13.5-8.7
		C21,76.9,20,75.7,19.1,74.5z M64.4,86.6c1.1-1.6,2.2-3.3,3.2-5.3c1-2.1,2-4.3,2.8-6.8h10.5c-0.9,1.2-1.9,2.3-3,3.4
		C74,81.8,69.5,84.7,64.4,86.6z"/>
</g>
<g id="Layer_2">
</g>
</svg>
