<?xml version="1.0" encoding="utf-8"?>
<!-- Generator: Adobe Illustrator 19.1.0, SVG Export Plug-In . SVG Version: 6.00 Build 0)  -->
<svg version="1.1" xmlns="http://www.w3.org/2000/svg" xmlns:xlink="http://www.w3.org/1999/xlink" x="0px" y="0px"
	 viewBox="0 0 100 100" style="enable-background:new 0 0 100 100;" xml:space="preserve">
<g id="Layer_1">
	<path d="M93.7,39L52.2,5.8c-1.3-1-3.1-1-4.3,0L6.3,39c-1.5,1.2-1.7,3.4-0.5,4.9c1.2,1.5,3.4,1.7,4.9,0.5l2.7-2.1v49.3
		c0,1.9,1.5,3.5,3.5,3.5h20.8c1.9,0,3.5-1.5,3.5-3.5V65.9h18v25.6c0,1.9,1.5,3.5,3.5,3.5h20.8c1.9,0,3.5-1.5,3.5-3.5V42.2l2.7,2.1
		c0.6,0.5,1.4,0.8,2.2,0.8c1,0,2-0.4,2.7-1.3C95.4,42.4,95.2,40.2,93.7,39z M79.8,88.1H65.9V62.5c0-1.9-1.5-3.5-3.5-3.5H37.5
		c-1.9,0-3.5,1.5-3.5,3.5v25.6H20.2V36.7L50,12.9l29.8,23.8V88.1z"/>
</g>
<g id="Layer_2">
</g>
</svg>
