<?xml version="1.0" encoding="utf-8"?>
<!-- Generator: Adobe Illustrator 19.1.0, SVG Export Plug-In . SVG Version: 6.00 Build 0)  -->
<svg version="1.1" xmlns="http://www.w3.org/2000/svg" xmlns:xlink="http://www.w3.org/1999/xlink" x="0px" y="0px"
	 viewBox="0 0 100 100" style="enable-background:new 0 0 100 100;" xml:space="preserve">
<g id="Layer_1">
	<path d="M94.8,39.6c-0.4-1.2-1.4-2.1-2.7-2.2l-27.1-3.9L53,8.9C52.4,7.8,51.3,7,50,7c-1.3,0-2.4,0.7-3,1.8L34.9,33.4L7.8,37.4
		c-1.2,0.2-2.3,1-2.7,2.2C4.8,40.8,5.1,42.1,6,43l19.6,19.1l-4.6,27c-0.2,1.2,0.3,2.5,1.3,3.2c1,0.7,2.4,0.8,3.5,0.3L50,79.8
		l24.2,12.7c0.5,0.3,1,0.4,1.5,0.4c0.7,0,1.4-0.2,1.9-0.6c1-0.7,1.5-2,1.3-3.2l-4.6-27L94,43C94.9,42.1,95.2,40.8,94.8,39.6z"/>
</g>
<g id="Layer_2">
</g>
</svg>
