<?xml version="1.0" encoding="utf-8"?>
<!-- Generator: Adobe Illustrator 19.1.0, SVG Export Plug-In . SVG Version: 6.00 Build 0)  -->
<svg version="1.1" xmlns="http://www.w3.org/2000/svg" xmlns:xlink="http://www.w3.org/1999/xlink" x="0px" y="0px"
	 viewBox="0 0 100 100" style="enable-background:new 0 0 100 100;" xml:space="preserve">
<g id="Layer_1">
	<g>
		<path d="M91.4,63.2c-2,0-3.6,1.6-3.6,3.6v19.5c0,0.4-0.3,0.7-0.7,0.7H13c-0.4,0-0.7-0.3-0.7-0.7V66.9c0-2-1.6-3.6-3.6-3.6
			S5,64.8,5,66.9v19.5c0,4.4,3.6,8,8,8H87c4.4,0,8-3.6,8-8V66.9C95,64.8,93.4,63.2,91.4,63.2z"/>
		<path d="M46.4,73.4c0,2,1.6,3.6,3.6,3.6s3.6-1.6,3.6-3.6V30.9h10.9L50,5.7L35.4,30.9h10.9V73.4z"/>
	</g>
</g>
<g id="Layer_2">
</g>
</svg>
