<?xml version="1.0" encoding="utf-8"?>
<!-- Generator: Adobe Illustrator 19.1.0, SVG Export Plug-In . SVG Version: 6.00 Build 0)  -->
<svg version="1.1" xmlns="http://www.w3.org/2000/svg" xmlns:xlink="http://www.w3.org/1999/xlink" x="0px" y="0px"
	 viewBox="0 0 100 100" style="enable-background:new 0 0 100 100;" xml:space="preserve">
<g id="Layer_1">
</g>
<g id="Layer_2">
	<g>
		<polygon points="67.9,38 53,38 67.6,18.2 67.6,12.9 44.4,12.9 44.4,18.7 59,18.7 44.4,38.4 44.4,43.8 67.9,43.8 		"/>
		<polygon points="86.7,37.3 79.3,44.8 82.2,47.8 86.1,43.8 86.1,60.8 91.1,60.8 91.1,37.3 		"/>
		<path d="M51.8,55.8L40,86.6h7.4l1.9-5.2h13.2l1.9,5.2H72L60.1,55.8H51.8z M51.2,75.6L56,62.3l4.8,13.3H51.2z"/>
		<path d="M24.4,16.3c0-1.7-1.4-3.1-3.1-3.1s-3.1,1.4-3.1,3.1v49.3H8.9l12.4,21.5l12.4-21.5h-9.3V16.3z"/>
	</g>
</g>
</svg>
