<?xml version="1.0" encoding="utf-8"?>
<!-- Generator: Adobe Illustrator 19.1.0, SVG Export Plug-In . SVG Version: 6.00 Build 0)  -->
<svg version="1.1" xmlns="http://www.w3.org/2000/svg" xmlns:xlink="http://www.w3.org/1999/xlink" x="0px" y="0px"
	 viewBox="0 0 100 100" style="enable-background:new 0 0 100 100;" xml:space="preserve">
<g id="Layer_1">
	<g>
		<path d="M76.6,41c-1.5,0-2.6-1.4-2.6-2.8V26H61.8c-1.4,0-2.8-1.1-2.8-2.6v-1c0-1.5,1.4-2.4,2.8-2.4H74V7.6C74,6.2,75.1,5,76.6,5h1
			C79.1,5,80,6.2,80,7.6V20h12.4c1.4,0,2.6,0.9,2.6,2.4v1c0,1.5-1.2,2.6-2.6,2.6H80v12.2c0,1.4-0.9,2.8-2.4,2.8H76.6z"/>
		<path d="M70.7,95H14.4C9.2,95,5,90.8,5,85.6V29.3c0-5.2,4.2-9.4,9.4-9.4h29.2c2,0,3.6,1.6,3.6,3.6s-1.6,3.6-3.6,3.6H14.4
			c-1.2,0-2.2,1-2.2,2.2v56.3c0,1.2,1,2.2,2.2,2.2h56.3c1.2,0,2.2-1,2.2-2.2V56.3c0-2,1.6-3.6,3.6-3.6c2,0,3.6,1.6,3.6,3.6v29.2
			C80.2,90.8,75.9,95,70.7,95z"/>
	</g>
</g>
<g id="Layer_2">
</g>
</svg>
