<?xml version="1.0" encoding="utf-8"?>
<!-- Generator: Adobe Illustrator 19.1.0, SVG Export Plug-In . SVG Version: 6.00 Build 0)  -->
<svg version="1.1" xmlns="http://www.w3.org/2000/svg" xmlns:xlink="http://www.w3.org/1999/xlink" x="0px" y="0px"
	 viewBox="0 0 100 100" style="enable-background:new 0 0 100 100;" xml:space="preserve">
<g id="Layer_1">
	<path d="M75.8,93c-0.5,0-1-0.1-1.5-0.4L50,79.8L25.8,92.6c-1.1,0.6-2.5,0.5-3.5-0.3c-1-0.7-1.5-2-1.3-3.2l4.6-27L6,43
		c-0.9-0.9-1.2-2.2-0.8-3.4c0.4-1.2,1.4-2.1,2.7-2.2l27.1-3.9L47,8.9C47.6,7.8,48.7,7,50,7c1.3,0,2.4,0.7,3,1.8l12.1,24.6l27.1,3.9
		c1.2,0.2,2.3,1,2.7,2.2c0.4,1.2,0.1,2.5-0.8,3.4L74.4,62.1l4.6,27c0.2,1.2-0.3,2.5-1.3,3.2C77.1,92.7,76.5,93,75.8,93z M15.4,42.9
		l16.1,15.7c0.8,0.8,1.1,1.8,0.9,2.9l-3.8,22.1l19.9-10.4c1-0.5,2.1-0.5,3.1,0l19.9,10.4l-3.8-22.1c-0.2-1.1,0.2-2.2,0.9-2.9
		l16.1-15.7l-22.2-3.2c-1.1-0.2-2-0.8-2.5-1.8L50,17.8l-9.9,20.1c-0.5,1-1.4,1.6-2.5,1.8L15.4,42.9z"/>
</g>
<g id="Layer_2">
</g>
</svg>
