<?xml version="1.0" encoding="utf-8"?>
<!-- Generator: Adobe Illustrator 19.1.0, SVG Export Plug-In . SVG Version: 6.00 Build 0)  -->
<svg version="1.1" xmlns="http://www.w3.org/2000/svg" xmlns:xlink="http://www.w3.org/1999/xlink" x="0px" y="0px"
	 viewBox="0 0 100 100" style="enable-background:new 0 0 100 100;" xml:space="preserve">
<g id="Layer_1">
	<g>
		<path d="M90.8,24H9.2C6.9,24,5,21.8,5,19.5S6.9,15,9.2,15h81.5c2.3,0,4.2,2.2,4.2,4.5S93.1,24,90.8,24z"/>
		<path d="M90.8,54H9.2C6.9,54,5,52.3,5,50s1.9-4,4.2-4h81.5c2.3,0,4.2,1.7,4.2,4S93.1,54,90.8,54z"/>
		<path d="M90.8,85H9.2C6.9,85,5,82.8,5,80.5S6.9,76,9.2,76h81.5c2.3,0,4.2,2.2,4.2,4.5S93.1,85,90.8,85z"/>
	</g>
</g>
<g id="Layer_2">
</g>
</svg>
