<?xml version="1.0" encoding="utf-8"?>
<!-- Generator: Adobe Illustrator 19.1.0, SVG Export Plug-In . SVG Version: 6.00 Build 0)  -->
<svg version="1.1" xmlns="http://www.w3.org/2000/svg" xmlns:xlink="http://www.w3.org/1999/xlink" x="0px" y="0px"
	 viewBox="0 0 100 100" style="enable-background:new 0 0 100 100;" xml:space="preserve">
<g id="Layer_1">
	<g>
		<path d="M51.6,18.5l-3.9,7.4L71.3,25L58.7,5l-4.2,7.9c-11.6-2.1-23.7,1.5-32.1,9.9c-5.4,5.4-8.9,12.3-10.1,19.9
			c-1.1,7.4,0,14.9,3.3,21.6c0.5,1,1.6,1.6,2.7,1.6c0.4,0,0.9-0.1,1.3-0.3c1.5-0.7,2.1-2.5,1.3-4c-5.8-11.6-3.5-25.6,5.7-34.7
			C33.2,20.5,42.5,17.4,51.6,18.5z"/>
		<path d="M84.7,36.3c-0.7-1.5-2.5-2.1-3.9-1.4c-1.5,0.7-2.1,2.5-1.4,3.9c5.4,11.5,3,25.2-5.9,34.2c-6.6,6.6-15.9,9.7-25,8.6
			l3.9-7.4L28.7,75l12.6,20l4.2-7.9c2.2,0.4,4.4,0.6,6.6,0.6c9.5,0,18.7-3.7,25.5-10.5C88.3,66.4,91.1,50,84.7,36.3z"/>
	</g>
</g>
<g id="Layer_2">
</g>
</svg>
