<?xml version="1.0" encoding="utf-8"?>
<!-- Generator: Adobe Illustrator 19.1.0, SVG Export Plug-In . SVG Version: 6.00 Build 0)  -->
<svg version="1.1" xmlns="http://www.w3.org/2000/svg" xmlns:xlink="http://www.w3.org/1999/xlink" x="0px" y="0px"
	 viewBox="0 0 100 100" style="enable-background:new 0 0 100 100;" xml:space="preserve">
<g id="Layer_1">
	<g>
		<path d="M79.7,80.1c2.3,0,4.1-1.8,4.1-4.1V20.3c0-2.3-1.8-4.1-4.1-4.1s-4.1,1.8-4.1,4.1V76C75.6,78.3,77.4,80.1,79.7,80.1z"/>
		<path d="M62.4,80.1c2.3,0,4.1-1.8,4.1-4.1V62.8c0-2.3-1.8-4.1-4.1-4.1s-4.1,1.8-4.1,4.1V76C58.3,78.3,60.1,80.1,62.4,80.1z"/>
		<path d="M45,80.1c2.3,0,4.1-1.8,4.1-4.1V36.4c0-2.3-1.8-4.1-4.1-4.1s-4.1,1.8-4.1,4.1V76C40.9,78.3,42.8,80.1,45,80.1z"/>
		<path d="M27.7,80.1c2.3,0,4.1-1.8,4.1-4.1V53.3c0-2.3-1.8-4.1-4.1-4.1s-4.1,1.8-4.1,4.1V76C23.6,78.3,25.4,80.1,27.7,80.1z"/>
		<path d="M90.9,86.7H16.6c-1.8,0-3.3-1.5-3.3-3.3V9.1c0-2.3-1.8-4.1-4.1-4.1S5,6.8,5,9.1v74.3C5,89.8,10.2,95,16.6,95h74.3
			c2.3,0,4.1-1.8,4.1-4.1S93.2,86.7,90.9,86.7z"/>
	</g>
</g>
<g id="Layer_2">
</g>
</svg>
