<?xml version="1.0" encoding="utf-8"?>
<!-- Generator: Adobe Illustrator 19.1.0, SVG Export Plug-In . SVG Version: 6.00 Build 0)  -->
<svg version="1.1" xmlns="http://www.w3.org/2000/svg" xmlns:xlink="http://www.w3.org/1999/xlink" x="0px" y="0px"
	 viewBox="0 0 100 100" style="enable-background:new 0 0 100 100;" xml:space="preserve">
<g id="Layer_1">
	<path d="M55.4,50.1l38.5-38.5c1.5-1.5,1.5-4,0-5.5c-1.5-1.5-4-1.5-5.5,0L49.9,44.6L11.6,6.3c-1.5-1.5-4-1.5-5.5,0
		c-1.5,1.5-1.5,4,0,5.5l38.3,38.3L6.3,88.2c-1.5,1.5-1.5,4,0,5.5c0.8,0.8,1.7,1.1,2.7,1.1s2-0.4,2.7-1.1l38.1-38.1l38.3,38.3
		C89,94.6,90,95,90.9,95s2-0.4,2.7-1.1c1.5-1.5,1.5-4,0-5.5L55.4,50.1z"/>
</g>
<g id="Layer_2">
</g>
</svg>
