<?xml version="1.0" encoding="utf-8"?>
<!-- Generator: Adobe Illustrator 19.1.0, SVG Export Plug-In . SVG Version: 6.00 Build 0)  -->
<svg version="1.1" xmlns="http://www.w3.org/2000/svg" xmlns:xlink="http://www.w3.org/1999/xlink" x="0px" y="0px"
	 viewBox="0 0 100 100" style="enable-background:new 0 0 100 100;" xml:space="preserve">
<g id="Layer_1">
</g>
<g id="Layer_2">
	<g>
		<path d="M20.9,84.8h58.6c1.1,0,2.1-0.9,2-2.1l-0.3-57.5c0-2.2-2.9-2.8-3.9-0.9L59.4,60.1c-0.5,1.1-1.9,1.5-2.9,0.8L37.6,49.6
			c-1-0.6-2.3-0.2-2.9,0.8L19,81.8C18.4,83.2,19.3,84.8,20.9,84.8z"/>
		<path d="M94.4,93.8H7.7c-0.8,0-1.4-0.6-1.4-1.4V5.6C6.2,5.3,6,5,5.6,5C5.3,5,5,5.3,5,5.6v86.7C5,93.8,6.2,95,7.7,95h86.7
			c0.3,0,0.6-0.3,0.6-0.6C95,94,94.7,93.8,94.4,93.8z"/>
	</g>
</g>
</svg>
