<?xml version="1.0" encoding="utf-8"?>
<!-- Generator: Adobe Illustrator 19.1.0, SVG Export Plug-In . SVG Version: 6.00 Build 0)  -->
<svg version="1.1" xmlns="http://www.w3.org/2000/svg" xmlns:xlink="http://www.w3.org/1999/xlink" x="0px" y="0px"
	 viewBox="0 0 100 100" style="enable-background:new 0 0 100 100;" xml:space="preserve">
<g id="Layer_1">
	<path d="M40.5,93.2c-2.4,0-4.8-1-6.5-2.7l-28-28c-1.4-1.4-1.4-3.5,0-4.9c1.4-1.4,3.5-1.4,4.9,0l28,28c0.7,0.7,1.5,0.7,1.9,0.7
		c0.4-0.1,1.2-0.3,1.7-1.1l46-76.7c1-1.6,3.1-2.2,4.7-1.2c1.6,1,2.2,3.1,1.2,4.7l-46,76.7c-1.5,2.5-3.9,4.1-6.8,4.4
		C41.3,93.2,40.9,93.2,40.5,93.2z"/>
</g>
<g id="Layer_2">
</g>
</svg>
