<?xml version="1.0" encoding="utf-8"?>
<!-- Generator: Adobe Illustrator 19.1.0, SVG Export Plug-In . SVG Version: 6.00 Build 0)  -->
<svg version="1.1" xmlns="http://www.w3.org/2000/svg" xmlns:xlink="http://www.w3.org/1999/xlink" x="0px" y="0px"
	 viewBox="0 0 100 100" style="enable-background:new 0 0 100 100;" xml:space="preserve">
<g id="Layer_1">
	<g>
		<path d="M77.5,38.2h-7.4V25.1C70.1,14,61.1,5,50,5c-11.1,0-20.1,9-20.1,20.1v13.2h-7.4c-5.1,0-9.2,4.1-9.2,9.2v38.3
			c0,5.1,4.1,9.2,9.2,9.2h54.9c5.1,0,9.2-4.1,9.2-9.2V47.5C86.7,42.4,82.6,38.2,77.5,38.2z M36.8,25.1c0-7.3,5.9-13.2,13.2-13.2
			s13.2,5.9,13.2,13.2v13.2H36.8V25.1z M79.8,85.8c0,1.3-1,2.3-2.3,2.3H22.5c-1.3,0-2.3-1-2.3-2.3V47.5c0-1.3,1-2.3,2.3-2.3h10.8
			h33.2h10.8c1.3,0,2.3,1,2.3,2.3V85.8z"/>
		<path d="M50,50.7c-5.3,0-9.7,4.3-9.7,9.7c0,4.1,2.6,7.7,6.2,9.1v9.6c0,1.9,1.5,3.5,3.5,3.5s3.5-1.5,3.5-3.5v-9.6
			c3.6-1.4,6.2-4.9,6.2-9.1C59.7,55,55.3,50.7,50,50.7z M50,57.6c1.5,0,2.8,1.2,2.8,2.8c0,1.5-1.2,2.8-2.8,2.8
			c-1.5,0-2.8-1.2-2.8-2.8C47.2,58.9,48.5,57.6,50,57.6z"/>
	</g>
</g>
<g id="Layer_2">
</g>
</svg>
