<?xml version="1.0" encoding="utf-8"?>
<!-- Generator: Adobe Illustrator 19.1.0, SVG Export Plug-In . SVG Version: 6.00 Build 0)  -->
<svg version="1.1" xmlns="http://www.w3.org/2000/svg" xmlns:xlink="http://www.w3.org/1999/xlink" x="0px" y="0px"
	 viewBox="0 0 100 100" style="enable-background:new 0 0 100 100;" xml:space="preserve">
<g id="Layer_1">
	<path d="M88,70.1v-8.2c0-4.3-3.5-7.8-7.8-7.8H52.8V42.4h6.2c4.3,0,7.8-3.5,7.8-7.8V16.2c0-4.3-3.5-7.8-7.8-7.8H40.7
		c-4.3,0-7.8,3.5-7.8,7.8v18.4c0,4.3,3.5,7.8,7.8,7.8H47v11.7H19.6c-4.3,0-7.8,3.5-7.8,7.8v8.3C8,70.7,5,73.9,5,77.9v5.9
		c0,4.3,3.5,7.8,7.8,7.8h5.9c4.3,0,7.8-3.5,7.8-7.8v-5.9c0-4.3-3.5-7.8-7.8-7.8h-1v-8.2c0-1.1,0.9-2,2-2H47v10.2
		c-4.3,0-7.8,3.5-7.8,7.8v5.9c0,4.3,3.5,7.8,7.8,7.8h5.9c4.3,0,7.8-3.5,7.8-7.8v-5.9c0-4.3-3.5-7.8-7.8-7.8V60h27.3c1.1,0,2,0.9,2,2
		v8.2h-0.8c-4.3,0-7.8,3.5-7.8,7.8v5.9c0,4.3,3.5,7.8,7.8,7.8h5.9c4.3,0,7.8-3.5,7.8-7.8v-5.9C95,73.9,91.9,70.5,88,70.1z
		 M38.8,34.6V16.2c0-1.1,0.9-2,2-2h18.4c1.1,0,2,0.9,2,2v18.4c0,1.1-0.9,2-2,2H40.7C39.7,36.5,38.8,35.7,38.8,34.6z M20.6,77.9v5.9
		c0,1.1-0.9,2-2,2h-5.9c-1.1,0-2-0.9-2-2v-5.9c0-1.1,0.9-2,2-2h5.9C19.7,76,20.6,76.8,20.6,77.9z M54.8,77.9v5.9c0,1.1-0.9,2-2,2H47
		c-1.1,0-2-0.9-2-2v-5.9c0-1.1,0.9-2,2-2h5.9C53.9,76,54.8,76.8,54.8,77.9z M89.1,83.8c0,1.1-0.9,2-2,2h-5.9c-1.1,0-2-0.9-2-2v-5.9
		c0-1.1,0.9-2,2-2h5.9c1.1,0,2,0.9,2,2V83.8z"/>
</g>
<g id="Layer_2">
</g>
</svg>
