<?xml version="1.0" encoding="utf-8"?>
<!-- Generator: Adobe Illustrator 19.1.0, SVG Export Plug-In . SVG Version: 6.00 Build 0)  -->
<svg version="1.1" xmlns="http://www.w3.org/2000/svg" xmlns:xlink="http://www.w3.org/1999/xlink" x="0px" y="0px"
	 viewBox="0 0 100 100" style="enable-background:new 0 0 100 100;" xml:space="preserve">
<g id="Layer_1">
	<path d="M80.1,95c-0.5,0-1,0-1.5-0.1c-9.5-1-18.7-3.6-27.3-7.7c-8.4-4-15.9-9.4-22.5-16c-6.6-6.6-12-14.1-16-22.5
		C8.7,40.2,6.1,31,5.1,21.5C4.6,17.3,6,13.1,8.9,10c2.9-3.2,6.9-5,11.2-5h8.8c2.1,0,4.1,1.2,5.8,3.6c1,1.4,1.6,2.7,1.7,2.9l0.2,0.4
		l2.9,17.5v0.3c0,1-0.1,4.4-1.5,6.4l-0.2,0.3l-5,5c-2.4,2.4-2.7,6.1-0.8,8.9c4.7,6.9,11.1,13.2,18.4,18.2c2.8,1.9,6.5,1.5,8.9-0.8
		l4.7-4.7c2.2-2.2,5-2.9,7.5-1.9c0.5,0.2,1,0.4,1.4,0.5c5.2,1.2,14.6,1.9,14.6,2l0.5,0l0.5,0.2c1.5,0.7,6.5,3.3,6.5,7.5v8.9
		c0,4.2-1.8,8.2-4.9,11.1C87.3,93.6,83.8,95,80.1,95z M20,11.3c-2.5,0-4.8,1.1-6.5,2.9c-1.7,1.8-2.4,4.2-2.2,6.7
		c0.9,8.8,3.3,17.2,7.2,25.2c3.7,7.7,8.7,14.7,14.8,20.8c6.1,6.1,13.1,11,20.8,14.7c7.9,3.8,16.4,6.2,25.2,7.1
		c2.4,0.2,4.8-0.5,6.6-2.2c1.8-1.6,2.8-4,2.8-6.4v-8.7c-0.3-0.5-1.4-1.3-2.3-1.8c-2.2-0.2-10-0.9-14.9-2c-0.8-0.2-1.6-0.5-2.3-0.7
		c-0.1,0-0.4,0.1-0.8,0.5L63.7,72c-4.5,4.5-11.6,5.2-16.9,1.6c-8-5.5-14.9-12.3-20.1-19.9c-3.6-5.3-2.9-12.4,1.6-16.9l4.4-4.4
		c0.2-0.5,0.3-1.6,0.4-2.5l-2.7-16.1c-0.5-1-1.4-2.2-1.8-2.5H20z"/>
</g>
<g id="Layer_2">
</g>
</svg>
