<?xml version="1.0" encoding="utf-8"?>
<!-- Generator: Adobe Illustrator 19.1.0, SVG Export Plug-In . SVG Version: 6.00 Build 0)  -->
<svg version="1.1" xmlns="http://www.w3.org/2000/svg" xmlns:xlink="http://www.w3.org/1999/xlink" x="0px" y="0px"
	 viewBox="0 0 100 100" style="enable-background:new 0 0 100 100;" xml:space="preserve">
<g id="Layer_1">
	<path d="M91.6,8.4C89.4,6.2,86.5,5,83.4,5c-3.1,0-6,1.2-8.2,3.4l-10,10c-1.7-1-3.7-1.6-5.7-1.6c-3,0-5.8,1.2-8,3.3l-1.5,1.5
		c-1.3,1.3-2.1,3.1-2.1,5c0,1.9,0.7,3.6,2.1,5l1,1L12,71.7c-2,2-3.5,4.6-4.2,7.3L5.1,89.6c-0.4,1.5,0.1,3,1.1,4.1
		c0.8,0.8,1.9,1.3,3,1.3c0.4,0,0.7,0,1.1-0.1L21,92.2c2.8-0.7,5.3-2.1,7.3-4.2l39.1-39.1l1,1c1.4,1.4,3.2,2,5,2c1.8,0,3.6-0.7,5-2
		l1.5-1.5c3.7-3.7,4.3-9.4,1.7-13.7l10-10C96.1,20.3,96.1,12.9,91.6,8.4z M23.9,83.6c-1.2,1.2-2.8,2.1-4.4,2.5L12,88l1.9-7.5
		c0.4-1.7,1.3-3.2,2.5-4.4L55.5,37l7.5,7.5L23.9,83.6z M87.2,20.3L73,34.5l2.4,2.4c1.9,1.9,1.9,5.1,0,7.1L74,45.5
		c-0.3,0.3-0.7,0.3-1,0L56.3,28.9l-0.8-0.8l0,0l-1-1c-0.3-0.3-0.3-0.7,0-1l1.5-1.5c0.9-0.9,2.2-1.5,3.5-1.5c1.3,0,2.6,0.5,3.5,1.5
		l2.4,2.4l14.2-14.2c1-1,2.3-1.6,3.8-1.6c1.4,0,2.8,0.6,3.8,1.6C89.2,14.9,89.2,18.3,87.2,20.3z"/>
</g>
<g id="Layer_2">
</g>
</svg>
