<?xml version="1.0" encoding="utf-8"?>
<!-- Generator: Adobe Illustrator 19.1.0, SVG Export Plug-In . SVG Version: 6.00 Build 0)  -->
<svg version="1.1" xmlns="http://www.w3.org/2000/svg" xmlns:xlink="http://www.w3.org/1999/xlink" x="0px" y="0px"
	 viewBox="0 0 100 100" style="enable-background:new 0 0 100 100;" xml:space="preserve">
<g id="Layer_1">
	<g>
		<path d="M68.4,28.7c-1.6,0-2.9,1.3-2.9,2.9V71c0,1.6,1.3,2.9,2.9,2.9c1.6,0,2.9-1.3,2.9-2.9V31.6C71.3,30,70,28.7,68.4,28.7z"/>
		<path d="M56.1,58.8c-1.6,0-2.9,1.3-2.9,2.9V71c0,1.6,1.3,2.9,2.9,2.9s2.9-1.3,2.9-2.9v-9.4C59.1,60.1,57.8,58.8,56.1,58.8z"/>
		<path d="M43.9,40.1c-1.6,0-2.9,1.3-2.9,2.9V71c0,1.6,1.3,2.9,2.9,2.9s2.9-1.3,2.9-2.9V43C46.8,41.4,45.5,40.1,43.9,40.1z"/>
		<path d="M31.6,52c-1.6,0-2.9,1.3-2.9,2.9V71c0,1.6,1.3,2.9,2.9,2.9c1.6,0,2.9-1.3,2.9-2.9V55C34.5,53.4,33.2,52,31.6,52z"/>
		<path d="M86.8,22.2c-1.1,0-2.2,0.2-3.2,0.6c-1.7-4.3-5.9-7.4-10.9-7.4H27.2c-4.9,0-9.1,3.1-10.9,7.4c-1-0.4-2-0.6-3.2-0.6
			c-4.5,0-8.2,3.7-8.2,8.2v39.4c0,4.5,3.7,8.2,8.2,8.2c1.2,0,2.3-0.2,3.3-0.7c1.8,4.2,5.9,7.1,10.8,7.1h45.6c4.8,0,9-2.9,10.8-7.1
			c1,0.4,2.1,0.7,3.3,0.7c4.5,0,8.2-3.7,8.2-8.2V30.4C95,25.9,91.3,22.2,86.8,22.2z M13.2,72.2c-1.3,0-2.3-1-2.3-2.3V30.4
			c0-1.3,1-2.3,2.3-2.3s2.3,1,2.3,2.3v39.4C15.5,71.2,14.5,72.2,13.2,72.2z M78.6,72.8c0,3.2-2.6,5.8-5.8,5.8H27.2
			c-3.2,0-5.8-2.6-5.8-5.8v-2.9V30.4v-3.2c0-3.2,2.6-5.8,5.8-5.8h45.6c3.2,0,5.8,2.6,5.8,5.8v3.2v39.4V72.8z M89.2,69.9
			c0,1.3-1,2.3-2.3,2.3c-1.3,0-2.3-1-2.3-2.3V30.4c0-1.3,1-2.3,2.3-2.3c1.3,0,2.3,1,2.3,2.3V69.9z"/>
	</g>
</g>
<g id="Layer_2">
</g>
</svg>
