<?xml version="1.0" encoding="utf-8"?>
<!-- Generator: Adobe Illustrator 19.1.0, SVG Export Plug-In . SVG Version: 6.00 Build 0)  -->
<svg version="1.1" xmlns="http://www.w3.org/2000/svg" xmlns:xlink="http://www.w3.org/1999/xlink" x="0px" y="0px"
	 viewBox="0 0 100 100" style="enable-background:new 0 0 100 100;" xml:space="preserve">
<g id="Layer_1">
	<g>
		<path d="M49.8,24.9c1.6,0,2.9-1.3,2.9-2.9v-14c0-1.6-1.3-2.9-2.9-2.9s-2.9,1.3-2.9,2.9v14C46.9,23.6,48.2,24.9,49.8,24.9z"/>
		<path d="M33.3,27.3c0.5,0.9,1.5,1.5,2.5,1.5c0.5,0,1-0.1,1.5-0.4c1.4-0.8,1.9-2.6,1.1-4l-7-12.1c-0.8-1.4-2.6-1.9-4-1.1
			c-1.4,0.8-1.9,2.6-1.1,4L33.3,27.3z"/>
		<path d="M12,31.7l12.1,7c0.5,0.3,1,0.4,1.5,0.4c1,0,2-0.5,2.5-1.5c0.8-1.4,0.3-3.2-1.1-4l-12.1-7c-1.4-0.8-3.2-0.3-4,1.1
			C10.1,29.1,10.6,30.9,12,31.7z"/>
		<path d="M24.9,50.2c0-1.6-1.3-2.9-2.9-2.9h-14c-1.6,0-2.9,1.3-2.9,2.9s1.3,2.9,2.9,2.9h14C23.6,53.1,24.9,51.8,24.9,50.2z"/>
		<path d="M28.3,62.7c-0.8-1.4-2.6-1.9-4-1.1l-12.1,7c-1.4,0.8-1.9,2.6-1.1,4c0.5,0.9,1.5,1.5,2.5,1.5c0.5,0,1-0.1,1.5-0.4l12.1-7
			C28.7,65.9,29.1,64.1,28.3,62.7z"/>
		<path d="M37.6,71.9c-1.4-0.8-3.2-0.3-4,1.1l-7,12.1c-0.8,1.4-0.3,3.2,1.1,4c0.5,0.3,1,0.4,1.5,0.4c1,0,2-0.5,2.5-1.5l7-12.1
			C39.5,74.5,39,72.7,37.6,71.9z"/>
		<path d="M50.2,75.1c-1.6,0-2.9,1.3-2.9,2.9v14c0,1.6,1.3,2.9,2.9,2.9s2.9-1.3,2.9-2.9v-14C53.1,76.4,51.8,75.1,50.2,75.1z"/>
		<path d="M66.7,72.7c-0.8-1.4-2.6-1.9-4-1.1c-1.4,0.8-1.9,2.6-1.1,4l7,12.1c0.5,0.9,1.5,1.5,2.5,1.5c0.5,0,1-0.1,1.5-0.4
			c1.4-0.8,1.9-2.6,1.1-4L66.7,72.7z"/>
		<path d="M88,68.3l-12.1-7c-1.4-0.8-3.2-0.3-4,1.1c-0.8,1.4-0.3,3.2,1.1,4l12.1,7c0.5,0.3,1,0.4,1.5,0.4c1,0,2-0.5,2.5-1.5
			C89.9,70.9,89.4,69.1,88,68.3z"/>
		<path d="M92.1,46.9h-14c-1.6,0-2.9,1.3-2.9,2.9s1.3,2.9,2.9,2.9h14c1.6,0,2.9-1.3,2.9-2.9S93.7,46.9,92.1,46.9z"/>
		<path d="M71.7,37.3c0.5,0.9,1.5,1.5,2.5,1.5c0.5,0,1-0.1,1.5-0.4l12.1-7c1.4-0.8,1.9-2.6,1.1-4c-0.8-1.4-2.6-1.9-4-1.1l-12.1,7
			C71.3,34.1,70.9,35.9,71.7,37.3z"/>
		<path d="M62.4,28.1c0.5,0.3,1,0.4,1.5,0.4c1,0,2-0.5,2.5-1.5l7-12.1c0.8-1.4,0.3-3.2-1.1-4c-1.4-0.8-3.2-0.3-4,1.1l-7,12.1
			C60.5,25.5,61,27.3,62.4,28.1z"/>
	</g>
</g>
<g id="Layer_2">
</g>
</svg>
