<?xml version="1.0" encoding="utf-8"?>
<!-- Generator: Adobe Illustrator 19.1.0, SVG Export Plug-In . SVG Version: 6.00 Build 0)  -->
<svg version="1.1" xmlns="http://www.w3.org/2000/svg" xmlns:xlink="http://www.w3.org/1999/xlink" x="0px" y="0px"
	 viewBox="0 0 100 100" style="enable-background:new 0 0 100 100;" xml:space="preserve">
<g id="Layer_1">
	<g>
		<path d="M84,26.3c-1.7,0-3.1,1.4-3.1,3.1v56.1c0,1.7-1.4,3.1-3.1,3.1H22.3c-1.7,0-3.1-1.4-3.1-3.1V29.5c0-1.7-1.4-3.1-3.1-3.1
			s-3.1,1.4-3.1,3.1v56.1c0,5.2,4.2,9.4,9.4,9.4h55.4c5.2,0,9.4-4.2,9.4-9.4V29.5C87.2,27.7,85.8,26.3,84,26.3z"/>
		<path d="M46.9,65.4c0,1.7,1.4,3.1,3.1,3.1s3.1-1.4,3.1-3.1V26.8h9.4L50,5L37.4,26.8h9.4V65.4z"/>
	</g>
</g>
<g id="Layer_2">
</g>
</svg>
