<?xml version="1.0" encoding="utf-8"?>
<!-- Generator: Adobe Illustrator 19.1.0, SVG Export Plug-In . SVG Version: 6.00 Build 0)  -->
<svg version="1.1" xmlns="http://www.w3.org/2000/svg" xmlns:xlink="http://www.w3.org/1999/xlink" x="0px" y="0px"
	 viewBox="0 0 100 100" style="enable-background:new 0 0 100 100;" xml:space="preserve">
<g id="Layer_1">
	<g>
		<path d="M50,95c-12.3,0-23.7-4.6-32-12.9C9.6,73.7,5,62.3,5,50C5,37.7,9.6,26.3,17.9,18C26.3,9.6,37.7,5,50,5
			C62.3,5,73.7,9.6,82,18c8.4,8.4,13,19.8,13,32.1c0,12.3-4.6,23.7-13,32C73.7,90.4,62.3,95,50,95z M50,11.9
			c-10.4,0-20.1,3.9-27.1,10.9c-7,7.1-10.9,16.7-10.9,27.2c0,10.4,3.9,20.1,10.9,27.1c7,7,16.7,10.9,27.1,10.9
			c10.5,0,20.1-3.9,27.2-10.9c7.1-7,10.9-16.7,10.9-27.1c0-10.5-3.9-20.1-11-27.2C70.1,15.8,60.4,11.9,50,11.9z"/>
		<path d="M68.7,71.8c-0.9,0-1.7-0.3-2.3-1L47,51.4V23c0-1.9,1.6-3.5,3.5-3.5S54,21.1,54,23v25.5l17.3,17.4c1.4,1.4,1.3,3.5-0.1,4.9
			C70.5,71.5,69.6,71.8,68.7,71.8z"/>
	</g>
</g>
<g id="Layer_2">
</g>
</svg>
