<?xml version="1.0" encoding="utf-8"?>
<!-- Generator: Adobe Illustrator 19.1.0, SVG Export Plug-In . SVG Version: 6.00 Build 0)  -->
<svg version="1.1" xmlns="http://www.w3.org/2000/svg" xmlns:xlink="http://www.w3.org/1999/xlink" x="0px" y="0px"
	 viewBox="0 0 100 100" style="enable-background:new 0 0 100 100;" xml:space="preserve">
<g id="Layer_1">
	<g>
		<path d="M82.5,23.8H72.4v-2.6c0-6.9-5.6-12.5-12.5-12.5H40c-6.9,0-12.5,5.6-12.5,12.5v2.6H17.5C10.6,23.8,5,29.3,5,36.2v42.6
			c0,6.9,5.6,12.5,12.5,12.5h65.1c6.9,0,12.5-5.6,12.5-12.5V36.2C95,29.3,89.4,23.8,82.5,23.8z M35,21.2c0-2.7,2.2-5,5-5H60
			c2.7,0,5,2.2,5,5v2.5H35V21.2z M87.5,78.8c0,2.7-2.2,5-5,5H17.5c-2.7,0-5-2.2-5-5V36.2c0-2.7,2.2-5,5-5h65.1c2.7,0,5,2.2,5,5V78.8
			z"/>
		<path d="M50,35.2c-12.4,0-22.4,10-22.4,22.4S37.6,80,50,80c12.4,0,22.4-10,22.4-22.4S62.4,35.2,50,35.2z M50,72.6
			c-8.2,0-15-6.7-15-15s6.7-15,15-15s15,6.7,15,15S58.2,72.6,50,72.6z"/>
	</g>
</g>
<g id="Layer_2">
</g>
</svg>
