<?xml version="1.0" encoding="utf-8"?>
<!-- Generator: Adobe Illustrator 19.1.0, SVG Export Plug-In . SVG Version: 6.00 Build 0)  -->
<svg version="1.1" xmlns="http://www.w3.org/2000/svg" xmlns:xlink="http://www.w3.org/1999/xlink" x="0px" y="0px"
	 viewBox="0 0 100 100" style="enable-background:new 0 0 100 100;" xml:space="preserve">
<g id="Layer_1">
</g>
<g id="Layer_2">
	<g>
		<path d="M53.3,12.9c-7,0-11.7,4.5-11.7,10.5c0,6.5,4.9,10,10.4,10c3.4,0,6.4-1.9,7.9-3.9c0,0.2,0,0.5,0,0.7c0,4.4-2.6,8.6-7.7,8.6
			c-2.7,0-4.5-0.8-6.1-2.4l-2.9,5c2.2,1.9,5.3,3.2,9,3.2c9,0,14.3-6.6,14.3-15.8C66.5,20.1,62.6,12.9,53.3,12.9z M53.8,27.8
			c-2.8,0-5.6-1.4-5.6-4.6c0-2.1,1.9-4.5,5.5-4.5c4.3,0,5.9,3.3,6.2,6.2C58.4,26.7,56.2,27.8,53.8,27.8z"/>
		<path d="M88.6,49.1c2.3-0.4,4.5-2.1,4.5-4.7c0-3.4-3-5.6-7.8-5.6c-3.6,0-6.2,1.4-7.9,3.3l2.2,2.7c1.5-1.4,3.2-2.1,5.2-2.1
			c2.1,0,3.8,0.8,3.8,2.4c0,1.5-1.5,2.2-3.8,2.2c-0.8,0-2.2,0-2.6,0v4c0.3,0,1.7-0.1,2.6-0.1c2.9,0,4.1,0.7,4.1,2.4
			c0,1.5-1.4,2.6-3.9,2.6c-2,0-4.3-0.9-5.7-2.3l-2.3,2.9c1.5,1.9,4.4,3.3,8.1,3.3c4.9,0,8.1-2.5,8.1-6.1
			C93.4,51,90.7,49.3,88.6,49.1z"/>
		<polygon points="43.3,65.7 47,69.6 52.1,64.4 52.1,86.6 58.7,86.6 58.7,56 53,56 		"/>
		<path d="M22,16.7c0-1.7-1.4-3.1-3.1-3.1c-1.7,0-3.1,1.4-3.1,3.1v49H6.6l12.3,21.3l12.3-21.3H22V16.7z"/>
	</g>
</g>
</svg>
