<?xml version="1.0" encoding="utf-8"?>
<!-- Generator: Adobe Illustrator 19.1.0, SVG Export Plug-In . SVG Version: 6.00 Build 0)  -->
<svg version="1.1" xmlns="http://www.w3.org/2000/svg" xmlns:xlink="http://www.w3.org/1999/xlink" x="0px" y="0px"
	 viewBox="0 0 100 100" style="enable-background:new 0 0 100 100;" xml:space="preserve">
<g id="Layer_1">
	<g>
		<path d="M50,11.2c10.4,0,20.1,4,27.4,11.3s11.3,17,11.3,27.4s-4,20.1-11.3,27.4S60.4,88.8,50,88.8s-20.1-4-27.4-11.3
			S11.2,60.4,11.2,50s4-20.1,11.3-27.4S39.6,11.2,50,11.2 M50,5C25.1,5,5,25.1,5,50s20.1,45,45,45s45-20.1,45-45S74.9,5,50,5L50,5z"
			/>
		<g>
			<path d="M37.2,49.5c0-10,5.3-17.9,15.3-17.9c4.3,0,7.6,1.5,9.9,3.9l-2.8,4.6c-1.8-1.9-3.9-3-7.1-3c-5.8,0-9.2,5.4-9.2,11.5
				c0,0.3,0,0.6,0,1c1.6-2.3,5.3-4.9,9.3-4.9c6.2,0,11.7,3.9,11.7,11.2c0,6.4-5.1,11.7-12.8,11.7C41.3,67.5,37.2,59.2,37.2,49.5z
				 M58.1,56c0-4.3-3.3-6.2-7.1-6.2c-3,0-5.9,1.6-7.6,4.1c0.3,3.8,2.4,8.2,7.7,8.2C55.7,62.1,58.1,58.8,58.1,56z"/>
		</g>
	</g>
</g>
<g id="Layer_2">
</g>
</svg>
