<?xml version="1.0" encoding="utf-8"?>
<!-- Generator: Adobe Illustrator 19.1.0, SVG Export Plug-In . SVG Version: 6.00 Build 0)  -->
<svg version="1.1" xmlns="http://www.w3.org/2000/svg" xmlns:xlink="http://www.w3.org/1999/xlink" x="0px" y="0px"
	 viewBox="0 0 100 100" style="enable-background:new 0 0 100 100;" xml:space="preserve">
<g id="Layer_1">
	<g>
		<path d="M72.7,16.3H15.4c-4.2,0-7.7,3.6-7.7,8.1v62.6c0,4.5,3.4,8.1,7.7,8.1h44.8c3.3,0,6.5-1.4,8.8-3.9l7.9-8.6
			c2.3-2.5,3.5-5.7,3.5-9.2V24.4C80.4,19.9,76.9,16.3,72.7,16.3z M13.8,86.9V24.4c0-1.1,0.7-2,1.6-2h57.3c0.9,0,1.6,0.9,1.6,2v48.9
			c0,0.4,0,0.8-0.1,1.2h-12c-1.7,0-3,1.4-3,3v11.5H15.4C14.5,88.9,13.8,88,13.8,86.9z M65.2,86.2v-5.7h5.2L65.2,86.2z"/>
		<path d="M22.3,36.9h43.6c1.7,0,3-1.4,3-3s-1.4-3-3-3H22.3c-1.7,0-3,1.4-3,3S20.6,36.9,22.3,36.9z"/>
		<path d="M22.3,51.4h43.6c1.7,0,3-1.4,3-3s-1.4-3-3-3H22.3c-1.7,0-3,1.4-3,3S20.6,51.4,22.3,51.4z"/>
		<path d="M65.8,65.9c1.7,0,3-1.4,3-3s-1.4-3-3-3H22.3c-1.7,0-3,1.4-3,3s1.4,3,3,3H65.8z"/>
		<path d="M84.6,5H27.3c-2.7,0-5.2,1.5-6.5,3.8c-0.6,1,0.1,2.2,1.3,2.2h5.2h6h51.3c0.9,0,1.6,0.9,1.6,2v42.8V62v8.2
			c0,1.3,1.6,2,2.5,1c2.3-2.5,3.5-5.7,3.5-9.2V13.1C92.3,8.6,88.8,5,84.6,5z"/>
	</g>
</g>
<g id="Layer_2">
</g>
</svg>
