<?xml version="1.0" encoding="utf-8"?>
<!-- Generator: Adobe Illustrator 19.1.0, SVG Export Plug-In . SVG Version: 6.00 Build 0)  -->
<svg version="1.1" xmlns="http://www.w3.org/2000/svg" xmlns:xlink="http://www.w3.org/1999/xlink" x="0px" y="0px"
	 viewBox="0 0 100 100" style="enable-background:new 0 0 100 100;" xml:space="preserve">
<g id="Layer_1">
</g>
<g id="Layer_2">
	<g>
		<polygon points="64.3,38 49.4,38 64,18.2 64,12.9 40.8,12.9 40.8,18.7 55.4,18.7 40.8,38.4 40.8,43.8 64.3,43.8 		"/>
		<path d="M85.1,56.4c6.1-4.4,9.4-7.9,9.4-11.9c0-4.7-3.9-7.5-9-7.5c-3.3,0-6.8,1.2-9.1,3.8l2.9,3.3c1.6-1.7,3.6-2.7,6.3-2.7
			c1.9,0,3.8,1,3.8,3.1c0,2.9-2.8,5.3-12.4,12.4v3.9h17.7v-4.4H85.1z"/>
		<path d="M48.3,55.8L36.4,86.6h7.4l1.9-5.2H59l1.9,5.2h7.4L56.5,55.8H48.3z M47.6,75.6l4.8-13.3l4.8,13.3H47.6z"/>
		<path d="M20.8,16.3c0-1.7-1.4-3.1-3.1-3.1s-3.1,1.4-3.1,3.1v49.3H5.3l12.4,21.5l12.4-21.5h-9.3V16.3z"/>
	</g>
</g>
</svg>
