<?xml version="1.0" encoding="utf-8"?>
<!-- Generator: Adobe Illustrator 19.1.0, SVG Export Plug-In . SVG Version: 6.00 Build 0)  -->
<svg version="1.1" xmlns="http://www.w3.org/2000/svg" xmlns:xlink="http://www.w3.org/1999/xlink" x="0px" y="0px"
	 viewBox="0 0 100 100" style="enable-background:new 0 0 100 100;" xml:space="preserve">
<g id="Layer_1">
	<g>
		<path d="M8.5,20.2h83.1c1.9,0,3.5-1.5,3.5-3.5c0-1.9-1.5-3.5-3.5-3.5H8.5c-1.9,0-3.5,1.5-3.5,3.5C5,18.7,6.5,20.2,8.5,20.2z"/>
		<path d="M8.5,36.8h49.8c1.9,0,3.5-1.5,3.5-3.5c0-1.9-1.5-3.5-3.5-3.5H8.5c-1.9,0-3.5,1.5-3.5,3.5C5,35.3,6.5,36.8,8.5,36.8z"/>
		<path d="M91.5,46.5H8.5C6.5,46.5,5,48.1,5,50s1.5,3.5,3.5,3.5h83.1c1.9,0,3.5-1.5,3.5-3.5S93.5,46.5,91.5,46.5z"/>
		<path d="M8.5,70.1h49.8c1.9,0,3.5-1.5,3.5-3.5c0-1.9-1.5-3.5-3.5-3.5H8.5c-1.9,0-3.5,1.5-3.5,3.5C5,68.5,6.5,70.1,8.5,70.1z"/>
		<path d="M91.5,79.8H8.5c-1.9,0-3.5,1.5-3.5,3.5c0,1.9,1.5,3.5,3.5,3.5h83.1c1.9,0,3.5-1.5,3.5-3.5C95,81.3,93.5,79.8,91.5,79.8z"
			/>
	</g>
</g>
<g id="Layer_2">
</g>
</svg>
