<?xml version="1.0" encoding="utf-8"?>
<!-- Generator: Adobe Illustrator 19.1.0, SVG Export Plug-In . SVG Version: 6.00 Build 0)  -->
<svg version="1.1" xmlns="http://www.w3.org/2000/svg" xmlns:xlink="http://www.w3.org/1999/xlink" x="0px" y="0px"
	 viewBox="0 0 100 100" style="enable-background:new 0 0 100 100;" xml:space="preserve">
<g id="Layer_1">
	<g>
		<path d="M23.8,47.9c5.2,0,9.4-4.2,9.4-9.4s-4.2-9.4-9.4-9.4s-9.4,4.2-9.4,9.4S18.6,47.9,23.8,47.9z M23.8,35.3
			c1.7,0,3.1,1.4,3.1,3.1c0,1.7-1.4,3.1-3.1,3.1s-3.1-1.4-3.1-3.1C20.7,36.8,22.1,35.3,23.8,35.3z"/>
		<path d="M84.5,5H30.1c-5.8,0-10.5,4.7-10.5,10.5H27c0-1.7,1.4-3.1,3.1-3.1h54.4c1.7,0,3.1,1.4,3.1,3.1v54.4c0,1.7-1.4,3.1-3.1,3.1
			v7.3c5.8,0,10.5-4.7,10.5-10.5V15.5C95,9.7,90.3,5,84.5,5z"/>
		<path d="M69.9,19.7H15.5C9.7,19.7,5,24.3,5,30.1v54.4C5,90.3,9.7,95,15.5,95h54.4c5.8,0,10.5-4.7,10.5-10.5V30.1
			C80.3,24.3,75.7,19.7,69.9,19.7z M15.5,27h54.4c1.7,0,3.1,1.4,3.1,3.1v15.9l-3.8-3.6c-1.2-1.2-3.2-1.1-4.4,0.1L40.4,67L28.5,55.1
			c-1.2-1.2-3.2-1.2-4.4,0L12.3,66.5V30.1C12.3,28.4,13.7,27,15.5,27z M69.9,87.7H15.5c-1.7,0-3.1-1.4-3.1-3.1v-9.3l13.9-13.5
			l11.9,11.9c1.2,1.2,3.2,1.2,4.4,0l24.5-24.5l5.9,5.5v29.9C73,86.3,71.6,87.7,69.9,87.7z"/>
	</g>
</g>
<g id="Layer_2">
</g>
</svg>
