<?xml version="1.0" encoding="utf-8"?>
<!-- Generator: Adobe Illustrator 19.1.0, SVG Export Plug-In . SVG Version: 6.00 Build 0)  -->
<svg version="1.1" xmlns="http://www.w3.org/2000/svg" xmlns:xlink="http://www.w3.org/1999/xlink" x="0px" y="0px"
	 viewBox="0 0 100 100" style="enable-background:new 0 0 100 100;" xml:space="preserve">
<g id="Layer_1">
	<g>
		<path d="M24.2,33.8H13.6C8.8,33.8,5,30,5,25.3V14.7c0-4.7,3.8-8.6,8.6-8.6h10.6c4.7,0,8.6,3.8,8.6,8.6v10.6
			C32.7,30,28.9,33.8,24.2,33.8z M13.6,11.5c-1.7,0-3.1,1.4-3.1,3.1v10.6c0,1.7,1.4,3.1,3.1,3.1h10.6c1.7,0,3.1-1.4,3.1-3.1V14.7
			c0-1.7-1.4-3.1-3.1-3.1H13.6z"/>
		<path d="M55.3,33.8H44.7c-4.7,0-8.6-3.8-8.6-8.6V14.7c0-4.7,3.8-8.6,8.6-8.6h10.6c4.7,0,8.6,3.8,8.6,8.6v10.6
			C63.9,30,60,33.8,55.3,33.8z M44.7,11.5c-1.7,0-3.1,1.4-3.1,3.1v10.6c0,1.7,1.4,3.1,3.1,3.1h10.6c1.7,0,3.1-1.4,3.1-3.1V14.7
			c0-1.7-1.4-3.1-3.1-3.1H44.7z"/>
		<path d="M86.4,33.8H75.8c-4.7,0-8.6-3.8-8.6-8.6V14.7c0-4.7,3.8-8.6,8.6-8.6h10.6c4.7,0,8.6,3.8,8.6,8.6v10.6
			C95,30,91.2,33.8,86.4,33.8z M75.8,11.5c-1.7,0-3.1,1.4-3.1,3.1v10.6c0,1.7,1.4,3.1,3.1,3.1h10.6c1.7,0,3.1-1.4,3.1-3.1V14.7
			c0-1.7-1.4-3.1-3.1-3.1H75.8z"/>
		<path d="M24.2,63.9H13.6C8.8,63.9,5,60,5,55.3V44.7c0-4.7,3.8-8.6,8.6-8.6h10.6c4.7,0,8.6,3.8,8.6,8.6v10.6
			C32.7,60,28.9,63.9,24.2,63.9z M13.6,41.6c-1.7,0-3.1,1.4-3.1,3.1v10.6c0,1.7,1.4,3.1,3.1,3.1h10.6c1.7,0,3.1-1.4,3.1-3.1V44.7
			c0-1.7-1.4-3.1-3.1-3.1H13.6z"/>
		<path d="M55.3,63.9H44.7c-4.7,0-8.6-3.8-8.6-8.6V44.7c0-4.7,3.8-8.6,8.6-8.6h10.6c4.7,0,8.6,3.8,8.6,8.6v10.6
			C63.9,60,60,63.9,55.3,63.9z M44.7,41.6c-1.7,0-3.1,1.4-3.1,3.1v10.6c0,1.7,1.4,3.1,3.1,3.1h10.6c1.7,0,3.1-1.4,3.1-3.1V44.7
			c0-1.7-1.4-3.1-3.1-3.1H44.7z"/>
		<path d="M86.4,63.9H75.8c-4.7,0-8.6-3.8-8.6-8.6V44.7c0-4.7,3.8-8.6,8.6-8.6h10.6c4.7,0,8.6,3.8,8.6,8.6v10.6
			C95,60,91.2,63.9,86.4,63.9z M75.8,41.6c-1.7,0-3.1,1.4-3.1,3.1v10.6c0,1.7,1.4,3.1,3.1,3.1h10.6c1.7,0,3.1-1.4,3.1-3.1V44.7
			c0-1.7-1.4-3.1-3.1-3.1H75.8z"/>
		<path d="M24.2,93.9H13.6C8.8,93.9,5,90,5,85.3V74.7c0-4.7,3.8-8.6,8.6-8.6h10.6c4.7,0,8.6,3.8,8.6,8.6v10.6
			C32.7,90,28.9,93.9,24.2,93.9z M13.6,71.6c-1.7,0-3.1,1.4-3.1,3.1v10.6c0,1.7,1.4,3.1,3.1,3.1h10.6c1.7,0,3.1-1.4,3.1-3.1V74.7
			c0-1.7-1.4-3.1-3.1-3.1H13.6z"/>
		<path d="M55.3,93.9H44.7c-4.7,0-8.6-3.8-8.6-8.6V74.7c0-4.7,3.8-8.6,8.6-8.6h10.6c4.7,0,8.6,3.8,8.6,8.6v10.6
			C63.9,90,60,93.9,55.3,93.9z M44.7,71.6c-1.7,0-3.1,1.4-3.1,3.1v10.6c0,1.7,1.4,3.1,3.1,3.1h10.6c1.7,0,3.1-1.4,3.1-3.1V74.7
			c0-1.7-1.4-3.1-3.1-3.1H44.7z"/>
		<path d="M86.4,93.9H75.8c-4.7,0-8.6-3.8-8.6-8.6V74.7c0-4.7,3.8-8.6,8.6-8.6h10.6c4.7,0,8.6,3.8,8.6,8.6v10.6
			C95,90,91.2,93.9,86.4,93.9z M75.8,71.6c-1.7,0-3.1,1.4-3.1,3.1v10.6c0,1.7,1.4,3.1,3.1,3.1h10.6c1.7,0,3.1-1.4,3.1-3.1V74.7
			c0-1.7-1.4-3.1-3.1-3.1H75.8z"/>
	</g>
</g>
<g id="Layer_2">
</g>
</svg>
