<?xml version="1.0" encoding="utf-8"?>
<!-- Generator: Adobe Illustrator 19.1.0, SVG Export Plug-In . SVG Version: 6.00 Build 0)  -->
<svg version="1.1" xmlns="http://www.w3.org/2000/svg" xmlns:xlink="http://www.w3.org/1999/xlink" x="0px" y="0px"
	 viewBox="0 0 100 100" style="enable-background:new 0 0 100 100;" xml:space="preserve">
<g id="Layer_1">
	<path d="M92.2,17.9l-10-10C80.3,5.9,77.9,5,75.4,5c-2.4,0-4.9,0.9-6.8,2.8L7.8,68.5C6,70.3,5,72.7,5,75.2V90c0,2.8,2.3,5,5,5h14.7
		c2.5,0,5-1,6.8-2.8l60.6-60.8C95.9,27.6,95.9,21.6,92.2,17.9z M27,87.6c-0.6,0.6-1.4,0.9-2.2,0.9H11.5V75.2c0-0.8,0.3-1.6,0.9-2.2
		l45.8-45.7l14.4,14.4L27,87.6z M87.6,26.8L77.2,37.1L62.8,22.8l10.4-10.4c0.8-0.8,1.7-0.9,2.2-0.9c0.5,0,1.4,0.1,2.2,0.9l10,10
		C88.8,23.6,88.8,25.6,87.6,26.8z"/>
</g>
<g id="Layer_2">
</g>
</svg>
